<?xml version="1.0" standalone="no"?>
<!DOCTYPE svg PUBLIC "-//W3C//DTD SVG 1.1//EN" "http://www.w3.org/Graphics/SVG/1.1/DTD/svg11.dtd" >
<svg>
<metadata>
Created by FontForge 20090622 at Thu Jul  6 16:33:04 2017
 By deploy user
copyright missing
</metadata>
<defs>
<font id="Branding-Medium" horiz-adv-x="0" >
  <font-face 
    font-family="Branding Medium"
    font-weight="500"
    font-stretch="normal"
    units-per-em="1000"
    panose-1="0 0 6 0 0 0 0 0 0 0"
    ascent="770"
    descent="-230"
    x-height="470"
    cap-height="648"
    bbox="-664 -209 1351 848"
    underline-thickness="50"
    underline-position="-50"
    unicode-range="U+0020-U+FB02"
  />
<missing-glyph horiz-adv-x="406" 
d="M202 90l-168 169l168 168l169 -168z" />
    <glyph glyph-name="fi" unicode="fi" horiz-adv-x="528" 
d="M451 467v-467q-17 -4 -40 -4q-22 0 -41 4v402l-190 1v-404q-17 -4 -39 -4t-39 4v404h-66q-4 24 -4 32q0 11 4 33h66v4q0 95 57.5 143.5t134.5 48.5q96 0 152 -56q-2 -16 -16.5 -33t-31.5 -22q-48 40 -107 40q-47 0 -79 -27t-32 -85v-13z" />
    <glyph glyph-name="fl" unicode="fl" horiz-adv-x="549" 
d="M309 664q87 0 163 -39v-625q-17 -4 -41 -4q-21 0 -40 4l-4 578q-35 15 -81 15q-55 0 -90.5 -26.5t-35.5 -83.5v-16h104q4 -15 4 -33q0 -16 -4 -32h-104v-403q-17 -4 -39 -4t-39 4v404h-66q-4 24 -4 32q0 11 4 33h66v6q0 94 61.5 142t145.5 48z" />
    <glyph glyph-name=".notdef" horiz-adv-x="406" 
d="M202 90l-168 169l168 168l169 -168z" />
    <glyph glyph-name=".null" 
 />
    <glyph glyph-name="nonmarkingreturn" horiz-adv-x="333" 
 />
    <glyph glyph-name="space" unicode=" " horiz-adv-x="242" 
 />
    <glyph glyph-name="exclam" unicode="!" horiz-adv-x="252" 
d="M126 147q-10 0 -22 3q-20 240 -22 492q21 4 44 4q25 0 45 -4q-3 -278 -23 -492q-10 -3 -22 -3zM126 -10q-22 0 -37 15t-15 37t15 36.5t37 14.5q21 0 36 -14.5t15 -36.5t-15 -37t-36 -15z" />
    <glyph glyph-name="quotedbl" unicode="&#x22;" horiz-adv-x="305" 
d="M95 459q-7 0 -19 4l-23 186q19 11 42 11q24 0 41 -11l-23 -186q-12 -4 -18 -4zM211 459q-7 0 -19 4l-23 186q19 11 42 11q24 0 41 -11l-23 -186q-12 -4 -18 -4z" />
    <glyph glyph-name="numbersign" unicode="#" horiz-adv-x="657" 
d="M603 364h-90l-53 -160h91q1 -37 -22 -68h-91l-61 -183q-41 -12 -76 0l61 183h-164l-61 -183q-41 -12 -76 0l61 183h-90q-4 40 22 68h90l53 160h-91q-4 32 22 68h91l61 183q43 11 76 0l-61 -183h164l61 183q43 11 76 0l-61 -183h90q4 -32 -22 -68zM384 204l53 160h-164
l-53 -160h164z" />
    <glyph glyph-name="dollar" unicode="$" horiz-adv-x="510" 
d="M468 214q0 -82 -49.5 -127.5t-131.5 -53.5v-86q-13 -4 -31 -4q-17 0 -32 4v86q-62 5 -110.5 27t-71.5 45q12 38 49 59q50 -47 133 -58v183q-82 9 -128.5 48t-46.5 107q0 65 46.5 110t128.5 55v83q17 3 32 3q16 0 31 -3v-82q49 -4 94 -21t72 -39q-14 -29 -40 -61
q-56 41 -126 48v-168q87 -11 134 -50t47 -105zM125 458q0 -32 20.5 -52t78.5 -30v161q-99 -11 -99 -79zM287 106q48 6 74.5 29.5t26.5 59.5q0 37 -20 60t-81 30v-179z" />
    <glyph glyph-name="percent" unicode="%" horiz-adv-x="730" 
d="M177 342q-68 0 -106 41.5t-38 108.5t38 108.5t106 41.5q67 0 105 -41.5t38 -108.5t-38 -108.5t-105 -41.5zM101 -47l429 662q45 9 76 0l-429 -662q-46 -7 -76 0zM177 401q38 0 57.5 24.5t19.5 66.5q0 41 -19.5 66t-57.5 25q-39 0 -58.5 -25t-19.5 -66q0 -42 19.5 -66.5
t58.5 -24.5zM553 -14q-68 0 -106 41.5t-38 108.5t38 108.5t106 41.5q67 0 105 -41.5t38 -108.5t-38 -108.5t-105 -41.5zM553 45q39 0 58 24.5t19 66.5q0 41 -19 66t-58 25t-58.5 -25t-19.5 -66q0 -42 19.5 -66.5t58.5 -24.5z" />
    <glyph glyph-name="ampersand" unicode="&#x26;" horiz-adv-x="616" 
d="M589 336q0 -16 -5 -36h-98v-249q-94 -64 -202 -64q-110 0 -171 47t-61 139q0 58 29 100.5t81 64.5q-80 42 -80 139q0 75 52 123t133 48q101 0 160 -48q-12 -40 -43 -60q-52 40 -114 40q-51 0 -80.5 -27t-29.5 -76q0 -105 146 -105h278q5 -20 5 -36zM407 87v213h-120
q-155 0 -155 -121q0 -58 39 -90.5t114 -32.5q69 0 122 31z" />
    <glyph glyph-name="quotesingle" unicode="'" horiz-adv-x="189" 
d="M95 459q-7 0 -19 4l-23 186q19 11 42 11q24 0 41 -11l-23 -186q-12 -4 -18 -4z" />
    <glyph glyph-name="parenleft" unicode="(" horiz-adv-x="274" 
d="M169 -174q-117 197 -118 427q1 230 118 427q16 5 36.5 -3t26.5 -23q-88 -175 -89 -401q1 -226 89 -401q-6 -15 -26.5 -23t-36.5 -3z" />
    <glyph glyph-name="parenright" unicode=")" horiz-adv-x="274" 
d="M105 -174q-16 -5 -36.5 3t-26.5 23q88 175 89 401q-1 226 -89 401q6 15 26.5 23t36.5 3q117 -197 118 -427q-1 -230 -118 -427z" />
    <glyph glyph-name="asterisk" unicode="*" horiz-adv-x="341" 
d="M200 541l80 -33q-9 -39 -41 -57l-57 67l-7 -3l-7 -88q-40 -4 -66 22l46 75q-3 3 -5 7l-86 -21q-16 36 0 70l85 -21q4 6 5 7l-47 77q29 26 67 22l6 -89q2 0 8 -2l57 66q35 -19 41 -56l-80 -32q1 -2 1 -6v-5z" />
    <glyph glyph-name="plus" unicode="+" horiz-adv-x="509" 
d="M465 285q8 -35 0 -70h-176v-176q-35 -8 -70 0v176h-175q-8 35 0 70h175v175q35 8 70 0v-175h176z" />
    <glyph glyph-name="comma" unicode="," horiz-adv-x="226" 
d="M72 -155q-11 0 -21 8t-12 18q32 46 32 141q0 42 -9 79q21 8 52 8q25 0 42 -7q5 -15 5 -42q0 -62 -27.5 -116t-61.5 -89z" />
    <glyph glyph-name="hyphen" unicode="-" horiz-adv-x="400" 
d="M72 215q-5 15 -5 34t5 33h256q4 -15 4 -33t-4 -34h-256z" />
    <glyph glyph-name="period" unicode="." horiz-adv-x="234" 
d="M117 -13q-26 0 -44.5 18.5t-18.5 44.5t18.5 45t44.5 19t44.5 -19t18.5 -45t-18.5 -44.5t-44.5 -18.5z" />
    <glyph glyph-name="slash" unicode="/" horiz-adv-x="534" 
d="M61 -190q-17 0 -37 5l410 855q20 5 38 5q16 0 38 -5l-410 -855q-22 -5 -39 -5z" />
    <glyph glyph-name="zero" unicode="0" horiz-adv-x="590" 
d="M295 -16q-117 0 -178.5 92t-61.5 247t62 246.5t178 91.5q118 0 179 -91t61 -247q0 -154 -62 -246.5t-178 -92.5zM295 59q154 0 154 264q0 263 -154 263t-154 -263q0 -264 154 -264z" />
    <glyph glyph-name="one" unicode="1" horiz-adv-x="330" 
d="M212 652q15 0 24 -4v-648q-17 -4 -40 -4q-20 0 -37 4v537l-106 -55q-29 27 -34 69l168 97q11 4 25 4z" />
    <glyph glyph-name="two" unicode="2" horiz-adv-x="510" 
d="M463 77q5 -16 5 -37q0 -24 -5 -40h-409q-3 10 -3 24q0 41 34 74q167 159 219.5 228.5t52.5 133.5q0 54 -32.5 89t-93.5 35q-36 0 -68 -13.5t-46 -25t-33 -31.5q-33 11 -47 50q31 40 84 68.5t113 28.5q90 0 148 -52.5t58 -146.5q0 -38 -14.5 -76.5t-33.5 -69.5t-59.5 -75
t-70 -72.5l-87.5 -82.5l-14 -11l15 1z" />
    <glyph glyph-name="three" unicode="3" horiz-adv-x="499" 
d="M54 642h367q3 -44 -27 -89l-125 -150q31 -3 59.5 -15t56 -34t44 -61t16.5 -91q0 -105 -65.5 -160.5t-163.5 -55.5q-58 0 -102.5 19t-68.5 43q11 40 44 61q63 -52 127 -52q70 0 110 35.5t40 101.5q0 72 -42 108t-142 36h-19q-2 12 -2 16q0 17 22 49l125 158h-254
q-5 23 -5 41t5 40z" />
    <glyph glyph-name="four" unicode="4" horiz-adv-x="485" 
d="M457 202q0 -23 -4 -40h-65v-162q-20 -3 -38 -3q-19 0 -37 3v162h-270q-29 63 12 148l170 354q34 -7 70 -30l-159 -339q-19 -41 -19 -59h196v167q18 3 37 3q18 0 38 -3v-167h66q3 -17 3 -34z" />
    <glyph glyph-name="five" unicode="5" horiz-adv-x="506" 
d="M228 -14q-103 0 -170 62q9 40 43 61q63 -52 127 -52q75 0 113.5 39t38.5 106q0 65 -38 100.5t-114 35.5q-28 0 -70.5 -12.5t-63.5 -12.5q-13 0 -23 4v325h353q4 -17 4 -41q0 -22 -4 -39h-277v-163q38 18 87 18q111 0 168 -55t57 -157q0 -100 -61 -159.5t-170 -59.5z" />
    <glyph glyph-name="six" unicode="6" horiz-adv-x="521" 
d="M284 395q87 0 141 -52.5t54 -144.5q0 -95 -60 -154t-154 -59q-96 0 -154.5 66.5t-58.5 185.5q0 92 30 169t81 128.5t111.5 85t128.5 48.5q24 -22 24 -69q-234 -59 -283 -250q58 46 140 46zM272 56q59 0 94.5 36.5t35.5 104.5q0 58 -38.5 88.5t-88.5 30.5q-87 0 -143 -52
q-1 -9 -1 -27q0 -85 40 -133t101 -48z" />
    <glyph glyph-name="seven" unicode="7" horiz-adv-x="460" 
d="M430 642q4 -9 4 -28q0 -47 -19 -85l-260 -545q-44 8 -68 39l258 539h-313q-4 28 -4 40q0 14 4 40h398z" />
    <glyph glyph-name="eight" unicode="8" horiz-adv-x="530" 
d="M364 337q112 -58 112 -159q0 -52 -19 -91t-50.5 -60.5t-68 -31.5t-76.5 -10q-90 0 -149.5 39.5t-59.5 130.5q0 106 112 187q-90 53 -90 147q0 77 54 124.5t137 47.5q86 0 138 -45.5t52 -121.5q0 -87 -92 -157zM266 589q-54 0 -85.5 -25t-31.5 -65q0 -43 31.5 -69
t96.5 -53q4 -1 12 -4.5t12 -5.5q42 28 61.5 55.5t19.5 66.5q0 47 -32 73.5t-84 26.5zM262 57q139 0 139 112q0 33 -23 59.5t-49.5 40t-73.5 32.5l-28 12q-97 -64 -97 -150q0 -56 37 -81t95 -25z" />
    <glyph glyph-name="nine" unicode="9" horiz-adv-x="519" 
d="M251 661q100 0 156 -80.5t56 -230.5q0 -68 -10.5 -123t-28 -92.5t-45 -65.5t-55 -43.5t-64.5 -25t-68.5 -12.5t-71.5 -3q-9 18 -9 41q0 14 3 29q26 1 38 1.5t36 2t36 4.5l32.5 8.5t32 14l27 20t24.5 27.5t19 36.5t16 47t9 58.5q-62 -44 -139 -44q-95 0 -150 55t-55 154
q0 96 57.5 158.5t153.5 62.5zM247 302q82 0 140 46v2q0 117 -37 178.5t-102 61.5q-61 0 -98 -40t-37 -110q0 -69 38.5 -103.5t95.5 -34.5z" />
    <glyph glyph-name="colon" unicode=":" horiz-adv-x="260" 
d="M130 319q-26 0 -44.5 18.5t-18.5 44.5t18.5 45t44.5 19t44.5 -19t18.5 -45t-18.5 -44.5t-44.5 -18.5zM130 -12q-26 0 -44.5 18.5t-18.5 44.5t18.5 45t44.5 19t44.5 -19t18.5 -45t-18.5 -44.5t-44.5 -18.5z" />
    <glyph glyph-name="semicolon" unicode=";" horiz-adv-x="271" 
d="M132 298q-27 0 -46.5 20t-19.5 47q0 28 19.5 47.5t46.5 19.5q28 0 47.5 -19.5t19.5 -47.5q0 -27 -19.5 -47t-47.5 -20zM99 -155q-11 0 -21 8t-12 18q32 46 32 141q0 42 -9 79q21 8 52 8q25 0 42 -7q5 -15 5 -42q0 -62 -27.5 -116t-61.5 -89z" />
    <glyph glyph-name="less" unicode="&#x3c;" horiz-adv-x="580" 
d="M133 234l396 -159q-5 -35 -24 -66l-463 185q-6 21 -6 41q0 25 5 42l457 182q20 -33 24 -66l-389 -155l-8 -2z" />
    <glyph glyph-name="equal" unicode="=" horiz-adv-x="569" 
d="M74 296q-4 24 -4 35q0 13 4 35h421q4 -15 4 -35q0 -19 -4 -35h-421zM74 97q-4 24 -4 35q0 13 4 35h421q4 -15 4 -35q0 -19 -4 -35h-421z" />
    <glyph glyph-name="greater" unicode="&#x3e;" horiz-adv-x="580" 
d="M539 277q5 -17 5 -42q0 -20 -6 -41l-463 -185q-19 31 -24 66l396 159l8 2l-8 2l-389 155q4 33 24 66z" />
    <glyph glyph-name="question" unicode="?" horiz-adv-x="423" 
d="M176 150q-13 0 -20 1q-13 70 -15 144h11q69 0 109.5 37t40.5 105q0 58 -36.5 93.5t-96.5 35.5q-54 0 -104 -32q-30 21 -36 55q22 22 60.5 37.5t79.5 15.5q95 0 154 -57t59 -148q0 -80 -48.5 -136t-124.5 -72q-4 -31 -13 -78q-6 -1 -20 -1zM178 -10q-22 0 -37 15t-15 37
t15 36.5t37 14.5q21 0 36 -14.5t15 -36.5t-15 -37t-36 -15z" />
    <glyph glyph-name="at" unicode="@" horiz-adv-x="844" 
d="M419 639q161 0 265.5 -102t104.5 -264q0 -114 -45 -164.5t-117 -50.5q-67 0 -99 55q-48 -43 -111 -43q-82 0 -129.5 49.5t-47.5 139.5q0 83 55.5 139.5t139.5 56.5q91 0 146 -48v-216q0 -33 12.5 -49.5t45.5 -16.5q72 0 72 148q0 122 -83.5 208t-208.5 86
q-121 0 -205.5 -89.5t-84.5 -217.5q0 -132 78 -219t212 -87q71 0 135 33q11 -10 19 -29.5t8 -37.5q-73 -39 -162 -39q-168 0 -269 108t-101 271q0 158 108 268.5t262 110.5zM417 137q60 0 96 42v185q-33 24 -78 24q-55 0 -88.5 -35.5t-33.5 -94.5q0 -58 28.5 -89.5
t75.5 -31.5z" />
    <glyph glyph-name="A" unicode="A" horiz-adv-x="600" 
d="M341 642l243 -635q-19 -11 -48 -11q-23 0 -39 4l-66 179h-265l-64 -179q-17 -4 -36 -4q-27 0 -48 11l238 635q17 6 43 6q25 0 42 -6zM191 249h214l-92 248l-17 54l-17 -54z" />
    <glyph glyph-name="B" unicode="B" horiz-adv-x="584" 
d="M426 340q110 -37 110 -154q0 -95 -67 -146.5t-192 -51.5q-115 0 -188 13v630q85 17 184 17q233 0 233 -171q0 -95 -80 -137zM278 578q-63 0 -108 -5v-206h119q139 0 139 110q0 49 -38.5 75t-111.5 26zM272 60q98 0 141 28.5t43 93.5q0 112 -158 112h-128v-227
q44 -7 102 -7z" />
    <glyph glyph-name="C" unicode="C" horiz-adv-x="599" 
d="M365 -16q-141 0 -229 94.5t-88 242.5q0 147 93 243t230 96q116 0 195 -59q-7 -44 -45 -63q-66 46 -150 46q-103 0 -170.5 -71.5t-67.5 -191.5q0 -118 66.5 -189.5t165.5 -71.5q101 0 165 52q34 -20 41 -62q-76 -66 -206 -66z" />
    <glyph glyph-name="D" unicode="D" horiz-adv-x="673" 
d="M259 651q174 0 269.5 -88.5t95.5 -237.5q0 -148 -96.5 -241t-258.5 -93q-99 0 -180 12v635q86 13 170 13zM272 64q129 0 198 70.5t69 188.5q0 117 -70.5 185t-209.5 68q-42 0 -89 -4v-503q53 -5 102 -5z" />
    <glyph glyph-name="E" unicode="E" horiz-adv-x="549" 
d="M498 74q6 -16 6 -35q0 -21 -6 -39h-408v642h398q6 -16 6 -39q0 -19 -6 -36h-318v-199h283q6 -20 6 -37t-6 -37h-283v-220h328z" />
    <glyph glyph-name="F" unicode="F" horiz-adv-x="515" 
d="M485 566h-314v-220h278q4 -17 4 -37t-4 -37h-278v-272q-23 -5 -41 -5q-17 0 -40 5v642h395q4 -17 4 -39q0 -21 -4 -37z" />
    <glyph glyph-name="G" unicode="G" horiz-adv-x="657" 
d="M379 332h217v-298q-95 -50 -219 -50q-141 0 -234.5 91.5t-93.5 244.5q0 154 95 247t230 93q138 0 217 -58q-8 -46 -43 -68q-76 49 -174 49q-101 0 -170.5 -71t-69.5 -192q0 -120 63 -190t182 -70q79 0 135 22v173h-135q-5 17 -5 38t5 39z" />
    <glyph glyph-name="H" unicode="H" horiz-adv-x="691" 
d="M562 647q17 0 39 -5v-642q-22 -5 -37 -5q-19 0 -44 5v290h-349v-290q-25 -5 -43 -5q-13 0 -38 5v642q18 5 38 5q26 0 43 -5v-277h349v277q25 5 42 5z" />
    <glyph glyph-name="I" unicode="I" horiz-adv-x="261" 
d="M131 -5q-16 0 -41 5v642q18 6 41 6t40 -6v-642q-23 -5 -40 -5z" />
    <glyph glyph-name="J" unicode="J" horiz-adv-x="406" 
d="M144 -16q-46 0 -81 19t-53 42q14 37 52 57q38 -44 82 -44q47 0 72 24.5t25 81.5v478q15 5 40 5q23 0 41 -5v-479q0 -91 -49 -135t-129 -44z" />
    <glyph glyph-name="K" unicode="K" horiz-adv-x="592" 
d="M304 349l287 -343q-27 -8 -66 -8q-19 0 -37 2l-245 297l-72 -56v-241q-23 -5 -42 -5q-16 0 -39 5v642q23 5 39 5q19 0 42 -5v-308q99 76 161.5 141.5t133.5 168.5q18 3 39 3q29 0 53 -6q-116 -172 -254 -292z" />
    <glyph glyph-name="L" unicode="L" horiz-adv-x="486" 
d="M464 73q5 -15 5 -34q0 -21 -5 -39h-374v642q23 5 39 5q19 0 42 -5v-569h293z" />
    <glyph glyph-name="M" unicode="M" horiz-adv-x="788" 
d="M654 646q23 0 44 -7v-639q-23 -5 -39 -5q-15 0 -40 5v389l6 100l-13 -34l-179 -393q-19 -4 -37 -4q-17 0 -37 4l-182 396l-13 31l4 -100v-389q-22 -5 -39 -5q-14 0 -39 5v638q23 9 49 9q16 0 31 -4l220 -468l12 -32l10 32l209 468q15 3 33 3z" />
    <glyph glyph-name="N" unicode="N" horiz-adv-x="685" 
d="M556 647q17 0 39 -5v-636q-30 -9 -71 -9l-341 482l-16 32v-511q-17 -5 -38 -5t-39 5v634q36 19 72 11l340 -476l17 -29l-1 44v458q25 5 38 5z" />
    <glyph glyph-name="O" unicode="O" horiz-adv-x="736" 
d="M368 -15q-139 0 -229.5 96t-90.5 241q0 144 91 241t229 97q139 0 229.5 -95.5t90.5 -242.5q0 -142 -91 -239.5t-229 -97.5zM368 60q106 0 170.5 73.5t64.5 188.5q0 117 -64.5 190t-170.5 73t-170.5 -73t-64.5 -190q0 -115 64.5 -188.5t170.5 -73.5z" />
    <glyph glyph-name="P" unicode="P" horiz-adv-x="565" 
d="M278 653q126 0 190.5 -53.5t64.5 -146.5q0 -96 -66.5 -156t-187.5 -60q-59 0 -109 5v-242q-18 -5 -41 -5t-40 5v631q80 22 189 22zM278 308q170 0 170 145q0 60 -43.5 93.5t-127.5 33.5q-54 0 -107 -8v-259q47 -5 108 -5z" />
    <glyph glyph-name="Q" unicode="Q" horiz-adv-x="736" 
d="M522 24q58 -23 103 -60t68 -76q-22 -29 -72 -45q-53 76 -115.5 109t-143.5 33q-137 2 -225.5 97.5t-88.5 239.5t91 241t229 97q139 0 229.5 -95.5t90.5 -242.5q0 -97 -44.5 -176.5t-121.5 -121.5zM133 322q0 -115 64.5 -188.5t170.5 -73.5t170.5 73.5t64.5 188.5
q0 117 -64.5 190t-170.5 73t-170.5 -73t-64.5 -190z" />
    <glyph glyph-name="R" unicode="R" horiz-adv-x="583" 
d="M386 268l163 -262q-27 -8 -56 -8q-26 0 -35 2l-154 251q-7 -1 -21 -1q-62 0 -113 4v-254q-18 -5 -41 -5t-40 5v632q90 21 194 21q119 0 179 -51t60 -142q0 -71 -37 -120t-99 -72zM170 328q39 -5 113 -5q81 0 119.5 36.5t38.5 98.5q0 123 -159 123q-58 0 -112 -9v-244z
" />
    <glyph glyph-name="S" unicode="S" horiz-adv-x="525" 
d="M251 -16q-135 0 -213 82q11 38 50 61q66 -68 163 -68q72 0 109.5 31.5t37.5 83.5q0 42 -31 71t-117 49q-42 10 -73 22.5t-60 34t-44.5 54.5t-15.5 78q0 76 57 125.5t149 49.5q121 0 205 -63q-1 -18 -14.5 -37.5t-28.5 -27.5q-74 53 -162 53q-57 0 -91.5 -27.5
t-34.5 -67.5q0 -41 27.5 -65.5t102.5 -43.5q106 -26 159 -71.5t53 -131.5q0 -90 -61.5 -141t-166.5 -51z" />
    <glyph glyph-name="T" unicode="T" horiz-adv-x="532" 
d="M516 605q0 -15 -5 -37h-204v-569q-23 -5 -41 -5q-17 0 -40 5v569h-205q-5 22 -5 37t5 37h490q5 -22 5 -37z" />
    <glyph glyph-name="U" unicode="U" horiz-adv-x="674" 
d="M338 -16q-116 0 -186 70t-70 197v391q25 5 41 5q19 0 42 -5v-391q0 -86 44.5 -137.5t128.5 -51.5q85 0 129.5 51.5t44.5 137.5v391q25 5 42 5q18 0 38 -5v-391q0 -128 -68.5 -197.5t-185.5 -69.5z" />
    <glyph glyph-name="V" unicode="V" horiz-adv-x="610" 
d="M540 650q26 0 49 -10q-80 -309 -242 -638q-17 -5 -42 -5q-22 0 -41 5q-153 306 -243 638q27 10 52 10q19 0 35 -4q75 -293 202 -562q133 286 195 562q17 4 35 4z" />
    <glyph glyph-name="W" unicode="W" horiz-adv-x="899" 
d="M829 649q24 0 47 -10q-80 -359 -196 -638q-21 -6 -46 -6q-22 0 -43 6l-118 406l-17 73l-20 -75l-136 -403q-21 -6 -43 -6q-27 0 -48 6q-100 255 -176 638q27 10 52 10q20 0 36 -4q42 -279 136 -558l16 64l143 432q16 5 41 5q22 0 40 -5l130 -432l15 -64q99 275 152 557
q17 4 35 4z" />
    <glyph glyph-name="X" unicode="X" horiz-adv-x="586" 
d="M346 325l225 -319q-21 -8 -53 -8q-18 0 -42 2l-187 268l-186 -268q-16 -2 -37 -2q-34 0 -55 8l229 319l-209 316q27 8 62 8q15 0 31 -2l172 -266l172 266q16 2 32 2q39 0 60 -8z" />
    <glyph glyph-name="Y" unicode="Y" horiz-adv-x="578" 
d="M517 648q23 0 45 -8l-232 -394v-246q-23 -5 -42 -5q-16 0 -39 5v249l-235 391q26 8 50 8t38 -3l175 -293l16 -35l16 35l169 293q13 3 39 3z" />
    <glyph glyph-name="Z" unicode="Z" horiz-adv-x="567" 
d="M528 71q5 -18 5 -34q0 -21 -5 -37h-484q-5 22 -5 39q0 32 27 66l348 449l14 17l-383 -1q-5 19 -5 35q0 21 5 37h473q4 -17 4 -39q0 -33 -26 -66l-343 -442l-19 -24h394z" />
    <glyph glyph-name="bracketleft" unicode="[" horiz-adv-x="305" 
d="M171 -110h97q8 -36 0 -72h-179v870h179q8 -36 0 -72h-97v-726z" />
    <glyph glyph-name="backslash" unicode="\" horiz-adv-x="518" 
d="M457 -190q-17 0 -39 5l-393 820q22 5 38 5q18 0 38 -5l393 -820q-20 -5 -37 -5z" />
    <glyph glyph-name="bracketright" unicode="]" horiz-adv-x="306" 
d="M38 688h179v-870h-179q-8 36 0 72h97v726h-97q-8 36 0 72z" />
    <glyph glyph-name="asciicircum" unicode="^" horiz-adv-x="520" 
d="M99 329q-38 7 -59 34l183 317q37 9 73 0l184 -317q-21 -26 -60 -34l-160 278z" />
    <glyph glyph-name="underscore" unicode="_" horiz-adv-x="445" 
d="M5 -105q-5 15 -5 34t5 33h436q4 -15 4 -33t-4 -34h-436z" />
    <glyph glyph-name="grave" unicode="`" horiz-adv-x="237" 
d="M192 519l-169 100q16 48 52 67l139 -136q-5 -20 -22 -31z" />
    <glyph glyph-name="a" unicode="a" horiz-adv-x="504" 
d="M237 485q91 0 147.5 -45t56.5 -139v-269q-35 -19 -91.5 -32.5t-109.5 -13.5q-103 0 -153 42t-50 111q0 70 54.5 110t139.5 40q73 0 131 -24v36q0 53 -33.5 81t-95.5 28q-77 0 -134 -43q-34 16 -41 54q25 25 74 44.5t105 19.5zM120 143q0 -39 31 -62t90 -23q67 0 121 19
v115q-55 26 -131 26q-111 0 -111 -75z" />
    <glyph glyph-name="b" unicode="b" horiz-adv-x="562" 
d="M277 485q105 0 172.5 -66.5t67.5 -175.5q0 -117 -70 -186.5t-181 -69.5q-104 0 -193 45l1 626q19 4 40 4q23 0 40 -4v-205q54 32 123 32zM266 62q80 0 124.5 47t44.5 129q0 76 -44 123t-122 47q-69 0 -115 -32l-1 -290q43 -24 113 -24z" />
    <glyph glyph-name="c" unicode="c" horiz-adv-x="483" 
d="M289 -14q-109 0 -176.5 67t-67.5 182q0 110 69.5 180t174.5 70q97 0 156 -55q-11 -39 -46 -59q-52 41 -110 41q-79 0 -120.5 -51.5t-41.5 -125.5t41.5 -124.5t120.5 -50.5q30 0 57 9.5t35 15t25 19.5q34 -19 46 -56q-25 -25 -69 -43.5t-94 -18.5z" />
    <glyph glyph-name="d" unicode="d" horiz-adv-x="562" 
d="M448 661q22 0 41 -4v-624q-85 -47 -196 -47q-109 0 -178.5 65.5t-69.5 180.5q0 113 72.5 182.5t178.5 69.5q68 0 113 -22v195q17 4 39 4zM293 60q64 -2 116 20v302q-41 27 -113 27q-74 0 -121.5 -48t-47.5 -127q0 -80 45.5 -127t120.5 -47z" />
    <glyph glyph-name="e" unicode="e" horiz-adv-x="525" 
d="M483 276q0 -28 -4 -64h-350q5 -66 46.5 -109t105.5 -43q36 0 66 9.5t42.5 17t31.5 22.5q35 -18 44 -55q-81 -68 -185 -68t-169.5 68t-65.5 180q0 109 65.5 180t162.5 71q91 0 150.5 -59t59.5 -150zM130 279h269q0 55 -31 94.5t-95 39.5q-59 0 -97.5 -38.5t-45.5 -95.5z
" />
    <glyph glyph-name="f" unicode="f" horiz-adv-x="322" 
d="M259 664q42 0 74.5 -14.5t47.5 -31.5q-11 -39 -43 -55q-38 30 -82 30q-33 0 -54.5 -20t-21.5 -65v-41h122q4 -15 4 -33q0 -16 -4 -32h-122v-403q-17 -4 -39 -4t-39 4v404h-66q-4 24 -4 32q0 11 4 33h66v31q0 80 48 122.5t109 42.5z" />
    <glyph glyph-name="g" unicode="g" horiz-adv-x="556" 
d="M296 485q108 0 187 -61v-412q0 -90 -63 -149t-162 -59q-134 0 -206 82q14 39 52 55q56 -65 154 -65q72 0 108 37.5t36 98.5v27q-56 -28 -113 -28q-104 0 -174.5 63.5t-70.5 168.5t71.5 173.5t180.5 68.5zM296 82q59 0 106 35v263q-39 31 -106 31q-75 0 -122 -47t-47 -121
q0 -75 46.5 -118t122.5 -43z" />
    <glyph glyph-name="h" unicode="h" horiz-adv-x="571" 
d="M297 485q100 0 152 -56.5t52 -136.5v-292q-17 -4 -41 -4q-21 0 -40 4v263q0 145 -138 145q-65 0 -125 -35v-373q-17 -4 -40 -4q-22 0 -41 4v657q19 4 41 4q23 0 40 -4v-209q66 37 140 37z" />
    <glyph glyph-name="i" unicode="i" horiz-adv-x="235" 
d="M118 553q-24 0 -41 16.5t-17 40.5t16.5 40.5t41.5 16.5q23 0 39.5 -16.5t16.5 -40.5t-16.5 -40.5t-39.5 -16.5zM118 -4q-22 0 -41 4v472q19 4 41 4q23 0 40 -4v-472q-17 -4 -40 -4z" />
    <glyph glyph-name="j" unicode="j" horiz-adv-x="248" 
d="M130 551q-24 0 -41 16.5t-17 40.5t16.5 40.5t41.5 16.5q23 0 39.5 -16.5t16.5 -40.5t-16.5 -40.5t-39.5 -16.5zM17 -197q-40 0 -73.5 12t-49.5 30q9 37 45 55q36 -26 68 -26q38 0 60.5 23.5t22.5 72.5v500q19 4 40 4q24 0 41 -4v-501q0 -80 -47 -123t-107 -43z" />
    <glyph glyph-name="k" unicode="k" horiz-adv-x="483" 
d="M266 248l211 -246q-30 -7 -56 -7q-17 0 -40 3l-178 203l-47 -30v-171q-17 -4 -40 -4q-21 0 -40 4v657q19 4 40 4q23 0 40 -4v-401q136 86 209 215q15 3 41 3q25 0 45 -7q-73 -129 -185 -219z" />
    <glyph glyph-name="l" unicode="l" horiz-adv-x="235" 
d="M117 -4q-21 0 -40 4v657q19 4 40 4q24 0 41 -4v-657q-17 -4 -41 -4z" />
    <glyph glyph-name="m" unicode="m" horiz-adv-x="865" 
d="M600 485q90 0 142.5 -53.5t52.5 -128.5v-303q-17 -4 -40 -4q-24 0 -41 4v269q0 63 -29.5 102t-96.5 39q-66 0 -121 -51q8 -29 8 -56v-303q-17 -4 -40 -4q-24 0 -41 4v269q0 63 -29.5 102t-96.5 39q-64 0 -115 -32v-378q-17 -4 -41 -4q-21 0 -40 4v413q34 30 91.5 51
t116.5 21q100 0 154 -66q75 66 166 66z" />
    <glyph glyph-name="n" unicode="n" horiz-adv-x="569" 
d="M288 485q104 0 157.5 -54.5t53.5 -137.5v-293q-17 -4 -41 -4q-21 0 -40 4v265q0 76 -34 110.5t-104 34.5q-71 0 -127 -33v-377q-17 -4 -41 -4q-21 0 -40 4v413q37 31 95 51.5t121 20.5z" />
    <glyph glyph-name="o" unicode="o" horiz-adv-x="574" 
d="M284 -13q-105 0 -172.5 71t-67.5 178q0 106 70.5 178t175.5 72t172.5 -71.5t67.5 -178.5q0 -106 -70.5 -177.5t-175.5 -71.5zM287 62q73 0 117 48.5t44 125.5q0 78 -44 126.5t-117 48.5t-117 -48.5t-44 -126.5q0 -77 44 -125.5t117 -48.5z" />
    <glyph glyph-name="p" unicode="p" horiz-adv-x="561" 
d="M268 485q109 0 178.5 -65.5t69.5 -181.5t-72 -183.5t-171 -67.5q-70 0 -120 19v-192q-17 -4 -40 -4q-21 0 -40 4l-1 599q84 72 196 72zM268 62q76 0 121 47.5t45 128.5q0 78 -45.5 124t-120.5 46q-65 0 -116 -32l1 -288q45 -26 115 -26z" />
    <glyph glyph-name="q" unicode="q" horiz-adv-x="561" 
d="M296 485q59 0 110 -20t83 -52l-1 -599q-19 -4 -40 -4q-23 0 -40 4v202q-53 -29 -116 -29q-109 0 -178 64.5t-69 179.5q0 114 72.5 184t178.5 70zM293 63q74 0 116 33v276q-48 37 -113 37q-75 0 -122 -48.5t-47 -127.5t45.5 -124.5t120.5 -45.5z" />
    <glyph glyph-name="r" unicode="r" horiz-adv-x="375" 
d="M363 469q3 -40 -20 -70q-37 10 -86 10q-64 0 -103 -24v-385q-17 -4 -41 -4q-22 0 -41 4v421q32 27 83.5 45.5t106.5 18.5q54 0 101 -16z" />
    <glyph glyph-name="s" unicode="s" horiz-adv-x="459" 
d="M221 -14q-120 0 -182 59q15 40 46 58q56 -46 136 -46q60 0 89 20t29 53q0 30 -27 48t-93 26q-169 20 -169 139q0 62 51 102t139 40q108 0 165 -47q-8 -37 -35 -61q-60 37 -139 37q-102 0 -102 -62q0 -29 22.5 -45t84.5 -25q182 -24 182 -141q0 -73 -52.5 -114t-144.5 -41
z" />
    <glyph glyph-name="t" unicode="t" horiz-adv-x="409" 
d="M365 94q29 -20 36 -57q-54 -50 -132 -50q-76 0 -120 38.5t-44 119.5v257h-81q-4 16 -4 33t4 32h81v127q17 4 40 4q22 0 39 -4v-127h187q4 -15 4 -32t-4 -33h-187v-241q0 -59 24 -81t67 -22q48 0 90 36z" />
    <glyph glyph-name="u" unicode="u" horiz-adv-x="560" 
d="M447 474q23 0 40 -4v-438q-105 -46 -217 -46q-98 0 -149 49t-51 136v299q19 4 41 4q23 0 40 -4v-266q0 -74 28 -108.5t110 -34.5q60 0 117 21v388q19 4 41 4z" />
    <glyph glyph-name="v" unicode="v" horiz-adv-x="493" 
d="M425 474q29 0 48 -7q-54 -218 -189 -467q-16 -4 -37 -4q-22 0 -38 4q-111 195 -191 467q23 7 52 7q17 0 32 -3q60 -201 144 -376l5 -11q1 2 5 11q82 180 137 376q15 3 32 3z" />
    <glyph glyph-name="w" unicode="w" horiz-adv-x="736" 
d="M666 473q30 0 50 -6q-32 -126 -80.5 -251t-101.5 -216q-16 -4 -41 -4q-21 0 -37 4q-44 89 -89 214q-32 -114 -85 -214q-16 -4 -44 -4q-22 0 -38 4q-110 199 -178 467q19 6 52 6q12 0 32 -2q53 -213 135 -391l2 -8l2 4t1 4q54 119 88 239q-15 48 -43 148q19 6 52 6
q12 0 32 -2q60 -248 124 -391l2 -8q1 2 2 4.5t1 3.5q82 180 132 391q20 2 30 2z" />
    <glyph glyph-name="x" unicode="x" horiz-adv-x="474" 
d="M286 241l172 -239q-16 -8 -44 -8q-29 0 -46 4l-134 192l-130 -192q-15 -4 -36 -4q-30 0 -48 8l168 239l-160 226q23 7 55 7q17 0 33 -3l125 -179l113 179q18 3 37 3q25 0 48 -7z" />
    <glyph glyph-name="y" unicode="y" horiz-adv-x="503" 
d="M434 474q24 0 49 -10q-59 -226 -135.5 -376.5t-206.5 -292.5q-40 7 -57 49q83 91 127 165q-120 199 -189 458q22 7 50 7q18 0 36 -3q50 -191 144 -379l8 -15l3.5 7l3.5 7q79 152 134 380q16 3 33 3z" />
    <glyph glyph-name="z" unicode="z" horiz-adv-x="464" 
d="M425 68q5 -13 5 -33t-5 -35h-378q-7 20 -7 38q0 38 35 78l240 270l16 16h-283q-4 24 -4 34q0 12 4 34h362q5 -17 5 -33q0 -44 -34 -83l-240 -274l-12 -12h296z" />
    <glyph glyph-name="braceleft" unicode="{" horiz-adv-x="335" 
d="M263 -110h35q8 -36 0 -72h-35q-73 0 -108.5 39.5t-35.5 101.5v184q0 71 -62 71h-35q-6 20 -6 39t6 39h35q62 0 62 71v184q0 62 35.5 101.5t108.5 39.5h35q8 -36 0 -72h-35q-33 0 -47.5 -16.5t-14.5 -52.5v-184q0 -73 -44 -110q44 -37 44 -110v-184q0 -36 14.5 -52.5
t47.5 -16.5z" />
    <glyph glyph-name="bar" unicode="|" horiz-adv-x="246" 
d="M87 -178v863q33 9 72 0v-863q-40 -11 -72 0z" />
    <glyph glyph-name="braceright" unicode="}" horiz-adv-x="335" 
d="M313 292q6 -20 6 -39t-6 -39h-35q-62 0 -62 -71v-184q0 -62 -35.5 -101.5t-108.5 -39.5h-35q-7 36 0 72h35q33 0 47.5 16.5t14.5 52.5v184q0 73 44 110q-44 37 -44 110v184q0 36 -14.5 52.5t-47.5 16.5h-35q-7 36 0 72h35q73 0 108.5 -39.5t35.5 -101.5v-184
q0 -71 62 -71h35z" />
    <glyph glyph-name="asciitilde" unicode="~" horiz-adv-x="560" 
d="M123 166q-38 6 -58 38q48 81 130 81q26 0 83.5 -18t84.5 -18q43 0 72 48q40 -5 59 -41q-21 -40 -56 -62.5t-75 -22.5q-36 0 -92 18t-76 18q-43 0 -72 -41z" />
    <glyph glyph-name="uni00A0" unicode="&#xa0;" horiz-adv-x="242" 
 />
    <glyph glyph-name="exclamdown" unicode="&#xa1;" horiz-adv-x="240" 
d="M120 379q-21 0 -36 14.5t-15 36.5t15 37t36 15q22 0 37 -15t15 -37t-15 -36.5t-37 -14.5zM120 -174q-25 0 -45 4q3 260 23 492q10 3 22 3q10 0 22 -3q21 -260 22 -492q-21 -4 -44 -4z" />
    <glyph glyph-name="cent" unicode="&#xa2;" horiz-adv-x="493" 
d="M406 187q32 -19 42 -56q-50 -52 -135 -59v-103q-15 -4 -33 -4t-33 4v105q-92 12 -147.5 74.5t-55.5 161.5q0 95 56 159t147 78v107q15 4 33 4t33 -4v-105q87 -7 139 -59q-11 -37 -47 -57q-42 37 -92 43v-330q46 5 93 41zM127 310q0 -59 30.5 -103.5t89.5 -57.5v323
q-59 -13 -89.5 -58t-30.5 -104z" />
    <glyph glyph-name="sterling" unicode="&#xa3;" horiz-adv-x="535" 
d="M486 73q5 -16 5 -34q0 -21 -5 -39h-408q0 53 35.5 124t35.5 122q0 14 -1 20h-101q-4 24 -4 35t4 35h87l-10.5 25.5t-11.5 30t-6.5 30t-3.5 43.5q0 81 56 137.5t152 56.5q102 0 177 -63q-8 -41 -47 -61q-57 52 -130 52q-62 0 -95 -32t-33 -80q0 -28 5 -50t15.5 -48.5
t14.5 -40.5h159q4 -16 4 -35t-4 -35h-147v-20q0 -34 -16.5 -84.5t-40.5 -88.5h314z" />
    <glyph glyph-name="currency" unicode="&#xa4;" horiz-adv-x="619" 
d="M545 328q0 -76 -44 -136l55 -57q-26 -39 -60 -60l-56 57q-58 -39 -130 -39t-131 40l-56 -58q-34 21 -60 60l55 57q-43 62 -43 136q0 75 43 136l-55 58q26 39 60 60l57 -58q58 39 130 39t130 -39l56 58q34 -21 60 -60l-55 -57q44 -61 44 -137zM308 169q65 0 111 46.5
t46 113.5t-46 113.5t-111 46.5q-52 0 -94 -32l-22 -22q-39 -45 -39 -106q0 -67 45 -113.5t110 -46.5z" />
    <glyph glyph-name="yen" unicode="&#xa5;" horiz-adv-x="536" 
d="M438 259h-132v-59h132q4 -13 4 -31q0 -17 -4 -32h-132v-137q-17 -4 -41 -4q-22 0 -42 4v137h-134q-4 22 -4 32q0 11 4 31h134v59h-134q-4 22 -4 32q0 11 4 31h114l-173 311q24 7 44 7q28 0 41 -3l143 -266l12 -24l10 24l152 266q12 3 38 3q18 0 39 -7l-181 -311h110
q4 -13 4 -31q0 -17 -4 -32z" />
    <glyph glyph-name="brokenbar" unicode="&#xa6;" horiz-adv-x="246" 
d="M87 332v353q39 11 72 0v-353q-35 -12 -72 0zM87 -178v353q39 11 72 0v-353q-40 -11 -72 0z" />
    <glyph glyph-name="section" unicode="&#xa7;" horiz-adv-x="550" 
d="M268 115l-144 129q-87 78 -87 183q0 97 69 165.5t167 68.5q107 0 195 -65q-7 -46 -45 -63q-39 29 -72 40t-78 11q-66 0 -112.5 -46t-46.5 -112q0 -68 64 -121l145 -130q-15 -40 -55 -60zM277 -113q-107 0 -195 65q7 46 45 63q39 -29 72 -40t78 -11q66 0 112.5 46
t46.5 112q0 68 -61 124l-145 130q13 41 55 60l144 -129q84 -81 84 -186q0 -97 -69 -165.5t-167 -68.5z" />
    <glyph glyph-name="dieresis" unicode="&#xa8;" horiz-adv-x="341" 
d="M74 548q-23 0 -38.5 15.5t-15.5 37.5q0 23 15.5 38t38.5 15q22 0 37 -15.5t15 -37.5t-15 -37.5t-37 -15.5zM268 548q-22 0 -37.5 15t-15.5 38t15 38t38 15q22 0 37 -15.5t15 -37.5t-15 -37.5t-37 -15.5z" />
    <glyph glyph-name="copyright" unicode="&#xa9;" horiz-adv-x="754" 
d="M378 -28q-137 0 -232.5 98t-95.5 238t95.5 238.5t232.5 98.5q135 0 230 -98.5t95 -238.5t-95 -238t-230 -98zM378 28q110 0 189.5 82.5t79.5 197.5q0 116 -79 197.5t-190 81.5q-113 0 -191.5 -81.5t-78.5 -197.5t79 -198t191 -82zM386 113q-85 0 -137.5 52t-52.5 142
q0 86 53.5 140t136.5 54q81 0 129 -46q-10 -36 -40 -53q-39 33 -89 33q-60 0 -91 -37t-31 -91t31 -91t91 -37q52 0 91 31q29 -17 36 -52q-49 -45 -127 -45z" />
    <glyph glyph-name="ordfeminine" unicode="&#xaa;" horiz-adv-x="380" 
d="M191 665q127 0 127 -130v-163q-70 -30 -140 -30q-60 0 -92.5 27.5t-32.5 71.5q0 47 35.5 74t92.5 27q42 0 73 -12v19q0 53 -69 55q-46 1 -92 -31q-29 15 -34 47q58 45 132 45zM122 443q0 -45 65 -45q39 0 67 11v62q-30 16 -68 16q-64 0 -64 -44z" />
    <glyph glyph-name="guillemotleft" unicode="&#xab;" horiz-adv-x="456" 
d="M180 95l-141 159l141 162q27 -5 38 -29l-82 -132l82 -133q-10 -21 -38 -27zM356 95l-141 159l141 162q27 -5 38 -29l-82 -132l82 -133q-10 -21 -38 -27z" />
    <glyph glyph-name="registered" unicode="&#xae;" horiz-adv-x="753" 
d="M378 748q135 0 230 -98.5t95 -238.5t-95 -238t-230 -98q-137 0 -232.5 98t-95.5 238t95.5 238.5t232.5 98.5zM378 131q110 0 189.5 82.5t79.5 197.5q0 116 -79 197.5t-190 81.5q-113 0 -191.5 -81.5t-78.5 -197.5t79 -198t191 -82zM522 495q0 -83 -81 -114l97 -165
q-17 -5 -33 -5q-25 0 -33 1l-92 158h-4q-34 0 -69 3v-159q-9 -3 -26 -3q-22 0 -34 3v383q56 14 129 14q74 0 110 -30.5t36 -85.5zM307 552v-124q24 -3 69 -3q86 0 86 68q0 64 -86 64q-29 0 -69 -5z" />
    <glyph glyph-name="macron" unicode="&#xaf;" horiz-adv-x="313" 
d="M29 562q-5 15 -5 34t5 33h256q4 -15 4 -33t-4 -34h-256z" />
    <glyph glyph-name="degree" unicode="&#xb0;" horiz-adv-x="324" 
d="M162 447q-48 0 -82 34t-34 83q0 48 34 82t82 34t82.5 -34t34.5 -82q0 -49 -34.5 -83t-82.5 -34zM163 499q26 0 45.5 19.5t19.5 45.5q0 27 -19 46t-46 19t-46 -19t-19 -46q0 -26 19.5 -45.5t45.5 -19.5z" />
    <glyph glyph-name="plusminus" unicode="&#xb1;" horiz-adv-x="553" 
d="M240 275h-174q-9 35 0 70h174v138q36 7 72 0v-138h175q8 -35 0 -70h-175v-143q-36 -8 -72 0v143zM66 57h421q8 -35 0 -70h-421q-8 35 0 70z" />
    <glyph glyph-name="acute" unicode="&#xb4;" horiz-adv-x="218" 
d="M44 519q-17 11 -22 31l139 136q36 -19 52 -67z" />
    <glyph glyph-name="paragraph" unicode="&#xb6;" horiz-adv-x="600" 
d="M506 621v-806q-17 -5 -41 -5q-23 0 -41 5v417q-70 -9 -135 -9q-125 0 -192.5 60.5t-67.5 154.5q0 99 66.5 157t194.5 58q132 0 216 -32zM290 296q83 0 134 9v260q-68 15 -133 15q-176 0 -176 -142q0 -65 45 -103.5t130 -38.5zM262 143q17 4 40 4q22 0 39 -4v-327
q-22 -5 -39 -5q-18 0 -40 5v327z" />
    <glyph glyph-name="periodcentered" unicode="&#xb7;" horiz-adv-x="240" 
d="M120 271q-24 0 -41 17t-17 41t17 41t41 17t41 -17t17 -41t-17 -41t-41 -17z" />
    <glyph glyph-name="cedilla" unicode="&#xb8;" horiz-adv-x="244" 
d="M119 11h55l-18 -49q68 -15 68 -66q0 -32 -20.5 -52.5t-43.5 -26.5t-49 -6q-45 0 -68 16q3 28 21 48q24 -13 46 -13q42 0 42 28q0 32 -66 34z" />
    <glyph glyph-name="ordmasculine" unicode="&#xba;" horiz-adv-x="412" 
d="M204 342q-70 0 -113.5 43.5t-43.5 117.5q0 75 45 118.5t116 43.5q70 0 113.5 -43.5t43.5 -118.5q0 -74 -45.5 -117.5t-115.5 -43.5zM206 405q42 0 65.5 25.5t23.5 72.5q0 48 -23.5 73.5t-65.5 25.5q-41 0 -65 -25.5t-24 -73.5q0 -47 24 -72.5t65 -25.5z" />
    <glyph glyph-name="guillemotright" unicode="&#xbb;" horiz-adv-x="456" 
d="M100 95q-28 6 -38 27l82 133l-82 132q11 24 38 29l141 -162zM276 95q-28 6 -38 27l82 133l-82 132q11 24 38 29l141 -162z" />
    <glyph glyph-name="onequarter" unicode="&#xbc;" horiz-adv-x="747" 
d="M530 655q38 9 76 0l-469 -702q-38 -11 -76 0zM121 265v300l-62 -31q-21 17 -30 52q65 36 88.5 46t49.5 10q17 0 28 -3v-374q-18 -3 -37 -3t-37 3zM714 99q0 -11 -2 -33h-29v-67q-22 -2 -34 -2q-11 0 -33 2v67h-177q-15 38 7 87l123 241q35 -1 63 -29l-98 -200
q-11 -26 -11 -36h93v110q11 1 33 1q23 0 34 -1v-110h30q1 -10 1 -30z" />
    <glyph glyph-name="onehalf" unicode="&#xbd;" horiz-adv-x="746" 
d="M540 655q38 9 76 0l-469 -702q-40 -9 -76 0zM121 264v298l-63 -31q-20 17 -29 54q65 36 88.5 46t49.5 10q17 0 28 -3v-374q-18 -3 -37 -3t-37 3zM704 62q4 -9 4 -33q0 -17 -4 -29h-257q-2 8 -2 15q0 25 22 47q89 93 118.5 133t29.5 70q0 23 -15 38t-43 15q-42 0 -76 -32
q-28 10 -37 41q48 54 113 54q57 0 92.5 -29.5t35.5 -81.5q0 -24 -8.5 -47t-29.5 -51t-37 -46t-51 -54l-16 -12l23 2h138z" />
    <glyph glyph-name="threequarters" unicode="&#xbe;" horiz-adv-x="795" 
d="M589 655q38 9 76 0l-469 -702q-38 -11 -76 0zM162 317q38 0 59.5 18.5t21.5 50.5q0 72 -97 70h-24q-3 4 -3 12q0 15 8 26l66 86h-145q-3 17 -3 32q0 16 3 30h241q6 -27 -14 -53l-68 -82q44 -7 73.5 -35.5t29.5 -81.5q0 -61 -42.5 -95.5t-105.5 -34.5q-73 0 -121 41
q6 33 32 50q42 -34 89 -34zM763 99q0 -11 -2 -33h-29v-67q-22 -2 -34 -2q-11 0 -33 2v67h-177q-15 38 7 87l123 241q35 -1 63 -29l-98 -200q-11 -26 -11 -36h93v110q11 1 33 1q23 0 34 -1v-110h30q1 -10 1 -30z" />
    <glyph glyph-name="questiondown" unicode="&#xbf;" horiz-adv-x="417" 
d="M241 382q-21 0 -36 14.5t-15 36.5t15 37t36 15q22 0 37 -15t15 -37t-15 -36.5t-37 -14.5zM250 -167q-95 0 -154 57t-59 148q0 80 48.5 136t124.5 72q4 31 13 78q6 1 20 1q13 0 20 -1q13 -70 15 -144h-11q-69 0 -109.5 -37t-40.5 -105q0 -58 36.5 -93.5t96.5 -35.5
q54 0 104 32q30 -21 36 -55q-22 -22 -60.5 -37.5t-79.5 -15.5z" />
    <glyph glyph-name="Agrave" unicode="&#xc0;" horiz-adv-x="600" 
d="M392 706q-3 -22 -17 -33l-186 73q1 50 42 74zM341 642l243 -635q-19 -11 -48 -11q-23 0 -39 4l-66 179h-265l-64 -179q-17 -4 -36 -4q-27 0 -48 11l238 635q17 6 43 6q25 0 42 -6zM191 249h214l-92 248l-17 54l-17 -54z" />
    <glyph glyph-name="Aacute" unicode="&#xc1;" horiz-adv-x="600" 
d="M216 673q-14 11 -17 33l161 114q41 -24 42 -74zM341 642l243 -635q-19 -11 -48 -11q-23 0 -39 4l-66 179h-265l-64 -179q-17 -4 -36 -4q-27 0 -48 11l238 635q17 6 43 6q25 0 42 -6zM191 249h214l-92 248l-17 54l-17 -54z" />
    <glyph glyph-name="Acircumflex" unicode="&#xc2;" horiz-adv-x="600" 
d="M196 680q-20 14 -26 41l103 84q28 7 56 0l103 -83q-5 -24 -27 -42l-108 62zM341 642l243 -635q-19 -11 -48 -11q-23 0 -39 4l-66 179h-265l-64 -179q-17 -4 -36 -4q-27 0 -48 11l238 635q17 6 43 6q25 0 42 -6zM191 249h214l-92 248l-17 54l-17 -54z" />
    <glyph glyph-name="Atilde" unicode="&#xc3;" horiz-adv-x="600" 
d="M242 727q-40 0 -50 -41q-40 0 -61 21q11 43 39.5 66.5t66.5 23.5q27 0 70 -19t56 -19q38 0 48 42q41 0 60 -21q-11 -42 -39 -66t-64 -24q-27 0 -70 18.5t-56 18.5zM341 642l243 -635q-19 -11 -48 -11q-23 0 -39 4l-66 179h-265l-64 -179q-17 -4 -36 -4q-27 0 -48 11
l238 635q17 6 43 6q25 0 42 -6zM191 249h214l-92 248l-17 54l-17 -54z" />
    <glyph glyph-name="Adieresis" unicode="&#xc4;" horiz-adv-x="600" 
d="M207 696q-23 0 -38 15t-15 37t15 36.5t38 14.5q21 0 35.5 -14.5t14.5 -36.5t-14.5 -37t-35.5 -15zM396 696q-22 0 -37 15t-15 37t15 36.5t37 14.5q21 0 36 -14.5t15 -36.5t-15 -37t-36 -15zM341 642l243 -635q-19 -11 -48 -11q-23 0 -39 4l-66 179h-265l-64 -179
q-17 -4 -36 -4q-27 0 -48 11l238 635q17 6 43 6q25 0 42 -6zM191 249h214l-92 248l-17 54l-17 -54z" />
    <glyph glyph-name="Aring" unicode="&#xc5;" horiz-adv-x="600" 
d="M302 656q-40 0 -68 28t-28 68t28 68t68 28q39 0 67 -28t28 -68t-28 -68t-67 -28zM302 795q-18 0 -29.5 -12.5t-11.5 -30.5q0 -17 11.5 -29.5t29.5 -12.5q17 0 28 12.5t11 29.5q0 18 -11 30.5t-28 12.5zM341 642l243 -635q-19 -11 -48 -11q-23 0 -39 4l-66 179h-265
l-64 -179q-17 -4 -36 -4q-27 0 -48 11l238 635q17 6 43 6q25 0 42 -6zM191 249h214l-92 248l-17 54l-17 -54z" />
    <glyph glyph-name="AE" unicode="&#xc6;" horiz-adv-x="816" 
d="M767 76q5 -22 5 -37q0 -17 -5 -39h-364v255h-173l-147 -255q-17 -4 -36 -4q-24 0 -50 11l365 635h392q5 -22 5 -39q0 -15 -5 -37h-270v-236h240q5 -22 5 -37q0 -16 -5 -38h-240v-179h283zM273 330h130v173l3 64l-34 -66z" />
    <glyph glyph-name="Ccedilla" unicode="&#xc7;" horiz-adv-x="599" 
d="M375 -38q68 -15 68 -66q0 -32 -20.5 -52.5t-43.5 -26.5t-49 -6q-45 0 -68 16q3 28 21 48q24 -13 46 -13q42 0 42 28q0 32 -66 34l23 62q-126 13 -203 105t-77 230q0 147 93 243t230 96q116 0 195 -59q-7 -44 -45 -63q-66 46 -150 46q-103 0 -170.5 -71.5t-67.5 -191.5
q0 -118 66.5 -189.5t165.5 -71.5q101 0 165 52q34 -20 41 -62q-71 -61 -188 -66z" />
    <glyph glyph-name="Egrave" unicode="&#xc8;" horiz-adv-x="549" 
d="M390 706q-3 -22 -17 -33l-186 73q1 50 42 74zM498 74q6 -16 6 -35q0 -21 -6 -39h-408v642h398q6 -16 6 -39q0 -19 -6 -36h-318v-199h283q6 -20 6 -37t-6 -37h-283v-220h328z" />
    <glyph glyph-name="Eacute" unicode="&#xc9;" horiz-adv-x="549" 
d="M214 673q-14 11 -17 33l161 114q41 -24 42 -74zM498 74q6 -16 6 -35q0 -21 -6 -39h-408v642h398q6 -16 6 -39q0 -19 -6 -36h-318v-199h283q6 -20 6 -37t-6 -37h-283v-220h328z" />
    <glyph glyph-name="Ecircumflex" unicode="&#xca;" horiz-adv-x="549" 
d="M194 680q-20 14 -26 41l103 84q28 7 56 0l103 -83q-5 -24 -27 -42l-108 62zM498 74q6 -16 6 -35q0 -21 -6 -39h-408v642h398q6 -16 6 -39q0 -19 -6 -36h-318v-199h283q6 -20 6 -37t-6 -37h-283v-220h328z" />
    <glyph glyph-name="Edieresis" unicode="&#xcb;" horiz-adv-x="549" 
d="M205 696q-23 0 -38 15t-15 37t15 36.5t38 14.5q21 0 35.5 -14.5t14.5 -36.5t-14.5 -37t-35.5 -15zM394 696q-22 0 -37 15t-15 37t15 36.5t37 14.5q21 0 36 -14.5t15 -36.5t-15 -37t-36 -15zM498 74q6 -16 6 -35q0 -21 -6 -39h-408v642h398q6 -16 6 -39q0 -19 -6 -36h-318
v-199h283q6 -20 6 -37t-6 -37h-283v-220h328z" />
    <glyph glyph-name="Igrave" unicode="&#xcc;" horiz-adv-x="261" 
d="M184 681l-159 65q1 49 43 70l133 -105q-1 -17 -17 -30zM131 -5q-16 0 -41 5v642q18 6 41 6t40 -6v-642q-23 -5 -40 -5z" />
    <glyph glyph-name="Iacute" unicode="&#xcd;" horiz-adv-x="261" 
d="M62 678q-16 13 -17 30l133 105q42 -21 43 -70zM131 -5q-16 0 -41 5v642q18 6 41 6t40 -6v-642q-23 -5 -40 -5z" />
    <glyph glyph-name="Icircumflex" unicode="&#xce;" horiz-adv-x="261" 
d="M158 805l88 -85q-6 -23 -32 -40l-88 62l-81 -62q-26 12 -32 34l89 91q28 7 56 0zM131 -5q-16 0 -41 5v642q18 6 41 6t40 -6v-642q-23 -5 -40 -5z" />
    <glyph glyph-name="Idieresis" unicode="&#xcf;" horiz-adv-x="261" 
d="M58 695q-23 0 -38 15t-15 37t15 36.5t38 14.5q21 0 35.5 -14.5t14.5 -36.5t-14.5 -37t-35.5 -15zM207 695q-22 0 -37 15t-15 37t15 36.5t37 14.5q21 0 36 -14.5t15 -36.5t-15 -37t-36 -15zM131 -5q-16 0 -41 5v642q18 6 41 6t40 -6v-642q-23 -5 -40 -5z" />
    <glyph glyph-name="Eth" unicode="&#xd0;" horiz-adv-x="673" 
d="M259 651q174 0 269.5 -88.5t95.5 -237.5q0 -148 -96.5 -241t-258.5 -93q-99 0 -180 12v282h-77q-6 17 -6 35t6 36h77v282q86 13 170 13zM272 64q129 0 198 70.5t69 188.5q0 117 -70.5 185t-209.5 68q-42 0 -89 -4v-216h110q5 -17 5 -35q0 -14 -5 -36h-110v-216
q53 -5 102 -5z" />
    <glyph glyph-name="Ntilde" unicode="&#xd1;" horiz-adv-x="685" 
d="M284 727q-40 0 -50 -41q-40 0 -61 21q11 43 39.5 66.5t66.5 23.5q27 0 70 -19t56 -19q38 0 48 42q41 0 60 -21q-11 -42 -39 -66t-64 -24q-27 0 -70 18.5t-56 18.5zM556 647q17 0 39 -5v-636q-30 -9 -71 -9l-341 482l-16 32v-511q-17 -5 -38 -5t-39 5v634q36 19 72 11
l340 -476l17 -29l-1 44v458q25 5 38 5z" />
    <glyph glyph-name="Ograve" unicode="&#xd2;" horiz-adv-x="736" 
d="M442 673l-186 73q1 50 42 74l161 -114q-3 -22 -17 -33zM368 -15q-139 0 -229.5 96t-90.5 241q0 144 91 241t229 97q139 0 229.5 -95.5t90.5 -242.5q0 -142 -91 -239.5t-229 -97.5zM368 60q106 0 170.5 73.5t64.5 188.5q0 117 -64.5 190t-170.5 73t-170.5 -73t-64.5 -190
q0 -115 64.5 -188.5t170.5 -73.5z" />
    <glyph glyph-name="Oacute" unicode="&#xd3;" horiz-adv-x="736" 
d="M283 673q-14 11 -17 33l161 114q41 -24 42 -74zM368 -15q-139 0 -229.5 96t-90.5 241q0 144 91 241t229 97q139 0 229.5 -95.5t90.5 -242.5q0 -142 -91 -239.5t-229 -97.5zM368 60q106 0 170.5 73.5t64.5 188.5q0 117 -64.5 190t-170.5 73t-170.5 -73t-64.5 -190
q0 -115 64.5 -188.5t170.5 -73.5z" />
    <glyph glyph-name="Ocircumflex" unicode="&#xd4;" horiz-adv-x="736" 
d="M263 680q-20 14 -26 41l103 84q28 7 56 0l103 -83q-5 -24 -27 -42l-108 62zM368 -15q-139 0 -229.5 96t-90.5 241q0 144 91 241t229 97q139 0 229.5 -95.5t90.5 -242.5q0 -142 -91 -239.5t-229 -97.5zM368 60q106 0 170.5 73.5t64.5 188.5q0 117 -64.5 190t-170.5 73
t-170.5 -73t-64.5 -190q0 -115 64.5 -188.5t170.5 -73.5z" />
    <glyph glyph-name="Otilde" unicode="&#xd5;" horiz-adv-x="736" 
d="M259 686q-40 0 -61 21q11 43 39.5 66.5t66.5 23.5q27 0 70 -19t56 -19q38 0 48 42q41 0 60 -21q-11 -42 -39 -66t-64 -24q-27 0 -70 18.5t-56 18.5q-40 0 -50 -41zM368 -15q-139 0 -229.5 96t-90.5 241q0 144 91 241t229 97q139 0 229.5 -95.5t90.5 -242.5
q0 -142 -91 -239.5t-229 -97.5zM368 60q106 0 170.5 73.5t64.5 188.5q0 117 -64.5 190t-170.5 73t-170.5 -73t-64.5 -190q0 -115 64.5 -188.5t170.5 -73.5z" />
    <glyph glyph-name="Odieresis" unicode="&#xd6;" horiz-adv-x="736" 
d="M274 696q-23 0 -38 15t-15 37t15 36.5t38 14.5q21 0 35.5 -14.5t14.5 -36.5t-14.5 -37t-35.5 -15zM463 696q-22 0 -37 15t-15 37t15 36.5t37 14.5q21 0 36 -14.5t15 -36.5t-15 -37t-36 -15zM368 -15q-139 0 -229.5 96t-90.5 241q0 144 91 241t229 97q139 0 229.5 -95.5
t90.5 -242.5q0 -142 -91 -239.5t-229 -97.5zM368 60q106 0 170.5 73.5t64.5 188.5q0 117 -64.5 190t-170.5 73t-170.5 -73t-64.5 -190q0 -115 64.5 -188.5t170.5 -73.5z" />
    <glyph glyph-name="multiply" unicode="&#xd7;" horiz-adv-x="477" 
d="M420 379l-131 -131l131 -132q-20 -30 -50 -50l-131 132l-131 -131q-30 20 -50 50l131 131l-131 130q20 30 50 50l131 -130l131 131q30 -20 50 -50z" />
    <glyph glyph-name="Oslash" unicode="&#xd8;" horiz-adv-x="736" 
d="M618 540q70 -92 70 -218q0 -142 -91 -239.5t-229 -97.5q-113 0 -198 67l-67 -73q-41 13 -53 52l68 74q-70 91 -70 217q0 144 91 241t229 97q115 0 200 -68l65 70q39 -13 54 -47zM133 322q0 -89 41 -157l341 370q-61 50 -147 50q-106 0 -170.5 -73t-64.5 -190zM368 60
q106 0 170.5 73.5t64.5 188.5q0 93 -41 157l-339 -370q60 -49 145 -49z" />
    <glyph glyph-name="Ugrave" unicode="&#xd9;" horiz-adv-x="674" 
d="M417 673l-186 73q1 50 42 74l161 -114q-3 -22 -17 -33zM338 -16q-116 0 -186 70t-70 197v391q25 5 41 5q19 0 42 -5v-391q0 -86 44.5 -137.5t128.5 -51.5q85 0 129.5 51.5t44.5 137.5v391q25 5 42 5q18 0 38 -5v-391q0 -128 -68.5 -197.5t-185.5 -69.5z" />
    <glyph glyph-name="Uacute" unicode="&#xda;" horiz-adv-x="674" 
d="M258 673q-14 11 -17 33l161 114q41 -24 42 -74zM338 -16q-116 0 -186 70t-70 197v391q25 5 41 5q19 0 42 -5v-391q0 -86 44.5 -137.5t128.5 -51.5q85 0 129.5 51.5t44.5 137.5v391q25 5 42 5q18 0 38 -5v-391q0 -128 -68.5 -197.5t-185.5 -69.5z" />
    <glyph glyph-name="Ucircumflex" unicode="&#xdb;" horiz-adv-x="674" 
d="M238 680q-20 14 -26 41l103 84q28 7 56 0l103 -83q-5 -24 -27 -42l-108 62zM338 -16q-116 0 -186 70t-70 197v391q25 5 41 5q19 0 42 -5v-391q0 -86 44.5 -137.5t128.5 -51.5q85 0 129.5 51.5t44.5 137.5v391q25 5 42 5q18 0 38 -5v-391q0 -128 -68.5 -197.5
t-185.5 -69.5z" />
    <glyph glyph-name="Udieresis" unicode="&#xdc;" horiz-adv-x="674" 
d="M249 696q-23 0 -38 15t-15 37t15 36.5t38 14.5q21 0 35.5 -14.5t14.5 -36.5t-14.5 -37t-35.5 -15zM438 696q-22 0 -37 15t-15 37t15 36.5t37 14.5q21 0 36 -14.5t15 -36.5t-15 -37t-36 -15zM338 -16q-116 0 -186 70t-70 197v391q25 5 41 5q19 0 42 -5v-391
q0 -86 44.5 -137.5t128.5 -51.5q85 0 129.5 51.5t44.5 137.5v391q25 5 42 5q18 0 38 -5v-391q0 -128 -68.5 -197.5t-185.5 -69.5z" />
    <glyph glyph-name="Yacute" unicode="&#xdd;" horiz-adv-x="578" 
d="M203 673q-14 11 -17 33l161 114q41 -24 42 -74zM517 648q23 0 45 -8l-232 -394v-246q-23 -5 -42 -5q-16 0 -39 5v249l-235 391q26 8 50 8t38 -3l175 -293l16 -35l16 35l169 293q13 3 39 3z" />
    <glyph glyph-name="Thorn" unicode="&#xde;" horiz-adv-x="547" 
d="M266 529q122 0 184 -54t62 -148q0 -93 -64 -154.5t-178 -61.5q-43 0 -97 4v-115q-23 -5 -41 -5q-17 0 -42 5v642q25 5 42 5q18 0 41 -5v-121q43 8 93 8zM269 182q81 0 119 38.5t38 106.5q0 61 -41 95t-120 34q-41 0 -92 -7v-261q50 -6 96 -6z" />
    <glyph glyph-name="germandbls" unicode="&#xdf;" horiz-adv-x="575" 
d="M413 279q127 -51 127 -144q0 -70 -44.5 -109.5t-115.5 -39.5q-49 0 -90 19t-58 40q3 18 16 34t30 23q46 -46 102 -46q81 0 81 67q0 28 -20.5 46t-70.5 37q-34 14 -56.5 27t-43 41.5t-20.5 65.5q0 67 48.5 102.5t116.5 35.5h2q0 60 -33.5 101t-95.5 41q-63 0 -98 -35
t-35 -105v-480q-17 -4 -39 -4q-23 0 -40 4v480q0 99 62 155.5t150 56.5q89 0 148.5 -57t59.5 -161q0 -43 -6 -67q-31 6 -72 6t-64.5 -17t-23.5 -45q0 -21 16.5 -36.5t66.5 -35.5z" />
    <glyph glyph-name="agrave" unicode="&#xe0;" horiz-adv-x="504" 
d="M334 550q-5 -20 -22 -31l-169 100q16 48 52 67zM237 485q91 0 147.5 -45t56.5 -139v-269q-35 -19 -91.5 -32.5t-109.5 -13.5q-103 0 -153 42t-50 111q0 70 54.5 110t139.5 40q73 0 131 -24v36q0 53 -33.5 81t-95.5 28q-77 0 -134 -43q-34 16 -41 54q25 25 74 44.5
t105 19.5zM120 143q0 -39 31 -62t90 -23q67 0 121 19v115q-55 26 -131 26q-111 0 -111 -75z" />
    <glyph glyph-name="aacute" unicode="&#xe1;" horiz-adv-x="504" 
d="M173 519q-17 11 -22 31l139 136q36 -19 52 -67zM237 485q91 0 147.5 -45t56.5 -139v-269q-35 -19 -91.5 -32.5t-109.5 -13.5q-103 0 -153 42t-50 111q0 70 54.5 110t139.5 40q73 0 131 -24v36q0 53 -33.5 81t-95.5 28q-77 0 -134 -43q-34 16 -41 54q25 25 74 44.5
t105 19.5zM120 143q0 -39 31 -62t90 -23q67 0 121 19v115q-55 26 -131 26q-111 0 -111 -75z" />
    <glyph glyph-name="acircumflex" unicode="&#xe2;" horiz-adv-x="504" 
d="M155 527q-27 11 -38 42l102 102q27 6 56 0l101 -100q-11 -33 -40 -45l-92 74zM237 485q91 0 147.5 -45t56.5 -139v-269q-35 -19 -91.5 -32.5t-109.5 -13.5q-103 0 -153 42t-50 111q0 70 54.5 110t139.5 40q73 0 131 -24v36q0 53 -33.5 81t-95.5 28q-77 0 -134 -43
q-34 16 -41 54q25 25 74 44.5t105 19.5zM120 143q0 -39 31 -62t90 -23q67 0 121 19v115q-55 26 -131 26q-111 0 -111 -75z" />
    <glyph glyph-name="atilde" unicode="&#xe3;" horiz-adv-x="504" 
d="M188 592q-36 0 -49 -44q-41 0 -62 21q11 43 38.5 67t65.5 24q28 -1 71 -20.5t57 -19.5q36 0 49 43q36 0 59 -21q-11 -42 -38 -65.5t-63 -23.5q-27 0 -71 19.5t-57 19.5zM237 485q91 0 147.5 -45t56.5 -139v-269q-35 -19 -91.5 -32.5t-109.5 -13.5q-103 0 -153 42t-50 111
q0 70 54.5 110t139.5 40q73 0 131 -24v36q0 53 -33.5 81t-95.5 28q-77 0 -134 -43q-34 16 -41 54q25 25 74 44.5t105 19.5zM120 143q0 -39 31 -62t90 -23q67 0 121 19v115q-55 26 -131 26q-111 0 -111 -75z" />
    <glyph glyph-name="adieresis" unicode="&#xe4;" horiz-adv-x="504" 
d="M151 548q-23 0 -38.5 15.5t-15.5 37.5q0 23 15.5 38t38.5 15q22 0 37 -15.5t15 -37.5t-15 -37.5t-37 -15.5zM345 548q-23 0 -38 15t-15 38t15 38t38 15q22 0 37 -15.5t15 -37.5t-15 -37.5t-37 -15.5zM237 485q91 0 147.5 -45t56.5 -139v-269q-35 -19 -91.5 -32.5
t-109.5 -13.5q-103 0 -153 42t-50 111q0 70 54.5 110t139.5 40q73 0 131 -24v36q0 53 -33.5 81t-95.5 28q-77 0 -134 -43q-34 16 -41 54q25 25 74 44.5t105 19.5zM120 143q0 -39 31 -62t90 -23q67 0 121 19v115q-55 26 -131 26q-111 0 -111 -75z" />
    <glyph glyph-name="aring" unicode="&#xe5;" horiz-adv-x="504" 
d="M248 505q-40 0 -68 28t-28 68t28 68t68 28q39 0 67 -28t28 -68t-28 -68t-67 -28zM248 645q-18 0 -30 -13t-12 -31t12 -30.5t30 -12.5t30 12.5t12 30.5t-12 31t-30 13zM237 485q91 0 147.5 -45t56.5 -139v-269q-35 -19 -91.5 -32.5t-109.5 -13.5q-103 0 -153 42t-50 111
q0 70 54.5 110t139.5 40q73 0 131 -24v36q0 53 -33.5 81t-95.5 28q-77 0 -134 -43q-34 16 -41 54q25 25 74 44.5t105 19.5zM120 143q0 -39 31 -62t90 -23q67 0 121 19v115q-55 26 -131 26q-111 0 -111 -75z" />
    <glyph glyph-name="ae" unicode="&#xe6;" horiz-adv-x="801" 
d="M204 -14q-78 0 -122.5 40t-44.5 109q0 67 52 105.5t141 39.5l119 1v33q0 48 -33.5 71.5t-90.5 23.5q-68 0 -127 -47q-29 18 -42 56q25 26 73.5 46.5t99.5 20.5q140 0 177 -94q24 42 67.5 68t93.5 26q87 0 138 -61t51 -160q0 -24 -3 -51h-323v-1q4 -66 42 -109t98 -43
q35 0 65 10t41 17.5t30 22.5q32 -17 43 -60q-79 -64 -179 -64q-137 0 -188 108q-27 -51 -73 -79.5t-105 -28.5zM431 281h243q0 52 -25.5 91.5t-78.5 39.5q-60 0 -96 -39t-43 -92zM209 57q57 0 98.5 39t41.5 117l-119 -1q-110 -1 -110 -77q0 -37 24.5 -57.5t64.5 -20.5z" />
    <glyph glyph-name="ccedilla" unicode="&#xe7;" horiz-adv-x="483" 
d="M452 48q-22 -23 -60 -40t-82 -21l-9 -25q68 -15 68 -66q0 -32 -20.5 -52.5t-43.5 -26.5t-49 -6q-45 0 -68 16q3 28 21 48q24 -13 46 -13q42 0 42 28q0 32 -66 34l24 64q-95 10 -152.5 75.5t-57.5 171.5q0 110 69.5 180t174.5 70q97 0 156 -55q-11 -39 -46 -59
q-52 41 -110 41q-79 0 -120.5 -51.5t-41.5 -125.5t41.5 -124.5t120.5 -50.5q30 0 57 9.5t35 15t25 19.5q34 -19 46 -56z" />
    <glyph glyph-name="egrave" unicode="&#xe8;" horiz-adv-x="525" 
d="M357 550q-5 -20 -22 -31l-169 100q16 48 52 67zM483 276q0 -28 -4 -64h-350q5 -66 46.5 -109t105.5 -43q36 0 66 9.5t42.5 17t31.5 22.5q35 -18 44 -55q-81 -68 -185 -68t-169.5 68t-65.5 180q0 109 65.5 180t162.5 71q91 0 150.5 -59t59.5 -150zM130 279h269
q0 55 -31 94.5t-95 39.5q-59 0 -97.5 -38.5t-45.5 -95.5z" />
    <glyph glyph-name="eacute" unicode="&#xe9;" horiz-adv-x="525" 
d="M196 519q-17 11 -22 31l139 136q36 -19 52 -67zM483 276q0 -28 -4 -64h-350q5 -66 46.5 -109t105.5 -43q36 0 66 9.5t42.5 17t31.5 22.5q35 -18 44 -55q-81 -68 -185 -68t-169.5 68t-65.5 180q0 109 65.5 180t162.5 71q91 0 150.5 -59t59.5 -150zM130 279h269
q0 55 -31 94.5t-95 39.5q-59 0 -97.5 -38.5t-45.5 -95.5z" />
    <glyph glyph-name="ecircumflex" unicode="&#xea;" horiz-adv-x="525" 
d="M178 527q-27 11 -38 42l102 102q27 6 56 0l101 -100q-11 -33 -40 -45l-92 74zM483 276q0 -28 -4 -64h-350q5 -66 46.5 -109t105.5 -43q36 0 66 9.5t42.5 17t31.5 22.5q35 -18 44 -55q-81 -68 -185 -68t-169.5 68t-65.5 180q0 109 65.5 180t162.5 71q91 0 150.5 -59
t59.5 -150zM130 279h269q0 55 -31 94.5t-95 39.5q-59 0 -97.5 -38.5t-45.5 -95.5z" />
    <glyph glyph-name="edieresis" unicode="&#xeb;" horiz-adv-x="525" 
d="M174 548q-23 0 -38.5 15.5t-15.5 37.5q0 23 15.5 38t38.5 15q22 0 37 -15.5t15 -37.5t-15 -37.5t-37 -15.5zM368 548q-22 0 -37.5 15t-15.5 38t15 38t38 15q22 0 37 -15.5t15 -37.5t-15 -37.5t-37 -15.5zM483 276q0 -28 -4 -64h-350q5 -66 46.5 -109t105.5 -43
q36 0 66 9.5t42.5 17t31.5 22.5q35 -18 44 -55q-81 -68 -185 -68t-169.5 68t-65.5 180q0 109 65.5 180t162.5 71q91 0 150.5 -59t59.5 -150zM130 279h269q0 55 -31 94.5t-95 39.5q-59 0 -97.5 -38.5t-45.5 -95.5z" />
    <glyph glyph-name="igrave" unicode="&#xec;" horiz-adv-x="235" 
d="M166 521l-160 115q15 48 63 65l124 -150q-5 -22 -27 -30zM118 -4q-22 0 -41 4v472q19 4 41 4q23 0 40 -4v-472q-17 -4 -40 -4z" />
    <glyph glyph-name="iacute" unicode="&#xed;" horiz-adv-x="235" 
d="M65 521q-22 8 -27 30l124 150q48 -17 63 -65zM118 -4q-22 0 -41 4v472q19 4 41 4q23 0 40 -4v-472q-17 -4 -40 -4z" />
    <glyph glyph-name="icircumflex" unicode="&#xee;" horiz-adv-x="235" 
d="M137 670l85 -104q-7 -21 -34 -33l-78 67l-76 -66q-26 7 -35 33l88 103q24 6 50 0zM118 -4q-22 0 -41 4v472q19 4 41 4q23 0 40 -4v-472q-17 -4 -40 -4z" />
    <glyph glyph-name="idieresis" unicode="&#xef;" horiz-adv-x="235" 
d="M32 548q-23 0 -38 15t-15 37t15 36.5t38 14.5q21 0 35.5 -14.5t14.5 -36.5t-14.5 -37t-35.5 -15zM189 548q-22 0 -37 15t-15 37t15 36.5t37 14.5q21 0 36 -14.5t15 -36.5t-15 -37t-36 -15zM118 -4q-22 0 -41 4v472q19 4 41 4q23 0 40 -4v-472q-17 -4 -40 -4z" />
    <glyph glyph-name="eth" unicode="&#xf0;" horiz-adv-x="548" 
d="M343 585q156 -115 156 -354q0 -107 -63.5 -176t-170.5 -69q-97 0 -158 63t-61 163q0 97 64.5 162t154.5 65q78 0 135 -43q-35 89 -124 141l-77 -57q-11 8 -20 20q-8 14 -11 25l53 39q-37 15 -81 27q-3 46 31 76q70 -21 123 -50l71 52q11 -10 18 -20q11 -14 13 -25z
M272 57q68 0 105.5 44.5t37.5 116.5q0 67 -39.5 108.5t-102.5 41.5q-65 0 -105 -41t-40 -115q0 -70 39 -112.5t105 -42.5z" />
    <glyph glyph-name="ntilde" unicode="&#xf1;" horiz-adv-x="569" 
d="M222 592q-36 0 -49 -44q-41 0 -62 21q11 43 38.5 67t65.5 24q28 -1 71 -20.5t57 -19.5q36 0 49 43q36 0 59 -21q-11 -42 -38 -65.5t-63 -23.5q-27 0 -71 19.5t-57 19.5zM288 485q104 0 157.5 -54.5t53.5 -137.5v-293q-17 -4 -41 -4q-21 0 -40 4v265q0 76 -34 110.5
t-104 34.5q-71 0 -127 -33v-377q-17 -4 -41 -4q-21 0 -40 4v413q37 31 95 51.5t121 20.5z" />
    <glyph glyph-name="ograve" unicode="&#xf2;" horiz-adv-x="574" 
d="M352 519l-169 100q16 48 52 67l139 -136q-5 -20 -22 -31zM284 -13q-105 0 -172.5 71t-67.5 178q0 106 70.5 178t175.5 72t172.5 -71.5t67.5 -178.5q0 -106 -70.5 -177.5t-175.5 -71.5zM287 62q73 0 117 48.5t44 125.5q0 78 -44 126.5t-117 48.5t-117 -48.5t-44 -126.5
q0 -77 44 -125.5t117 -48.5z" />
    <glyph glyph-name="oacute" unicode="&#xf3;" horiz-adv-x="574" 
d="M213 519q-17 11 -22 31l139 136q36 -19 52 -67zM284 -13q-105 0 -172.5 71t-67.5 178q0 106 70.5 178t175.5 72t172.5 -71.5t67.5 -178.5q0 -106 -70.5 -177.5t-175.5 -71.5zM287 62q73 0 117 48.5t44 125.5q0 78 -44 126.5t-117 48.5t-117 -48.5t-44 -126.5
q0 -77 44 -125.5t117 -48.5z" />
    <glyph glyph-name="ocircumflex" unicode="&#xf4;" horiz-adv-x="574" 
d="M315 671l101 -100q-11 -33 -40 -45l-92 74l-89 -73q-27 11 -38 42l102 102q27 6 56 0zM284 -13q-105 0 -172.5 71t-67.5 178q0 106 70.5 178t175.5 72t172.5 -71.5t67.5 -178.5q0 -106 -70.5 -177.5t-175.5 -71.5zM287 62q73 0 117 48.5t44 125.5q0 78 -44 126.5
t-117 48.5t-117 -48.5t-44 -126.5q0 -77 44 -125.5t117 -48.5z" />
    <glyph glyph-name="otilde" unicode="&#xf5;" horiz-adv-x="574" 
d="M179 548q-41 0 -62 21q11 43 38.5 67t65.5 24q28 -1 71 -20.5t57 -19.5q36 0 49 43q36 0 59 -21q-11 -42 -38 -65.5t-63 -23.5q-27 0 -71 19.5t-57 19.5q-36 0 -49 -44zM284 -13q-105 0 -172.5 71t-67.5 178q0 106 70.5 178t175.5 72t172.5 -71.5t67.5 -178.5
q0 -106 -70.5 -177.5t-175.5 -71.5zM287 62q73 0 117 48.5t44 125.5q0 78 -44 126.5t-117 48.5t-117 -48.5t-44 -126.5q0 -77 44 -125.5t117 -48.5z" />
    <glyph glyph-name="odieresis" unicode="&#xf6;" horiz-adv-x="574" 
d="M191 548q-23 0 -38.5 15.5t-15.5 37.5q0 23 15.5 38t38.5 15q22 0 37 -15.5t15 -37.5t-15 -37.5t-37 -15.5zM385 548q-23 0 -38 15t-15 38t15 38t38 15q22 0 37 -15.5t15 -37.5t-15 -37.5t-37 -15.5zM284 -13q-105 0 -172.5 71t-67.5 178q0 106 70.5 178t175.5 72
t172.5 -71.5t67.5 -178.5q0 -106 -70.5 -177.5t-175.5 -71.5zM287 62q73 0 117 48.5t44 125.5q0 78 -44 126.5t-117 48.5t-117 -48.5t-44 -126.5q0 -77 44 -125.5t117 -48.5z" />
    <glyph glyph-name="divide" unicode="&#xf7;" horiz-adv-x="533" 
d="M267 333q-26 0 -44.5 18t-18.5 44t18.5 44t44.5 18q25 0 43.5 -18.5t18.5 -43.5t-18.5 -43.5t-43.5 -18.5zM56 202q-4 24 -4 35q0 13 4 35h421q4 -15 4 -35q0 -19 -4 -35h-421zM267 17q-26 0 -44.5 18t-18.5 44t18.5 44t44.5 18q25 0 43.5 -18.5t18.5 -43.5t-18.5 -43.5
t-43.5 -18.5z" />
    <glyph glyph-name="oslash" unicode="&#xf8;" horiz-adv-x="578" 
d="M477 400q55 -69 55 -164q0 -106 -70.5 -177.5t-175.5 -71.5q-79 0 -140 43l-54 -60q-33 11 -44 45l53 58q-55 68 -55 163q0 106 70.5 178t175.5 72q81 0 142 -45l53 59q32 -11 44 -40zM128 236q0 -61 27 -103l227 251q-40 27 -93 27q-73 0 -117 -48.5t-44 -126.5zM289 62
q73 0 117 48.5t44 125.5q0 60 -27 104l-225 -252q38 -26 91 -26z" />
    <glyph glyph-name="ugrave" unicode="&#xf9;" horiz-adv-x="560" 
d="M367 550q-5 -20 -22 -31l-169 100q16 48 52 67zM447 474q23 0 40 -4v-438q-105 -46 -217 -46q-98 0 -149 49t-51 136v299q19 4 41 4q23 0 40 -4v-266q0 -74 28 -108.5t110 -34.5q60 0 117 21v388q19 4 41 4z" />
    <glyph glyph-name="uacute" unicode="&#xfa;" horiz-adv-x="560" 
d="M206 519q-17 11 -22 31l139 136q36 -19 52 -67zM447 474q23 0 40 -4v-438q-105 -46 -217 -46q-98 0 -149 49t-51 136v299q19 4 41 4q23 0 40 -4v-266q0 -74 28 -108.5t110 -34.5q60 0 117 21v388q19 4 41 4z" />
    <glyph glyph-name="ucircumflex" unicode="&#xfb;" horiz-adv-x="560" 
d="M188 527q-27 11 -38 42l102 102q27 6 56 0l101 -100q-11 -33 -40 -45l-92 74zM447 474q23 0 40 -4v-438q-105 -46 -217 -46q-98 0 -149 49t-51 136v299q19 4 41 4q23 0 40 -4v-266q0 -74 28 -108.5t110 -34.5q60 0 117 21v388q19 4 41 4z" />
    <glyph glyph-name="udieresis" unicode="&#xfc;" horiz-adv-x="560" 
d="M184 548q-23 0 -38.5 15.5t-15.5 37.5q0 23 15.5 38t38.5 15q22 0 37 -15.5t15 -37.5t-15 -37.5t-37 -15.5zM378 548q-22 0 -37.5 15t-15.5 38t15 38t38 15q22 0 37 -15.5t15 -37.5t-15 -37.5t-37 -15.5zM447 474q23 0 40 -4v-438q-105 -46 -217 -46q-98 0 -149 49
t-51 136v299q19 4 41 4q23 0 40 -4v-266q0 -74 28 -108.5t110 -34.5q60 0 117 21v388q19 4 41 4z" />
    <glyph glyph-name="yacute" unicode="&#xfd;" horiz-adv-x="503" 
d="M182 519q-17 11 -22 31l139 136q36 -19 52 -67zM434 474q24 0 49 -10q-59 -226 -135.5 -376.5t-206.5 -292.5q-40 7 -57 49q83 91 127 165q-120 199 -189 458q22 7 50 7q18 0 36 -3q50 -191 144 -379l8 -15l3.5 7l3.5 7q79 152 134 380q16 3 33 3z" />
    <glyph glyph-name="thorn" unicode="&#xfe;" horiz-adv-x="564" 
d="M274 485q108 0 177 -64.5t69 -178.5t-71 -184.5t-177 -70.5q-65 0 -116 20v-193q-17 -4 -40 -4q-21 0 -40 4v843q19 4 40 4q23 0 40 -4v-197q61 25 118 25zM272 62q75 0 120.5 47.5t45.5 127.5q0 79 -45 125.5t-119 46.5q-68 0 -118 -25v-296q49 -26 116 -26z" />
    <glyph glyph-name="ydieresis" unicode="&#xff;" horiz-adv-x="503" 
d="M160 548q-23 0 -38.5 15.5t-15.5 37.5q0 23 15.5 38t38.5 15q22 0 37 -15.5t15 -37.5t-15 -37.5t-37 -15.5zM354 548q-22 0 -37.5 15t-15.5 38t15 38t38 15q22 0 37 -15.5t15 -37.5t-15 -37.5t-37 -15.5zM434 474q24 0 49 -10q-59 -226 -135.5 -376.5t-206.5 -292.5
q-40 7 -57 49q83 91 127 165q-120 199 -189 458q22 7 50 7q18 0 36 -3q50 -191 144 -379l8 -15l3.5 7l3.5 7q79 152 134 380q16 3 33 3z" />
    <glyph glyph-name="Amacron" unicode="&#x100;" horiz-adv-x="600" 
d="M434 713h-266q-4 24 -4 34q0 11 4 33h266q4 -15 4 -33t-4 -34zM341 642l243 -635q-19 -11 -48 -11q-23 0 -39 4l-66 179h-265l-64 -179q-17 -4 -36 -4q-27 0 -48 11l238 635q17 6 43 6q25 0 42 -6zM191 249h214l-92 248l-17 54l-17 -54z" />
    <glyph glyph-name="amacron" unicode="&#x101;" horiz-adv-x="504" 
d="M376 562h-256q-5 15 -5 34t5 33h256q4 -15 4 -33t-4 -34zM237 485q91 0 147.5 -45t56.5 -139v-269q-35 -19 -91.5 -32.5t-109.5 -13.5q-103 0 -153 42t-50 111q0 70 54.5 110t139.5 40q73 0 131 -24v36q0 53 -33.5 81t-95.5 28q-77 0 -134 -43q-34 16 -41 54
q25 25 74 44.5t105 19.5zM120 143q0 -39 31 -62t90 -23q67 0 121 19v115q-55 26 -131 26q-111 0 -111 -75z" />
    <glyph glyph-name="Abreve" unicode="&#x102;" horiz-adv-x="600" 
d="M301 684q-61 0 -97.5 34.5t-36.5 81.5q27 11 60 6q5 -26 25 -42t51 -16q32 0 51.5 16t21.5 42q32 4 59 -6q0 -45 -37 -80.5t-97 -35.5zM341 642l243 -635q-19 -11 -48 -11q-23 0 -39 4l-66 179h-265l-64 -179q-17 -4 -36 -4q-27 0 -48 11l238 635q17 6 43 6q25 0 42 -6z
M191 249h214l-92 248l-17 54l-17 -54z" />
    <glyph glyph-name="abreve" unicode="&#x103;" horiz-adv-x="504" 
d="M247 530q-67 0 -100.5 38.5t-33.5 94.5q26 11 58 6q10 -78 78 -78q69 0 74 78q32 5 58 -6q0 -54 -34 -93.5t-100 -39.5zM237 485q91 0 147.5 -45t56.5 -139v-269q-35 -19 -91.5 -32.5t-109.5 -13.5q-103 0 -153 42t-50 111q0 70 54.5 110t139.5 40q73 0 131 -24v36
q0 53 -33.5 81t-95.5 28q-77 0 -134 -43q-34 16 -41 54q25 25 74 44.5t105 19.5zM120 143q0 -39 31 -62t90 -23q67 0 121 19v115q-55 26 -131 26q-111 0 -111 -75z" />
    <glyph glyph-name="Aogonek" unicode="&#x104;" horiz-adv-x="600" 
d="M598 -101q29 -19 29 -53q-38 -36 -107 -36q-36 0 -60 21t-24 55q0 55 61 114l-66 179h-265l-64 -179q-17 -4 -36 -4q-27 0 -48 11l238 635q17 6 43 6q25 0 42 -6l243 -635q-70 -54 -70 -94q0 -33 32 -33q28 0 52 19zM191 249h214l-92 248l-17 54l-17 -54z" />
    <glyph glyph-name="aogonek" unicode="&#x105;" horiz-adv-x="504" 
d="M438 -101q29 -19 29 -53q-38 -36 -107 -36q-36 0 -60 21t-24 55q0 54 56 110q-50 -10 -92 -10q-103 0 -153 42t-50 111q0 70 54.5 110t139.5 40q73 0 131 -24v36q0 53 -33.5 81t-95.5 28q-77 0 -134 -43q-34 16 -41 54q25 25 74 44.5t105 19.5q91 0 147.5 -45t56.5 -139
v-269q-35 -29 -61 -63.5t-26 -58.5q0 -30 32 -30q28 0 52 19zM120 143q0 -39 31 -62t90 -23q67 0 121 19v115q-55 26 -131 26q-111 0 -111 -75z" />
    <glyph glyph-name="Cacute" unicode="&#x106;" horiz-adv-x="599" 
d="M273 673q-14 11 -17 33l161 114q41 -24 42 -74zM365 -16q-141 0 -229 94.5t-88 242.5q0 147 93 243t230 96q116 0 195 -59q-7 -44 -45 -63q-66 46 -150 46q-103 0 -170.5 -71.5t-67.5 -191.5q0 -118 66.5 -189.5t165.5 -71.5q101 0 165 52q34 -20 41 -62
q-76 -66 -206 -66z" />
    <glyph glyph-name="cacute" unicode="&#x107;" horiz-adv-x="483" 
d="M204 519q-17 11 -22 31l139 136q36 -19 52 -67zM289 -14q-109 0 -176.5 67t-67.5 182q0 110 69.5 180t174.5 70q97 0 156 -55q-11 -39 -46 -59q-52 41 -110 41q-79 0 -120.5 -51.5t-41.5 -125.5t41.5 -124.5t120.5 -50.5q30 0 57 9.5t35 15t25 19.5q34 -19 46 -56
q-25 -25 -69 -43.5t-94 -18.5z" />
    <glyph glyph-name="Cdotaccent" unicode="&#x10a;" horiz-adv-x="599" 
d="M359 694q-23 0 -39.5 16t-16.5 39t16 39t40 16q23 0 38.5 -16t15.5 -39t-15.5 -39t-38.5 -16zM365 -16q-141 0 -229 94.5t-88 242.5q0 147 93 243t230 96q116 0 195 -59q-7 -44 -45 -63q-66 46 -150 46q-103 0 -170.5 -71.5t-67.5 -191.5q0 -118 66.5 -189.5t165.5 -71.5
q101 0 165 52q34 -20 41 -62q-76 -66 -206 -66z" />
    <glyph glyph-name="cdotaccent" unicode="&#x10b;" horiz-adv-x="483" 
d="M278 551q-24 0 -41 16.5t-17 40.5t16.5 40.5t41.5 16.5q23 0 39.5 -16.5t16.5 -40.5t-16.5 -40.5t-39.5 -16.5zM289 -14q-109 0 -176.5 67t-67.5 182q0 110 69.5 180t174.5 70q97 0 156 -55q-11 -39 -46 -59q-52 41 -110 41q-79 0 -120.5 -51.5t-41.5 -125.5t41.5 -124.5
t120.5 -50.5q30 0 57 9.5t35 15t25 19.5q34 -19 46 -56q-25 -25 -69 -43.5t-94 -18.5z" />
    <glyph glyph-name="Ccaron" unicode="&#x10c;" horiz-adv-x="599" 
d="M331 687l-103 83q5 25 27 42l108 -62l101 62q22 -15 26 -41l-103 -84q-28 -7 -56 0zM365 -16q-141 0 -229 94.5t-88 242.5q0 147 93 243t230 96q116 0 195 -59q-7 -44 -45 -63q-66 46 -150 46q-103 0 -170.5 -71.5t-67.5 -191.5q0 -118 66.5 -189.5t165.5 -71.5
q101 0 165 52q34 -20 41 -62q-76 -66 -206 -66z" />
    <glyph glyph-name="ccaron" unicode="&#x10d;" horiz-adv-x="483" 
d="M249 532l-98 99q9 34 38 46l90 -74l92 74q28 -12 39 -43l-105 -102q-27 -6 -56 0zM289 -14q-109 0 -176.5 67t-67.5 182q0 110 69.5 180t174.5 70q97 0 156 -55q-11 -39 -46 -59q-52 41 -110 41q-79 0 -120.5 -51.5t-41.5 -125.5t41.5 -124.5t120.5 -50.5q30 0 57 9.5
t35 15t25 19.5q34 -19 46 -56q-25 -25 -69 -43.5t-94 -18.5z" />
    <glyph glyph-name="Dcaron" unicode="&#x10e;" horiz-adv-x="673" 
d="M333 687q-28 -7 -56 0l-103 83q5 25 27 42l108 -62l101 62q22 -15 26 -41zM259 651q174 0 269.5 -88.5t95.5 -237.5q0 -148 -96.5 -241t-258.5 -93q-99 0 -180 12v635q86 13 170 13zM272 64q129 0 198 70.5t69 188.5q0 117 -70.5 185t-209.5 68q-42 0 -89 -4v-503
q53 -5 102 -5z" />
    <glyph glyph-name="dcaron" unicode="&#x10f;" horiz-adv-x="569" 
d="M623 700q5 -15 5 -35q0 -83 -56 -137q-21 4 -31 19q16 35 16 94q0 35 -9 58q14 9 40 9q21 0 35 -8zM409 657q17 4 39 4t41 -4v-624q-85 -47 -196 -47q-109 0 -178.5 65.5t-69.5 180.5q0 113 72.5 182.5t178.5 69.5q68 0 113 -22v195zM293 60q64 -2 116 20v302
q-41 27 -113 27q-74 0 -121.5 -48t-47.5 -127q0 -80 45.5 -127t120.5 -47z" />
    <glyph glyph-name="Dcroat" unicode="&#x110;" horiz-adv-x="673" 
d="M259 651q174 0 269.5 -88.5t95.5 -237.5q0 -148 -96.5 -241t-258.5 -93q-99 0 -180 12v282h-77q-6 17 -6 35t6 36h77v282q86 13 170 13zM272 64q129 0 198 70.5t69 188.5q0 117 -70.5 185t-209.5 68q-42 0 -89 -4v-216h110q5 -17 5 -35q0 -14 -5 -36h-110v-216
q53 -5 102 -5z" />
    <glyph glyph-name="dcroat" unicode="&#x111;" horiz-adv-x="562" 
d="M574 574q0 -13 -5 -33h-80v-508q-85 -47 -196 -47q-109 0 -178.5 65.5t-69.5 180.5q0 113 72.5 182.5t178.5 69.5q68 0 113 -22v79h-84q-5 18 -5 32q0 15 5 33h84v51q17 4 39 4t41 -4v-51h80q5 -17 5 -32zM293 60q64 -2 116 20v302q-41 27 -113 27q-74 0 -121.5 -48
t-47.5 -127q0 -80 45.5 -127t120.5 -47z" />
    <glyph glyph-name="Emacron" unicode="&#x112;" horiz-adv-x="549" 
d="M432 713h-266q-4 24 -4 34q0 11 4 33h266q4 -15 4 -33t-4 -34zM498 74q6 -16 6 -35q0 -21 -6 -39h-408v642h398q6 -16 6 -39q0 -19 -6 -36h-318v-199h283q6 -20 6 -37t-6 -37h-283v-220h328z" />
    <glyph glyph-name="emacron" unicode="&#x113;" horiz-adv-x="525" 
d="M399 562h-256q-5 15 -5 34t5 33h256q4 -15 4 -33t-4 -34zM483 276q0 -28 -4 -64h-350q5 -66 46.5 -109t105.5 -43q36 0 66 9.5t42.5 17t31.5 22.5q35 -18 44 -55q-81 -68 -185 -68t-169.5 68t-65.5 180q0 109 65.5 180t162.5 71q91 0 150.5 -59t59.5 -150zM130 279h269
q0 55 -31 94.5t-95 39.5q-59 0 -97.5 -38.5t-45.5 -95.5z" />
    <glyph glyph-name="Edotaccent" unicode="&#x116;" horiz-adv-x="549" 
d="M300 694q-23 0 -39.5 16t-16.5 39t16 39t40 16q23 0 38.5 -16t15.5 -39t-15.5 -39t-38.5 -16zM498 74q6 -16 6 -35q0 -21 -6 -39h-408v642h398q6 -16 6 -39q0 -19 -6 -36h-318v-199h283q6 -20 6 -37t-6 -37h-283v-220h328z" />
    <glyph glyph-name="edotaccent" unicode="&#x117;" horiz-adv-x="525" 
d="M270 551q-24 0 -41 16.5t-17 40.5t16.5 40.5t41.5 16.5q23 0 39.5 -16.5t16.5 -40.5t-16.5 -40.5t-39.5 -16.5zM483 276q0 -28 -4 -64h-350q5 -66 46.5 -109t105.5 -43q36 0 66 9.5t42.5 17t31.5 22.5q35 -18 44 -55q-81 -68 -185 -68t-169.5 68t-65.5 180
q0 109 65.5 180t162.5 71q91 0 150.5 -59t59.5 -150zM130 279h269q0 55 -31 94.5t-95 39.5q-59 0 -97.5 -38.5t-45.5 -95.5z" />
    <glyph glyph-name="Eogonek" unicode="&#x118;" horiz-adv-x="549" 
d="M520 -100q29 -19 29 -53q-38 -36 -97 -36q-41 0 -67.5 20.5t-26.5 55.5q0 66 67 113h-335v642h398q6 -16 6 -39q0 -19 -6 -36h-318v-199h283q6 -20 6 -37t-6 -37h-283v-220h328q6 -16 6 -35q0 -21 -6 -39q-62 -53 -62 -87q0 -16 9.5 -24t22.5 -8q28 0 52 19z" />
    <glyph glyph-name="eogonek" unicode="&#x119;" horiz-adv-x="525" 
d="M483 276q0 -28 -4 -64h-350q5 -66 46.5 -109t105.5 -43q36 0 66 9.5t42.5 17t31.5 22.5q35 -18 44 -55q-12 -11 -32 -24q-35 -29 -60 -62.5t-25 -57.5q0 -30 32 -30q28 0 52 19q29 -19 29 -53q-38 -36 -107 -36q-36 0 -60 21t-24 55q0 51 49 102q-24 -2 -39 -2
q-104 0 -169.5 68t-65.5 180q0 109 65.5 180t162.5 71q91 0 150.5 -59t59.5 -150zM130 279h269q0 55 -31 94.5t-95 39.5q-59 0 -97.5 -38.5t-45.5 -95.5z" />
    <glyph glyph-name="Ecaron" unicode="&#x11a;" horiz-adv-x="549" 
d="M328 687q-28 -7 -56 0l-103 83q5 25 27 42l108 -62l101 62q22 -15 26 -41zM498 74q6 -16 6 -35q0 -21 -6 -39h-408v642h398q6 -16 6 -39q0 -19 -6 -36h-318v-199h283q6 -20 6 -37t-6 -37h-283v-220h328z" />
    <glyph glyph-name="ecaron" unicode="&#x11b;" horiz-adv-x="525" 
d="M297 532q-27 -6 -56 0l-98 99q9 34 38 46l90 -74l92 74q28 -12 39 -43zM483 276q0 -28 -4 -64h-350q5 -66 46.5 -109t105.5 -43q36 0 66 9.5t42.5 17t31.5 22.5q35 -18 44 -55q-81 -68 -185 -68t-169.5 68t-65.5 180q0 109 65.5 180t162.5 71q91 0 150.5 -59t59.5 -150z
M130 279h269q0 55 -31 94.5t-95 39.5q-59 0 -97.5 -38.5t-45.5 -95.5z" />
    <glyph glyph-name="Gbreve" unicode="&#x11e;" horiz-adv-x="657" 
d="M357 684q-61 0 -97.5 34.5t-36.5 81.5q27 11 60 6q5 -26 25 -42t51 -16q32 0 51.5 16t21.5 42q32 4 59 -6q0 -45 -37 -80.5t-97 -35.5zM379 332h217v-298q-95 -50 -219 -50q-141 0 -234.5 91.5t-93.5 244.5q0 154 95 247t230 93q138 0 217 -58q-8 -46 -43 -68
q-76 49 -174 49q-101 0 -170.5 -71t-69.5 -192q0 -120 63 -190t182 -70q79 0 135 22v173h-135q-5 17 -5 38t5 39z" />
    <glyph glyph-name="gbreve" unicode="&#x11f;" horiz-adv-x="556" 
d="M288 530q-67 0 -100.5 38.5t-33.5 94.5q26 11 58 6q10 -78 78 -78q69 0 74 78q32 5 58 -6q0 -54 -34 -93.5t-100 -39.5zM296 485q108 0 187 -61v-412q0 -90 -63 -149t-162 -59q-134 0 -206 82q14 39 52 55q56 -65 154 -65q72 0 108 37.5t36 98.5v27q-56 -28 -113 -28
q-104 0 -174.5 63.5t-70.5 168.5t71.5 173.5t180.5 68.5zM296 82q59 0 106 35v263q-39 31 -106 31q-75 0 -122 -47t-47 -121q0 -75 46.5 -118t122.5 -43z" />
    <glyph glyph-name="Gdotaccent" unicode="&#x120;" horiz-adv-x="657" 
d="M358 694q-23 0 -39.5 16t-16.5 39t16 39t40 16q23 0 38.5 -16t15.5 -39t-15.5 -39t-38.5 -16zM379 332h217v-298q-95 -50 -219 -50q-141 0 -234.5 91.5t-93.5 244.5q0 154 95 247t230 93q138 0 217 -58q-8 -46 -43 -68q-76 49 -174 49q-101 0 -170.5 -71t-69.5 -192
q0 -120 63 -190t182 -70q79 0 135 22v173h-135q-5 17 -5 38t5 39z" />
    <glyph glyph-name="gdotaccent" unicode="&#x121;" horiz-adv-x="556" 
d="M288 551q-24 0 -41 16.5t-17 40.5t16.5 40.5t41.5 16.5q23 0 39.5 -16.5t16.5 -40.5t-16.5 -40.5t-39.5 -16.5zM296 485q108 0 187 -61v-412q0 -90 -63 -149t-162 -59q-134 0 -206 82q14 39 52 55q56 -65 154 -65q72 0 108 37.5t36 98.5v27q-56 -28 -113 -28
q-104 0 -174.5 63.5t-70.5 168.5t71.5 173.5t180.5 68.5zM296 82q59 0 106 35v263q-39 31 -106 31q-75 0 -122 -47t-47 -121q0 -75 46.5 -118t122.5 -43z" />
    <glyph glyph-name="Gcommaaccent" unicode="&#x122;" horiz-adv-x="657" 
d="M379 332h217v-298q-95 -50 -219 -50q-141 0 -234.5 91.5t-93.5 244.5q0 154 95 247t230 93q138 0 217 -58q-8 -46 -43 -68q-76 49 -174 49q-101 0 -170.5 -71t-69.5 -192q0 -120 63 -190t182 -70q79 0 135 22v173h-135q-5 17 -5 38t5 39zM363 -36q22 0 36 -7q4 -19 4 -40
q0 -37 -20.5 -71t-57.5 -55q-19 5 -26 27q31 28 31 84q0 29 -9 54q16 8 42 8z" />
    <glyph glyph-name="gcommaaccent" unicode="&#x123;" horiz-adv-x="556" 
d="M282 506q-22 0 -36 7q-4 19 -4 40q0 37 20.5 71t57.5 55q19 -5 26 -27q-31 -28 -31 -84q0 -29 9 -54q-16 -8 -42 -8zM296 485q108 0 187 -61v-412q0 -90 -63 -149t-162 -59q-134 0 -206 82q14 39 52 55q56 -65 154 -65q72 0 108 37.5t36 98.5v27q-56 -28 -113 -28
q-104 0 -174.5 63.5t-70.5 168.5t71.5 173.5t180.5 68.5zM296 82q59 0 106 35v263q-39 31 -106 31q-75 0 -122 -47t-47 -121q0 -75 46.5 -118t122.5 -43z" />
    <glyph glyph-name="Hbar" unicode="&#x126;" horiz-adv-x="691" 
d="M668 478q0 -14 -5 -32h-62v-446q-22 -5 -37 -5q-19 0 -44 5v290h-349v-290q-25 -5 -43 -5q-13 0 -38 5v446h-61q-5 17 -5 31q0 15 5 32h61v133q18 5 38 5q26 0 43 -5v-133h349v133q25 5 42 5t39 -5v-133h62q5 -15 5 -31zM520 365v81h-349v-81h349z" />
    <glyph glyph-name="hbar" unicode="&#x127;" horiz-adv-x="571" 
d="M297 485q100 0 152 -56.5t52 -136.5v-292q-17 -4 -41 -4q-21 0 -40 4v263q0 145 -138 145q-65 0 -125 -35v-373q-17 -4 -40 -4q-22 0 -41 4v542h-55q-5 18 -5 32q0 15 5 33h55v50q19 4 41 4q23 0 40 -4v-50h108q5 -17 5 -32q0 -13 -5 -33h-108v-94q66 37 140 37z" />
    <glyph glyph-name="Itilde" unicode="&#x128;" horiz-adv-x="261" 
d="M180 695q-20 0 -52 15.5t-43 15.5q-29 0 -38 -31q-41 0 -56 24q7 36 32 56.5t57 20.5q18 0 55 -15.5t44 -15.5q27 0 34 31q41 0 56 -24q-9 -36 -34 -56.5t-55 -20.5zM131 -5q-16 0 -41 5v642q18 6 41 6t40 -6v-642q-23 -5 -40 -5z" />
    <glyph glyph-name="itilde" unicode="&#x129;" horiz-adv-x="235" 
d="M154 564q-19 0 -48 11.5t-38 11.5q-10 0 -17.5 -5.5t-11.5 -10.5t-11 -18q-35 0 -55 29q33 72 88 72q16 0 44.5 -11t41.5 -11q10 0 18 4.5t11 9t11 15.5q35 0 55 -29q-33 -68 -88 -68zM118 -4q-22 0 -41 4v472q19 4 41 4q23 0 40 -4v-472q-17 -4 -40 -4z" />
    <glyph glyph-name="Imacron" unicode="&#x12a;" horiz-adv-x="261" 
d="M32 713q-4 24 -4 34q0 11 4 33h196q4 -15 4 -33t-4 -34h-196zM131 -5q-16 0 -41 5v642q18 6 41 6t40 -6v-642q-23 -5 -40 -5z" />
    <glyph glyph-name="imacron" unicode="&#x12b;" horiz-adv-x="235" 
d="M28 564q-3 12 -3 34t3 33h179q3 -11 3 -33t-3 -34h-179zM118 -4q-22 0 -41 4v472q19 4 41 4q23 0 40 -4v-472q-17 -4 -40 -4z" />
    <glyph glyph-name="Iogonek" unicode="&#x12e;" horiz-adv-x="261" 
d="M189 -101q29 -19 29 -53q-38 -36 -107 -36q-36 0 -60 21t-24 55q0 57 63 114v642q18 6 41 6t40 -6v-642q-28 -18 -47 -42t-19 -45q0 -33 32 -33q28 0 52 19z" />
    <glyph glyph-name="iogonek" unicode="&#x12f;" horiz-adv-x="235" 
d="M111 553q-24 0 -41 16.5t-17 40.5t16.5 40.5t41.5 16.5q23 0 39.5 -16.5t16.5 -40.5t-16.5 -40.5t-39.5 -16.5zM177 -101q29 -19 29 -53q-38 -36 -107 -36q-38 0 -63 22t-25 60q0 54 61 108h5v472q19 4 41 4q23 0 40 -4v-472q-2 -1 -7 -1q-33 -29 -45.5 -46t-12.5 -39
q0 -34 32 -34q28 0 52 19z" />
    <glyph glyph-name="Idotaccent" unicode="&#x130;" horiz-adv-x="261" 
d="M132 694q-23 0 -39.5 16t-16.5 39t16 39t40 16q23 0 38.5 -16t15.5 -39t-15.5 -39t-38.5 -16zM131 -5q-16 0 -41 5v642q18 6 41 6t40 -6v-642q-23 -5 -40 -5z" />
    <glyph glyph-name="dotlessi" unicode="&#x131;" horiz-adv-x="235" 
d="M118 -4q-22 0 -41 4v472q19 4 41 4q23 0 40 -4v-472q-17 -4 -40 -4z" />
    <glyph glyph-name="IJ" unicode="&#x132;" horiz-adv-x="524" 
d="M124 151q-23 0 -42 5v486q19 5 42 5q24 0 41 -5v-486q-17 -5 -41 -5zM262 -16q-46 0 -81 19t-53 42q14 37 52 57q38 -44 82 -44q47 0 72 24.5t25 81.5v478q15 5 40 5q23 0 41 -5v-479q0 -91 -49 -135t-129 -44z" />
    <glyph glyph-name="ij" unicode="&#x133;" horiz-adv-x="464" 
d="M118 553q-24 0 -41 16.5t-17 40.5t16.5 40.5t41.5 16.5q23 0 39.5 -16.5t16.5 -40.5t-16.5 -40.5t-39.5 -16.5zM346 551q-24 0 -41 16.5t-17 40.5t16.5 40.5t41.5 16.5q23 0 39.5 -16.5t16.5 -40.5t-16.5 -40.5t-39.5 -16.5zM118 -4q-22 0 -41 4v472q19 4 41 4
q23 0 40 -4v-472q-17 -4 -40 -4zM233 -197q-40 0 -73.5 12t-49.5 30q9 37 45 55q36 -26 68 -26q38 0 60.5 23.5t22.5 72.5v500q19 4 40 4q24 0 41 -4v-501q0 -80 -47 -123t-107 -43z" />
    <glyph glyph-name="Kcommaaccent" unicode="&#x136;" horiz-adv-x="592" 
d="M304 349l287 -343q-27 -8 -66 -8q-19 0 -37 2l-245 297l-72 -56v-241q-23 -5 -42 -5q-16 0 -39 5v642q23 5 39 5q19 0 42 -5v-308q99 76 161.5 141.5t133.5 168.5q18 3 39 3q29 0 53 -6q-116 -172 -254 -292zM316 -36q22 0 36 -7q4 -19 4 -40q0 -37 -20.5 -71t-57.5 -55
q-19 5 -26 27q31 28 31 84q0 29 -9 54q16 8 42 8z" />
    <glyph glyph-name="kcommaaccent" unicode="&#x137;" horiz-adv-x="483" 
d="M266 248l211 -246q-30 -7 -56 -7q-17 0 -40 3l-178 203l-47 -30v-171q-17 -4 -40 -4q-21 0 -40 4v657q19 4 40 4q23 0 40 -4v-401q136 86 209 215q15 3 41 3q25 0 45 -7q-73 -129 -185 -219zM233 -36q22 0 36 -7q4 -19 4 -40q0 -37 -20.5 -71t-57.5 -55q-19 5 -26 27
q31 28 31 84q0 29 -9 54q16 8 42 8z" />
    <glyph glyph-name="kgreenlandic" unicode="&#x138;" horiz-adv-x="489" 
d="M264 251l221 -249q-33 -7 -61 -7q-23 0 -41 3l-185 205q-15 -10 -45 -28v-175q-17 -4 -40 -4q-20 0 -39 4v470q19 4 39 4q23 0 40 -4v-210q63 37 119 92.5t95 118.5q10 3 39 3q27 0 48 -7q-74 -122 -190 -216z" />
    <glyph glyph-name="Lacute" unicode="&#x139;" horiz-adv-x="486" 
d="M208 820q41 -24 42 -74l-186 -73q-14 11 -17 33zM464 73q5 -15 5 -34q0 -21 -5 -39h-374v642q23 5 39 5q19 0 42 -5v-569h293z" />
    <glyph glyph-name="lacute" unicode="&#x13a;" horiz-adv-x="235" 
d="M38 673q-14 11 -17 33l161 114q41 -24 42 -74zM117 -4q-21 0 -40 4v657q19 4 40 4q24 0 41 -4v-657q-17 -4 -41 -4z" />
    <glyph glyph-name="Lcommaaccent" unicode="&#x13b;" horiz-adv-x="486" 
d="M464 73q5 -15 5 -34q0 -21 -5 -39h-374v642q23 5 39 5q19 0 42 -5v-569h293zM287 -36q22 0 36 -7q4 -19 4 -40q0 -37 -20.5 -71t-57.5 -55q-19 5 -26 27q31 28 31 84q0 29 -9 54q16 8 42 8z" />
    <glyph glyph-name="lcommaaccent" unicode="&#x13c;" horiz-adv-x="235" 
d="M117 -4q-21 0 -40 4v657q19 4 40 4q24 0 41 -4v-657q-17 -4 -41 -4zM81 -209q-19 5 -26 27q31 28 31 84q0 29 -9 54q16 8 42 8q22 0 36 -7q4 -19 4 -40q0 -37 -20.5 -71t-57.5 -55z" />
    <glyph glyph-name="Lcaron" unicode="&#x13d;" horiz-adv-x="486" 
d="M346 529q-21 4 -31 19q16 35 16 94q0 36 -9 58q14 9 40 9q21 0 35 -8q5 -15 5 -35q0 -83 -56 -137zM464 73q5 -15 5 -34q0 -21 -5 -39h-374v642q23 5 39 5q19 0 42 -5v-569h293z" />
    <glyph glyph-name="lcaron" unicode="&#x13e;" horiz-adv-x="240" 
d="M241 529q-21 4 -31 19q16 35 16 94q0 36 -9 58q14 9 40 9q21 0 35 -8q5 -15 5 -35q0 -83 -56 -137zM117 -4q-21 0 -40 4v657q19 4 40 4q24 0 41 -4v-657q-17 -4 -41 -4z" />
    <glyph glyph-name="Ldot" unicode="&#x13f;" horiz-adv-x="488" 
d="M464 73q5 -15 5 -34q0 -21 -5 -39h-374v642q23 5 39 5q19 0 42 -5v-569h293zM360 285q-24 0 -41 17t-17 41t17 41t41 17t41 -17t17 -41t-17 -41t-41 -17z" />
    <glyph glyph-name="ldot" unicode="&#x140;" horiz-adv-x="279" 
d="M117 -4q-21 0 -40 4v657q19 4 40 4q24 0 41 -4v-657q-17 -4 -41 -4zM255 269q-24 0 -41 17t-17 41t17 41t41 17t41 -17t17 -41t-17 -41t-41 -17z" />
    <glyph glyph-name="Lslash" unicode="&#x141;" horiz-adv-x="486" 
d="M464 73q5 -15 5 -34q0 -21 -5 -39h-374v260l-56 -28q-10 8 -19 27t-11 34l86 43v306q23 5 39 5q19 0 42 -5v-265l65 32q10 -9 19.5 -28t10.5 -33l-95 -47v-228h293z" />
    <glyph glyph-name="lslash" unicode="&#x142;" horiz-adv-x="235" 
d="M239 357l-81 -41v-316q-17 -4 -41 -4q-21 0 -40 4v275l-56 -28q-24 20 -27 55l83 42v313q19 4 40 4q24 0 41 -4v-272l54 27q22 -21 27 -55z" />
    <glyph glyph-name="Nacute" unicode="&#x143;" horiz-adv-x="685" 
d="M258 673q-14 11 -17 33l161 114q41 -24 42 -74zM556 647q17 0 39 -5v-636q-30 -9 -71 -9l-341 482l-16 32v-511q-17 -5 -38 -5t-39 5v634q36 19 72 11l340 -476l17 -29l-1 44v458q25 5 38 5z" />
    <glyph glyph-name="nacute" unicode="&#x144;" horiz-adv-x="569" 
d="M207 519q-17 11 -22 31l139 136q36 -19 52 -67zM288 485q104 0 157.5 -54.5t53.5 -137.5v-293q-17 -4 -41 -4q-21 0 -40 4v265q0 76 -34 110.5t-104 34.5q-71 0 -127 -33v-377q-17 -4 -41 -4q-21 0 -40 4v413q37 31 95 51.5t121 20.5z" />
    <glyph glyph-name="Ncommaaccent" unicode="&#x145;" horiz-adv-x="685" 
d="M556 647q17 0 39 -5v-636q-30 -9 -71 -9l-341 482l-16 32v-511q-17 -5 -38 -5t-39 5v634q36 19 72 11l340 -476l17 -29l-1 44v458q25 5 38 5zM348 -36q22 0 36 -7q4 -19 4 -40q0 -37 -20.5 -71t-57.5 -55q-19 5 -26 27q31 28 31 84q0 29 -9 54q16 8 42 8z" />
    <glyph glyph-name="ncommaaccent" unicode="&#x146;" horiz-adv-x="569" 
d="M288 485q104 0 157.5 -54.5t53.5 -137.5v-293q-17 -4 -41 -4q-21 0 -40 4v265q0 76 -34 110.5t-104 34.5q-71 0 -127 -33v-377q-17 -4 -41 -4q-21 0 -40 4v413q37 31 95 51.5t121 20.5zM287 -36q22 0 36 -7q4 -19 4 -40q0 -37 -20.5 -71t-57.5 -55q-19 5 -26 27
q31 28 31 84q0 29 -9 54q16 8 42 8z" />
    <glyph glyph-name="Ncaron" unicode="&#x147;" horiz-adv-x="685" 
d="M372 687q-28 -7 -56 0l-103 83q5 25 27 42l108 -62l101 62q22 -15 26 -41zM556 647q17 0 39 -5v-636q-30 -9 -71 -9l-341 482l-16 32v-511q-17 -5 -38 -5t-39 5v634q36 19 72 11l340 -476l17 -29l-1 44v458q25 5 38 5z" />
    <glyph glyph-name="ncaron" unicode="&#x148;" horiz-adv-x="569" 
d="M308 532q-27 -6 -56 0l-98 99q9 34 38 46l90 -74l92 74q28 -12 39 -43zM288 485q104 0 157.5 -54.5t53.5 -137.5v-293q-17 -4 -41 -4q-21 0 -40 4v265q0 76 -34 110.5t-104 34.5q-71 0 -127 -33v-377q-17 -4 -41 -4q-21 0 -40 4v413q37 31 95 51.5t121 20.5z" />
    <glyph glyph-name="napostrophe" unicode="&#x149;" horiz-adv-x="597" 
d="M147 626q0 -53 -26.5 -95.5t-58.5 -67.5q-9 1 -18.5 8t-10.5 16q32 33 32 113q0 46 -12 71q21 7 47 7t40 -6q7 -14 7 -46zM288 485q104 0 157.5 -54.5t53.5 -137.5v-293q-17 -4 -41 -4q-21 0 -40 4v265q0 76 -34 110.5t-104 34.5q-71 0 -127 -33v-377q-17 -4 -41 -4
q-21 0 -40 4v413q37 31 95 51.5t121 20.5z" />
    <glyph glyph-name="Eng" unicode="&#x14a;" horiz-adv-x="685" 
d="M556 647q17 0 39 -5v-659q0 -90 -50 -134.5t-128 -44.5q-85 0 -134 61q15 39 51 52q41 -44 83 -44q49 0 74.5 25.5t25.5 85.5v23l-334 472l-16 32v-511q-17 -5 -38 -5t-39 5v634q36 19 72 11l340 -476l17 -29l-1 44v458q25 5 38 5z" />
    <glyph glyph-name="eng" unicode="&#x14b;" horiz-adv-x="568" 
d="M288 485q103 0 156.5 -55t53.5 -137v-324q0 -81 -48.5 -123.5t-114.5 -42.5q-71 0 -113 42q16 39 45 55q31 -29 68 -29q38 0 60.5 24.5t22.5 74.5v295q0 143 -142 143q-67 0 -124 -38v-370q-17 -4 -40 -4q-21 0 -40 4v407q37 34 94.5 56t121.5 22z" />
    <glyph glyph-name="Omacron" unicode="&#x14c;" horiz-adv-x="736" 
d="M235 713q-4 24 -4 34q0 11 4 33h266q4 -15 4 -33t-4 -34h-266zM368 -15q-139 0 -229.5 96t-90.5 241q0 144 91 241t229 97q139 0 229.5 -95.5t90.5 -242.5q0 -142 -91 -239.5t-229 -97.5zM368 60q106 0 170.5 73.5t64.5 188.5q0 117 -64.5 190t-170.5 73t-170.5 -73
t-64.5 -190q0 -115 64.5 -188.5t170.5 -73.5z" />
    <glyph glyph-name="omacron" unicode="&#x14d;" horiz-adv-x="574" 
d="M160 562q-5 15 -5 34t5 33h256q4 -15 4 -33t-4 -34h-256zM284 -13q-105 0 -172.5 71t-67.5 178q0 106 70.5 178t175.5 72t172.5 -71.5t67.5 -178.5q0 -106 -70.5 -177.5t-175.5 -71.5zM287 62q73 0 117 48.5t44 125.5q0 78 -44 126.5t-117 48.5t-117 -48.5t-44 -126.5
q0 -77 44 -125.5t117 -48.5z" />
    <glyph glyph-name="Ohungarumlaut" unicode="&#x150;" horiz-adv-x="736" 
d="M257 668q-21 11 -26 27l101 130q44 -9 58 -57zM411 668q-21 11 -26 27l101 130q44 -9 58 -57zM368 -15q-139 0 -229.5 96t-90.5 241q0 144 91 241t229 97q139 0 229.5 -95.5t90.5 -242.5q0 -142 -91 -239.5t-229 -97.5zM368 60q106 0 170.5 73.5t64.5 188.5
q0 117 -64.5 190t-170.5 73t-170.5 -73t-64.5 -190q0 -115 64.5 -188.5t170.5 -73.5z" />
    <glyph glyph-name="ohungarumlaut" unicode="&#x151;" horiz-adv-x="574" 
d="M193 520q-23 7 -31 21l72 148q41 -6 68 -43zM338 520q-23 7 -31 21l72 148q41 -6 68 -43zM284 -13q-105 0 -172.5 71t-67.5 178q0 106 70.5 178t175.5 72t172.5 -71.5t67.5 -178.5q0 -106 -70.5 -177.5t-175.5 -71.5zM287 62q73 0 117 48.5t44 125.5q0 78 -44 126.5
t-117 48.5t-117 -48.5t-44 -126.5q0 -77 44 -125.5t117 -48.5z" />
    <glyph glyph-name="OE" unicode="&#x152;" horiz-adv-x="901" 
d="M856 39q0 -17 -5 -39h-380q-47 -9 -97 -9q-147 0 -236 90t-89 240q0 140 91.5 233t233.5 93q58 0 95 -5h372q5 -22 5 -39q0 -16 -5 -38h-290v-196h255q5 -22 5 -38q0 -17 -5 -39h-255v-215h300q5 -22 5 -38zM137 321q0 -112 63.5 -182.5t173.5 -70.5q53 0 94 10v481
q-40 10 -94 10q-106 0 -171.5 -70.5t-65.5 -177.5z" />
    <glyph glyph-name="oe" unicode="&#x153;" horiz-adv-x="900" 
d="M856 276q0 -37 -2 -64h-337q5 -69 44.5 -110.5t105.5 -41.5q73 0 134 50q30 -17 42 -60q-77 -64 -176 -64q-133 0 -195 103q-32 -48 -82.5 -75.5t-109.5 -27.5q-102 0 -169 70.5t-67 178.5q0 103 68.5 176.5t167.5 73.5q62 0 113 -28t82 -78q29 50 76 78t102 28
q89 0 146 -58.5t57 -150.5zM518 279h258q0 52 -31.5 93t-93.5 41q-55 0 -90.5 -40.5t-42.5 -93.5zM280 61q70 0 113.5 48.5t43.5 125.5t-44 126t-113 49q-68 0 -111.5 -49t-43.5 -126t43 -125.5t112 -48.5z" />
    <glyph glyph-name="Racute" unicode="&#x154;" horiz-adv-x="583" 
d="M194 673q-14 11 -17 33l161 114q41 -24 42 -74zM386 268l163 -262q-27 -8 -56 -8q-26 0 -35 2l-154 251q-7 -1 -21 -1q-62 0 -113 4v-254q-18 -5 -41 -5t-40 5v632q90 21 194 21q119 0 179 -51t60 -142q0 -71 -37 -120t-99 -72zM170 328q39 -5 113 -5q81 0 119.5 36.5
t38.5 98.5q0 123 -159 123q-58 0 -112 -9v-244z" />
    <glyph glyph-name="racute" unicode="&#x155;" horiz-adv-x="375" 
d="M150 519q-17 11 -22 31l139 136q36 -19 52 -67zM363 469q3 -40 -20 -70q-37 10 -86 10q-64 0 -103 -24v-385q-17 -4 -41 -4q-22 0 -41 4v421q32 27 83.5 45.5t106.5 18.5q54 0 101 -16z" />
    <glyph glyph-name="Rcommaaccent" unicode="&#x156;" horiz-adv-x="583" 
d="M386 268l163 -262q-27 -8 -56 -8q-26 0 -35 2l-154 251q-7 -1 -21 -1q-62 0 -113 4v-254q-18 -5 -41 -5t-40 5v632q90 21 194 21q119 0 179 -51t60 -142q0 -71 -37 -120t-99 -72zM170 328q39 -5 113 -5q81 0 119.5 36.5t38.5 98.5q0 123 -159 123q-58 0 -112 -9v-244z
M285 -36q22 0 36 -7q4 -19 4 -40q0 -37 -20.5 -71t-57.5 -55q-19 5 -26 27q31 28 31 84q0 29 -9 54q16 8 42 8z" />
    <glyph glyph-name="rcommaaccent" unicode="&#x157;" horiz-adv-x="375" 
d="M363 469q3 -40 -20 -70q-37 10 -86 10q-64 0 -103 -24v-385q-17 -4 -41 -4q-22 0 -41 4v421q32 27 83.5 45.5t106.5 18.5q54 0 101 -16zM111 -36q22 0 36 -7q4 -19 4 -40q0 -37 -20.5 -71t-57.5 -55q-19 5 -26 27q31 28 31 84q0 29 -9 54q16 8 42 8z" />
    <glyph glyph-name="Rcaron" unicode="&#x158;" horiz-adv-x="583" 
d="M308 687q-28 -7 -56 0l-103 83q5 25 27 42l108 -62l101 62q22 -15 26 -41zM386 268l163 -262q-27 -8 -56 -8q-26 0 -35 2l-154 251q-7 -1 -21 -1q-62 0 -113 4v-254q-18 -5 -41 -5t-40 5v632q90 21 194 21q119 0 179 -51t60 -142q0 -71 -37 -120t-99 -72zM170 328
q39 -5 113 -5q81 0 119.5 36.5t38.5 98.5q0 123 -159 123q-58 0 -112 -9v-244z" />
    <glyph glyph-name="rcaron" unicode="&#x159;" horiz-adv-x="375" 
d="M251 532q-27 -6 -56 0l-98 99q9 34 38 46l90 -74l92 74q28 -12 39 -43zM363 469q3 -40 -20 -70q-37 10 -86 10q-64 0 -103 -24v-385q-17 -4 -41 -4q-22 0 -41 4v421q32 27 83.5 45.5t106.5 18.5q54 0 101 -16z" />
    <glyph glyph-name="Sacute" unicode="&#x15a;" horiz-adv-x="525" 
d="M177 673q-14 11 -17 33l161 114q41 -24 42 -74zM251 -16q-135 0 -213 82q11 38 50 61q66 -68 163 -68q72 0 109.5 31.5t37.5 83.5q0 42 -31 71t-117 49q-42 10 -73 22.5t-60 34t-44.5 54.5t-15.5 78q0 76 57 125.5t149 49.5q121 0 205 -63q-1 -18 -14.5 -37.5
t-28.5 -27.5q-74 53 -162 53q-57 0 -91.5 -27.5t-34.5 -67.5q0 -41 27.5 -65.5t102.5 -43.5q106 -26 159 -71.5t53 -131.5q0 -90 -61.5 -141t-166.5 -51z" />
    <glyph glyph-name="sacute" unicode="&#x15b;" horiz-adv-x="459" 
d="M154 519q-17 11 -22 31l139 136q36 -19 52 -67zM221 -14q-120 0 -182 59q15 40 46 58q56 -46 136 -46q60 0 89 20t29 53q0 30 -27 48t-93 26q-169 20 -169 139q0 62 51 102t139 40q108 0 165 -47q-8 -37 -35 -61q-60 37 -139 37q-102 0 -102 -62q0 -29 22.5 -45t84.5 -25
q182 -24 182 -141q0 -73 -52.5 -114t-144.5 -41z" />
    <glyph glyph-name="Scedilla" unicode="&#x15e;" horiz-adv-x="525" 
d="M479 176q0 -82 -51.5 -132t-141.5 -58l-9 -24q68 -15 68 -66q0 -32 -20.5 -52.5t-43.5 -26.5t-49 -6q-45 0 -68 16q3 28 21 48q24 -13 46 -13q42 0 42 28q0 32 -66 34l23 61q-121 6 -192 81q11 38 50 61q66 -68 163 -68q72 0 109.5 31.5t37.5 83.5q0 42 -31 71t-117 49
q-42 10 -73 22.5t-60 34t-44.5 54.5t-15.5 78q0 76 57 125.5t149 49.5q121 0 205 -63q-1 -18 -14.5 -37.5t-28.5 -27.5q-74 53 -162 53q-57 0 -91.5 -27.5t-34.5 -67.5q0 -41 27.5 -65.5t102.5 -43.5q106 -26 159 -71.5t53 -131.5z" />
    <glyph glyph-name="scedilla" unicode="&#x15f;" horiz-adv-x="459" 
d="M418 141q0 -64 -41.5 -104t-115.5 -49l-10 -26q68 -15 68 -66q0 -32 -20.5 -52.5t-43.5 -26.5t-49 -6q-45 0 -68 16q3 28 21 48q24 -13 46 -13q42 0 42 28q0 32 -66 34l24 62q-109 5 -166 59q15 40 46 58q56 -46 136 -46q60 0 89 20t29 53q0 30 -27 48t-93 26
q-169 20 -169 139q0 62 51 102t139 40q108 0 165 -47q-8 -37 -35 -61q-60 37 -139 37q-102 0 -102 -62q0 -29 22.5 -45t84.5 -25q182 -24 182 -141z" />
    <glyph glyph-name="Scaron" unicode="&#x160;" horiz-adv-x="525" 
d="M235 687l-103 83q5 25 27 42l108 -62l101 62q22 -15 26 -41l-103 -84q-28 -7 -56 0zM251 -16q-135 0 -213 82q11 38 50 61q66 -68 163 -68q72 0 109.5 31.5t37.5 83.5q0 42 -31 71t-117 49q-42 10 -73 22.5t-60 34t-44.5 54.5t-15.5 78q0 76 57 125.5t149 49.5
q121 0 205 -63q-1 -18 -14.5 -37.5t-28.5 -27.5q-74 53 -162 53q-57 0 -91.5 -27.5t-34.5 -67.5q0 -41 27.5 -65.5t102.5 -43.5q106 -26 159 -71.5t53 -131.5q0 -90 -61.5 -141t-166.5 -51z" />
    <glyph glyph-name="scaron" unicode="&#x161;" horiz-adv-x="459" 
d="M199 532l-98 99q9 34 38 46l90 -74l92 74q28 -12 39 -43l-105 -102q-27 -6 -56 0zM221 -14q-120 0 -182 59q15 40 46 58q56 -46 136 -46q60 0 89 20t29 53q0 30 -27 48t-93 26q-169 20 -169 139q0 62 51 102t139 40q108 0 165 -47q-8 -37 -35 -61q-60 37 -139 37
q-102 0 -102 -62q0 -29 22.5 -45t84.5 -25q182 -24 182 -141q0 -73 -52.5 -114t-144.5 -41z" />
    <glyph glyph-name="uni0162" unicode="&#x162;" horiz-adv-x="532" 
d="M307 -1l-14 -3l-13 -34q68 -15 68 -66q0 -32 -20.5 -52.5t-43.5 -26.5t-49 -6q-45 0 -68 16q3 28 21 48q24 -13 46 -13q42 0 42 28q0 32 -66 34l28 73q-4 0 -12 2v569h-205q-5 22 -5 37t5 37h490q5 -22 5 -37t-5 -37h-204v-569z" />
    <glyph glyph-name="uni0163" unicode="&#x163;" horiz-adv-x="409" 
d="M262 -38q68 -15 68 -66q0 -32 -20.5 -52.5t-43.5 -26.5t-49 -6q-45 0 -68 16q3 28 21 48q24 -13 46 -13q42 0 42 28q0 32 -66 34l26 68q-113 25 -113 153v257h-81q-4 16 -4 33t4 32h81v127q17 4 40 4q22 0 39 -4v-127h187q4 -15 4 -32t-4 -33h-187v-241q0 -59 24 -81
t67 -22q48 0 90 36q29 -20 36 -57q-53 -49 -130 -50z" />
    <glyph glyph-name="Tcaron" unicode="&#x164;" horiz-adv-x="532" 
d="M295 687q-28 -7 -56 0l-103 83q5 25 27 42l108 -62l101 62q22 -15 26 -41zM516 605q0 -15 -5 -37h-204v-569q-23 -5 -41 -5q-17 0 -40 5v569h-205q-5 22 -5 37t5 37h490q5 -22 5 -37z" />
    <glyph glyph-name="tcaron" unicode="&#x165;" horiz-adv-x="409" 
d="M301 529q-21 4 -31 19q16 35 16 94q0 36 -9 58q14 9 40 9q21 0 35 -8q5 -15 5 -35q0 -83 -56 -137zM365 94q29 -20 36 -57q-54 -50 -132 -50q-76 0 -120 38.5t-44 119.5v257h-81q-4 16 -4 33t4 32h81v127q17 4 40 4q22 0 39 -4v-127h187q4 -15 4 -32t-4 -33h-187v-241
q0 -59 24 -81t67 -22q48 0 90 36z" />
    <glyph glyph-name="Tbar" unicode="&#x166;" horiz-adv-x="532" 
d="M511 568h-204v-212h96q6 -15 6 -35q0 -17 -6 -36h-96v-286q-23 -5 -41 -5q-17 0 -40 5v286h-101q-5 18 -5 35q0 16 5 36h101v212h-205q-5 22 -5 37t5 37h490q5 -22 5 -37t-5 -37z" />
    <glyph glyph-name="tbar" unicode="&#x167;" horiz-adv-x="409" 
d="M365 94q29 -20 36 -57q-54 -50 -132 -50q-76 0 -120 38.5t-44 119.5v97h-57q-5 18 -5 32q0 15 5 33h57v95h-81q-4 16 -4 33t4 32h81v127q17 4 40 4q22 0 39 -4v-127h187q4 -15 4 -32t-4 -33h-187v-95h117q5 -17 5 -32q0 -13 -5 -33h-117v-81q0 -59 24 -81t67 -22
q48 0 90 36z" />
    <glyph glyph-name="Utilde" unicode="&#x168;" horiz-adv-x="674" 
d="M234 686q-40 0 -61 21q11 43 39.5 66.5t66.5 23.5q27 0 70 -19t56 -19q38 0 48 42q41 0 60 -21q-11 -42 -39 -66t-64 -24q-27 0 -70 18.5t-56 18.5q-40 0 -50 -41zM338 -16q-116 0 -186 70t-70 197v391q25 5 41 5q19 0 42 -5v-391q0 -86 44.5 -137.5t128.5 -51.5
q85 0 129.5 51.5t44.5 137.5v391q25 5 42 5q18 0 38 -5v-391q0 -128 -68.5 -197.5t-185.5 -69.5z" />
    <glyph glyph-name="utilde" unicode="&#x169;" horiz-adv-x="560" 
d="M221 592q-36 0 -49 -44q-41 0 -62 21q11 43 38.5 67t65.5 24q28 -1 71 -20.5t57 -19.5q36 0 49 43q36 0 59 -21q-11 -42 -38 -65.5t-63 -23.5q-27 0 -71 19.5t-57 19.5zM447 474q23 0 40 -4v-438q-105 -46 -217 -46q-98 0 -149 49t-51 136v299q19 4 41 4q23 0 40 -4v-266
q0 -74 28 -108.5t110 -34.5q60 0 117 21v388q19 4 41 4z" />
    <glyph glyph-name="Umacron" unicode="&#x16a;" horiz-adv-x="674" 
d="M210 713q-4 24 -4 34q0 11 4 33h266q4 -15 4 -33t-4 -34h-266zM338 -16q-116 0 -186 70t-70 197v391q25 5 41 5q19 0 42 -5v-391q0 -86 44.5 -137.5t128.5 -51.5q85 0 129.5 51.5t44.5 137.5v391q25 5 42 5q18 0 38 -5v-391q0 -128 -68.5 -197.5t-185.5 -69.5z" />
    <glyph glyph-name="umacron" unicode="&#x16b;" horiz-adv-x="560" 
d="M409 562h-256q-5 15 -5 34t5 33h256q4 -15 4 -33t-4 -34zM447 474q23 0 40 -4v-438q-105 -46 -217 -46q-98 0 -149 49t-51 136v299q19 4 41 4q23 0 40 -4v-266q0 -74 28 -108.5t110 -34.5q60 0 117 21v388q19 4 41 4z" />
    <glyph glyph-name="Uring" unicode="&#x16e;" horiz-adv-x="674" 
d="M344 656q-40 0 -68 28t-28 68t28 68t68 28q39 0 67 -28t28 -68t-28 -68t-67 -28zM344 710q17 0 28 12.5t11 29.5q0 18 -11 30.5t-28 12.5q-18 0 -29.5 -12.5t-11.5 -30.5q0 -17 11.5 -29.5t29.5 -12.5zM338 -16q-116 0 -186 70t-70 197v391q25 5 41 5q19 0 42 -5v-391
q0 -86 44.5 -137.5t128.5 -51.5q85 0 129.5 51.5t44.5 137.5v391q25 5 42 5q18 0 38 -5v-391q0 -128 -68.5 -197.5t-185.5 -69.5z" />
    <glyph glyph-name="uring" unicode="&#x16f;" horiz-adv-x="560" 
d="M281 505q-40 0 -68 28t-28 68t28 68t68 28q39 0 67 -28t28 -68t-28 -68t-67 -28zM281 645q-18 0 -30 -13t-12 -31t12 -30.5t30 -12.5t30 12.5t12 30.5t-12 31t-30 13zM447 474q23 0 40 -4v-438q-105 -46 -217 -46q-98 0 -149 49t-51 136v299q19 4 41 4q23 0 40 -4v-266
q0 -74 28 -108.5t110 -34.5q60 0 117 21v388q19 4 41 4z" />
    <glyph glyph-name="Uhungarumlaut" unicode="&#x170;" horiz-adv-x="674" 
d="M232 668q-21 11 -26 27l101 130q44 -9 58 -57zM386 668q-21 11 -26 27l101 130q44 -9 58 -57zM338 -16q-116 0 -186 70t-70 197v391q25 5 41 5q19 0 42 -5v-391q0 -86 44.5 -137.5t128.5 -51.5q85 0 129.5 51.5t44.5 137.5v391q25 5 42 5q18 0 38 -5v-391
q0 -128 -68.5 -197.5t-185.5 -69.5z" />
    <glyph glyph-name="uhungarumlaut" unicode="&#x171;" horiz-adv-x="560" 
d="M186 520q-23 7 -31 21l72 148q41 -6 68 -43zM331 520q-23 7 -31 21l72 148q41 -6 68 -43zM447 474q23 0 40 -4v-438q-105 -46 -217 -46q-98 0 -149 49t-51 136v299q19 4 41 4q23 0 40 -4v-266q0 -74 28 -108.5t110 -34.5q60 0 117 21v388q19 4 41 4z" />
    <glyph glyph-name="Uogonek" unicode="&#x172;" horiz-adv-x="674" 
d="M554 647q18 0 38 -5v-391q0 -174 -123 -238q-66 -62 -66 -103q0 -30 32 -30q28 0 52 19q29 -19 29 -53q-38 -36 -107 -36q-36 0 -60 21t-24 55q0 48 46 100q-20 -2 -33 -2q-116 0 -186 70t-70 197v391q25 5 41 5q19 0 42 -5v-391q0 -86 44.5 -137.5t128.5 -51.5
q85 0 129.5 51.5t44.5 137.5v391q25 5 42 5z" />
    <glyph glyph-name="uogonek" unicode="&#x173;" horiz-adv-x="560" 
d="M484 -101q29 -19 29 -53q-38 -36 -107 -36q-36 0 -60 21t-24 55q0 53 57 110q-53 -10 -109 -10q-98 0 -149 49t-51 136v299q19 4 41 4q23 0 40 -4v-266q0 -74 28 -108.5t110 -34.5q60 0 117 21v388q19 4 41 4q23 0 40 -4v-438q-35 -29 -61 -63.5t-26 -58.5q0 -30 32 -30
q28 0 52 19z" />
    <glyph glyph-name="Wcircumflex" unicode="&#x174;" horiz-adv-x="899" 
d="M352 680q-20 14 -26 41l103 84q28 7 56 0l103 -83q-5 -24 -27 -42l-108 62zM829 649q24 0 47 -10q-80 -359 -196 -638q-21 -6 -46 -6q-22 0 -43 6l-118 406l-17 73l-20 -75l-136 -403q-21 -6 -43 -6q-27 0 -48 6q-100 255 -176 638q27 10 52 10q20 0 36 -4
q42 -279 136 -558l16 64l143 432q16 5 41 5q22 0 40 -5l130 -432l15 -64q99 275 152 557q17 4 35 4z" />
    <glyph glyph-name="wcircumflex" unicode="&#x175;" horiz-adv-x="736" 
d="M273 527q-27 11 -38 42l102 102q27 6 56 0l101 -100q-11 -33 -40 -45l-92 74zM666 473q30 0 50 -6q-32 -126 -80.5 -251t-101.5 -216q-16 -4 -41 -4q-21 0 -37 4q-44 89 -89 214q-32 -114 -85 -214q-16 -4 -44 -4q-22 0 -38 4q-110 199 -178 467q19 6 52 6q12 0 32 -2
q53 -213 135 -391l2 -8l2 4t1 4q54 119 88 239q-15 48 -43 148q19 6 52 6q12 0 32 -2q60 -248 124 -391l2 -8q1 2 2 4.5t1 3.5q82 180 132 391q20 2 30 2z" />
    <glyph glyph-name="Ycircumflex" unicode="&#x176;" horiz-adv-x="578" 
d="M183 680q-20 14 -26 41l103 84q28 7 56 0l103 -83q-5 -24 -27 -42l-108 62zM517 648q23 0 45 -8l-232 -394v-246q-23 -5 -42 -5q-16 0 -39 5v249l-235 391q26 8 50 8t38 -3l175 -293l16 -35l16 35l169 293q13 3 39 3z" />
    <glyph glyph-name="ycircumflex" unicode="&#x177;" horiz-adv-x="503" 
d="M164 527q-27 11 -38 42l102 102q27 6 56 0l101 -100q-11 -33 -40 -45l-92 74zM434 474q24 0 49 -10q-59 -226 -135.5 -376.5t-206.5 -292.5q-40 7 -57 49q83 91 127 165q-120 199 -189 458q22 7 50 7q18 0 36 -3q50 -191 144 -379l8 -15l3.5 7l3.5 7q79 152 134 380
q16 3 33 3z" />
    <glyph glyph-name="Ydieresis" unicode="&#x178;" horiz-adv-x="578" 
d="M194 696q-23 0 -38 15t-15 37t15 36.5t38 14.5q21 0 35.5 -14.5t14.5 -36.5t-14.5 -37t-35.5 -15zM383 696q-22 0 -37 15t-15 37t15 36.5t37 14.5q21 0 36 -14.5t15 -36.5t-15 -37t-36 -15zM517 648q23 0 45 -8l-232 -394v-246q-23 -5 -42 -5q-16 0 -39 5v249l-235 391
q26 8 50 8t38 -3l175 -293l16 -35l16 35l169 293q13 3 39 3z" />
    <glyph glyph-name="Zacute" unicode="&#x179;" horiz-adv-x="567" 
d="M197 673q-14 11 -17 33l161 114q41 -24 42 -74zM528 71q5 -18 5 -34q0 -21 -5 -37h-484q-5 22 -5 39q0 32 27 66l348 449l14 17l-383 -1q-5 19 -5 35q0 21 5 37h473q4 -17 4 -39q0 -33 -26 -66l-343 -442l-19 -24h394z" />
    <glyph glyph-name="zacute" unicode="&#x17a;" horiz-adv-x="464" 
d="M156 519q-17 11 -22 31l139 136q36 -19 52 -67zM425 68q5 -13 5 -33t-5 -35h-378q-7 20 -7 38q0 38 35 78l240 270l16 16h-283q-4 24 -4 34q0 12 4 34h362q5 -17 5 -33q0 -44 -34 -83l-240 -274l-12 -12h296z" />
    <glyph glyph-name="Zdotaccent" unicode="&#x17b;" horiz-adv-x="567" 
d="M283 694q-23 0 -39.5 16t-16.5 39t16 39t40 16q23 0 38.5 -16t15.5 -39t-15.5 -39t-38.5 -16zM528 71q5 -18 5 -34q0 -21 -5 -37h-484q-5 22 -5 39q0 32 27 66l348 449l14 17l-383 -1q-5 19 -5 35q0 21 5 37h473q4 -17 4 -39q0 -33 -26 -66l-343 -442l-19 -24h394z" />
    <glyph glyph-name="zdotaccent" unicode="&#x17c;" horiz-adv-x="464" 
d="M230 551q-24 0 -41 16.5t-17 40.5t16.5 40.5t41.5 16.5q23 0 39.5 -16.5t16.5 -40.5t-16.5 -40.5t-39.5 -16.5zM425 68q5 -13 5 -33t-5 -35h-378q-7 20 -7 38q0 38 35 78l240 270l16 16h-283q-4 24 -4 34q0 12 4 34h362q5 -17 5 -33q0 -44 -34 -83l-240 -274l-12 -12h296
z" />
    <glyph glyph-name="Zcaron" unicode="&#x17d;" horiz-adv-x="567" 
d="M311 687q-28 -7 -56 0l-103 83q5 25 27 42l108 -62l101 62q22 -15 26 -41zM528 71q5 -18 5 -34q0 -21 -5 -37h-484q-5 22 -5 39q0 32 27 66l348 449l14 17l-383 -1q-5 19 -5 35q0 21 5 37h473q4 -17 4 -39q0 -33 -26 -66l-343 -442l-19 -24h394z" />
    <glyph glyph-name="zcaron" unicode="&#x17e;" horiz-adv-x="464" 
d="M257 532q-27 -6 -56 0l-98 99q9 34 38 46l90 -74l92 74q28 -12 39 -43zM425 68q5 -13 5 -33t-5 -35h-378q-7 20 -7 38q0 38 35 78l240 270l16 16h-283q-4 24 -4 34q0 12 4 34h362q5 -17 5 -33q0 -44 -34 -83l-240 -274l-12 -12h296z" />
    <glyph glyph-name="uni01EA" unicode="&#x1ea;" horiz-adv-x="736" 
d="M518 22q-75 -69 -75 -112q0 -30 32 -30q28 0 52 19q29 -19 29 -53q-38 -36 -107 -36q-36 0 -60 21t-24 55q0 51 49 102q-22 -3 -46 -3q-139 0 -229.5 96t-90.5 241q0 144 91 241t229 97q139 0 229.5 -95.5t90.5 -242.5q0 -98 -45.5 -178t-124.5 -122zM133 322
q0 -115 64.5 -188.5t170.5 -73.5t170.5 73.5t64.5 188.5q0 117 -64.5 190t-170.5 73t-170.5 -73t-64.5 -190z" />
    <glyph glyph-name="uni01EB" unicode="&#x1eb;" horiz-adv-x="574" 
d="M417 24q-78 -70 -78 -114q0 -30 32 -30q28 0 52 19q29 -19 29 -53q-38 -36 -107 -36q-36 0 -60 21t-24 55q0 51 49 102q-9 -1 -26 -1q-105 0 -172.5 71t-67.5 178q0 106 70.5 178t175.5 72t172.5 -71.5t67.5 -178.5q0 -67 -30.5 -123t-82.5 -89zM126 236q0 -77 44 -125.5
t117 -48.5t117 48.5t44 125.5q0 78 -44 126.5t-117 48.5t-117 -48.5t-44 -126.5z" />
    <glyph glyph-name="AEacute" unicode="&#x1fc;" horiz-adv-x="816" 
d="M405 673q-14 11 -17 33l161 114q41 -24 42 -74zM767 76q5 -22 5 -37q0 -17 -5 -39h-364v255h-173l-147 -255q-17 -4 -36 -4q-24 0 -50 11l365 635h392q5 -22 5 -39q0 -15 -5 -37h-270v-236h240q5 -22 5 -37q0 -16 -5 -38h-240v-179h283zM273 330h130v173l3 64l-34 -66z
" />
    <glyph glyph-name="aeacute" unicode="&#x1fd;" horiz-adv-x="801" 
d="M334 519q-17 11 -22 31l139 136q36 -19 52 -67zM204 -14q-78 0 -122.5 40t-44.5 109q0 67 52 105.5t141 39.5l119 1v33q0 48 -33.5 71.5t-90.5 23.5q-68 0 -127 -47q-29 18 -42 56q25 26 73.5 46.5t99.5 20.5q140 0 177 -94q24 42 67.5 68t93.5 26q87 0 138 -61t51 -160
q0 -24 -3 -51h-323v-1q4 -66 42 -109t98 -43q35 0 65 10t41 17.5t30 22.5q32 -17 43 -60q-79 -64 -179 -64q-137 0 -188 108q-27 -51 -73 -79.5t-105 -28.5zM431 281h243q0 52 -25.5 91.5t-78.5 39.5q-60 0 -96 -39t-43 -92zM209 57q57 0 98.5 39t41.5 117l-119 -1
q-110 -1 -110 -77q0 -37 24.5 -57.5t64.5 -20.5z" />
    <glyph glyph-name="Oslashacute" unicode="&#x1fe;" horiz-adv-x="736" 
d="M283 673q-14 11 -17 33l161 114q41 -24 42 -74zM618 540q70 -92 70 -218q0 -142 -91 -239.5t-229 -97.5q-113 0 -198 67l-67 -73q-41 13 -53 52l68 74q-70 91 -70 217q0 144 91 241t229 97q115 0 200 -68l65 70q39 -13 54 -47zM133 322q0 -89 41 -157l341 370
q-61 50 -147 50q-106 0 -170.5 -73t-64.5 -190zM368 60q106 0 170.5 73.5t64.5 188.5q0 93 -41 157l-339 -370q60 -49 145 -49z" />
    <glyph glyph-name="oslashacute" unicode="&#x1ff;" horiz-adv-x="578" 
d="M215 519q-17 11 -22 31l139 136q36 -19 52 -67zM477 400q55 -69 55 -164q0 -106 -70.5 -177.5t-175.5 -71.5q-79 0 -140 43l-54 -60q-33 11 -44 45l53 58q-55 68 -55 163q0 106 70.5 178t175.5 72q81 0 142 -45l53 59q32 -11 44 -40zM128 236q0 -61 27 -103l227 251
q-40 27 -93 27q-73 0 -117 -48.5t-44 -126.5zM289 62q73 0 117 48.5t44 125.5q0 60 -27 104l-225 -252q38 -26 91 -26z" />
    <glyph glyph-name="Scommaaccent" unicode="&#x218;" horiz-adv-x="525" 
d="M251 -16q-135 0 -213 82q11 38 50 61q66 -68 163 -68q72 0 109.5 31.5t37.5 83.5q0 42 -31 71t-117 49q-42 10 -73 22.5t-60 34t-44.5 54.5t-15.5 78q0 76 57 125.5t149 49.5q121 0 205 -63q-1 -18 -14.5 -37.5t-28.5 -27.5q-74 53 -162 53q-57 0 -91.5 -27.5
t-34.5 -67.5q0 -41 27.5 -65.5t102.5 -43.5q106 -26 159 -71.5t53 -131.5q0 -90 -61.5 -141t-166.5 -51zM231 -209q-19 5 -26 27q31 28 31 84q0 29 -9 54q16 8 42 8q22 0 36 -7q4 -19 4 -40q0 -37 -20.5 -71t-57.5 -55z" />
    <glyph glyph-name="scommaaccent" unicode="&#x219;" horiz-adv-x="459" 
d="M221 -14q-120 0 -182 59q15 40 46 58q56 -46 136 -46q60 0 89 20t29 53q0 30 -27 48t-93 26q-169 20 -169 139q0 62 51 102t139 40q108 0 165 -47q-8 -37 -35 -61q-60 37 -139 37q-102 0 -102 -62q0 -29 22.5 -45t84.5 -25q182 -24 182 -141q0 -73 -52.5 -114t-144.5 -41
zM205 -209q-19 5 -26 27q31 28 31 84q0 29 -9 54q16 8 42 8q22 0 36 -7q4 -19 4 -40q0 -37 -20.5 -71t-57.5 -55z" />
    <glyph glyph-name="uni021A" unicode="&#x21a;" horiz-adv-x="532" 
d="M511 642q5 -22 5 -37t-5 -37h-204v-569q-23 -5 -41 -5q-17 0 -40 5v569h-205q-5 22 -5 37t5 37h490zM272 -36q22 0 36 -7q4 -19 4 -40q0 -37 -20.5 -71t-57.5 -55q-19 5 -26 27q31 28 31 84q0 29 -9 54q16 8 42 8z" />
    <glyph glyph-name="uni021B" unicode="&#x21b;" horiz-adv-x="409" 
d="M401 37q-54 -50 -132 -50q-76 0 -120 38.5t-44 119.5v257h-81q-4 16 -4 33t4 32h81v127q17 4 40 4q22 0 39 -4v-127h187q4 -15 4 -32t-4 -33h-187v-241q0 -59 24 -81t67 -22q48 0 90 36q29 -20 36 -57zM254 -36q22 0 36 -7q4 -19 4 -40q0 -37 -20.5 -71t-57.5 -55
q-19 5 -26 27q31 28 31 84q0 29 -9 54q16 8 42 8z" />
    <glyph glyph-name="circumflex" unicode="&#x2c6;" horiz-adv-x="290" 
d="M177 671l101 -100q-11 -33 -40 -45l-92 74l-89 -73q-27 11 -38 42l102 102q27 6 56 0z" />
    <glyph glyph-name="caron" unicode="&#x2c7;" horiz-adv-x="290" 
d="M120 532l-98 99q9 34 38 46l90 -74l92 74q28 -12 39 -43l-105 -102q-27 -6 -56 0z" />
    <glyph glyph-name="breve" unicode="&#x2d8;" horiz-adv-x="305" 
d="M151 530q-67 0 -100.5 38.5t-33.5 94.5q26 11 58 6q10 -78 78 -78q69 0 74 78q32 5 58 -6q0 -54 -34 -93.5t-100 -39.5z" />
    <glyph glyph-name="dotaccent" unicode="&#x2d9;" horiz-adv-x="194" 
d="M98 551q-24 0 -41 16.5t-17 40.5t16.5 40.5t41.5 16.5q23 0 39.5 -16.5t16.5 -40.5t-16.5 -40.5t-39.5 -16.5z" />
    <glyph glyph-name="ring" unicode="&#x2da;" horiz-adv-x="231" 
d="M116 505q-40 0 -68 28t-28 68t28 68t68 28q39 0 67 -28t28 -68t-28 -68t-67 -28zM116 558q18 0 30 12.5t12 30.5t-12 31t-30 13t-30 -13t-12 -31t12 -30.5t30 -12.5z" />
    <glyph glyph-name="ogonek" unicode="&#x2db;" horiz-adv-x="275" 
d="M126 -190q-36 0 -60 21t-24 55q0 68 97 146h68q-35 -29 -61 -63.5t-26 -58.5q0 -30 32 -30q28 0 52 19q29 -19 29 -53q-38 -36 -107 -36z" />
    <glyph glyph-name="tilde" unicode="&#x2dc;" horiz-adv-x="349" 
d="M67 548q-41 0 -62 21q11 43 38.5 67t65.5 24q28 -1 71 -20.5t57 -19.5q36 0 49 43q36 0 59 -21q-11 -42 -38 -65.5t-63 -23.5q-27 0 -71 19.5t-57 19.5q-36 0 -49 -44z" />
    <glyph glyph-name="hungarumlaut" unicode="&#x2dd;" horiz-adv-x="325" 
d="M51 520q-23 7 -31 21l72 148q41 -6 68 -43zM196 520q-23 7 -31 21l72 148q41 -6 68 -43z" />
    <glyph glyph-name="gravecomb" unicode="&#x300;" 
d="M-43 519l-169 100q16 48 52 67l139 -136q-5 -20 -22 -31z" />
    <glyph glyph-name="acutecomb" unicode="&#x301;" 
d="M-191 519q-17 11 -22 31l139 136q36 -19 52 -67z" />
    <glyph glyph-name="uni0302" unicode="&#x302;" 
d="M-122 671l101 -100q-11 -33 -40 -45l-92 74l-89 -73q-27 11 -38 42l102 102q27 6 56 0z" />
    <glyph glyph-name="tildecomb" unicode="&#x303;" 
d="M-282 548q-41 0 -62 21q11 43 38.5 67t65.5 24q28 -1 71 -20.5t57 -19.5q36 0 49 43q36 0 59 -21q-11 -42 -38 -65.5t-63 -23.5q-27 0 -71 19.5t-57 19.5q-36 0 -49 -44z" />
    <glyph glyph-name="uni0304" unicode="&#x304;" 
d="M-285 562q-5 15 -5 34t5 33h256q4 -15 4 -33t-4 -34h-256z" />
    <glyph glyph-name="uni0306" unicode="&#x306;" 
d="M-151 530q-67 0 -100.5 38.5t-33.5 94.5q26 11 58 6q10 -78 78 -78q69 0 74 78q32 5 58 -6q0 -54 -34 -93.5t-100 -39.5z" />
    <glyph glyph-name="uni0307" unicode="&#x307;" 
d="M-96 551q-24 0 -41 16.5t-17 40.5t16.5 40.5t41.5 16.5q23 0 39.5 -16.5t16.5 -40.5t-16.5 -40.5t-39.5 -16.5z" />
    <glyph glyph-name="uni0308" unicode="&#x308;" 
d="M-267 548q-23 0 -38.5 15.5t-15.5 37.5q0 23 15.5 38t38.5 15q22 0 37 -15.5t15 -37.5t-15 -37.5t-37 -15.5zM-73 548q-23 0 -38 15t-15 38t15 38t38 15q22 0 37 -15.5t15 -37.5t-15 -37.5t-37 -15.5z" />
    <glyph glyph-name="uni030A" unicode="&#x30a;" 
d="M-115 505q-40 0 -68 28t-28 68t28 68t68 28q39 0 67 -28t28 -68t-28 -68t-67 -28zM-115 558q18 0 30 12.5t12 30.5t-12 31t-30 13t-30 -13t-12 -31t12 -30.5t30 -12.5z" />
    <glyph glyph-name="uni030B" unicode="&#x30b;" 
d="M-274 520q-23 7 -31 21l72 148q41 -6 68 -43zM-129 520q-23 7 -31 21l72 148q41 -6 68 -43z" />
    <glyph glyph-name="uni030C" unicode="&#x30c;" 
d="M-179 532l-98 99q9 34 38 46l90 -74l92 74q28 -12 39 -43l-105 -102q-27 -6 -56 0z" />
    <glyph glyph-name="uni0326" unicode="&#x326;" 
d="M-113 -209q-19 5 -26 27q31 28 31 84q0 29 -9 54q16 8 42 8q22 0 36 -7q4 -19 4 -40q0 -37 -20.5 -71t-57.5 -55z" />
    <glyph glyph-name="uni0327" unicode="&#x327;" 
d="M-121 11h55l-18 -49q68 -15 68 -66q0 -32 -20.5 -52.5t-43.5 -26.5t-49 -6q-45 0 -68 16q3 28 21 48q24 -13 46 -13q42 0 42 28q0 32 -66 34z" />
    <glyph glyph-name="uni0328" unicode="&#x328;" 
d="M-115 -190q-36 0 -60 21t-24 55q0 68 97 146h68q-35 -29 -61 -63.5t-26 -58.5q0 -30 32 -30q28 0 52 19q29 -19 29 -53q-38 -36 -107 -36z" />
    <glyph glyph-name="uni0335" unicode="&#x335;" 
d="M-269 437q-5 18 -5 32q0 15 5 33h244q5 -17 5 -32q0 -13 -5 -33h-244z" />
    <glyph glyph-name="uni0336" unicode="&#x336;" 
d="M-659 441q-5 17 -5 31q0 15 5 32h634q5 -15 5 -31q0 -14 -5 -32h-634z" />
    <glyph glyph-name="uni0337" unicode="&#x337;" 
d="M-213 258q-24 20 -27 55l218 110q22 -21 27 -55z" />
    <glyph glyph-name="uni0338" unicode="&#x338;" 
d="M-481 -27q-33 11 -44 44l439 485q32 -11 44 -40z" />
    <glyph glyph-name="Wgrave" unicode="&#x1e80;" horiz-adv-x="899" 
d="M548 706q-3 -22 -17 -33l-186 73q1 50 42 74zM829 649q24 0 47 -10q-80 -359 -196 -638q-21 -6 -46 -6q-22 0 -43 6l-118 406l-17 73l-20 -75l-136 -403q-21 -6 -43 -6q-27 0 -48 6q-100 255 -176 638q27 10 52 10q20 0 36 -4q42 -279 136 -558l16 64l143 432q16 5 41 5
q22 0 40 -5l130 -432l15 -64q99 275 152 557q17 4 35 4z" />
    <glyph glyph-name="wgrave" unicode="&#x1e81;" horiz-adv-x="736" 
d="M452 550q-5 -20 -22 -31l-169 100q16 48 52 67zM666 473q30 0 50 -6q-32 -126 -80.5 -251t-101.5 -216q-16 -4 -41 -4q-21 0 -37 4q-44 89 -89 214q-32 -114 -85 -214q-16 -4 -44 -4q-22 0 -38 4q-110 199 -178 467q19 6 52 6q12 0 32 -2q53 -213 135 -391l2 -8l2 4t1 4
q54 119 88 239q-15 48 -43 148q19 6 52 6q12 0 32 -2q60 -248 124 -391l2 -8q1 2 2 4.5t1 3.5q82 180 132 391q20 2 30 2z" />
    <glyph glyph-name="Wacute" unicode="&#x1e82;" horiz-adv-x="899" 
d="M372 673q-14 11 -17 33l161 114q41 -24 42 -74zM829 649q24 0 47 -10q-80 -359 -196 -638q-21 -6 -46 -6q-22 0 -43 6l-118 406l-17 73l-20 -75l-136 -403q-21 -6 -43 -6q-27 0 -48 6q-100 255 -176 638q27 10 52 10q20 0 36 -4q42 -279 136 -558l16 64l143 432
q16 5 41 5q22 0 40 -5l130 -432l15 -64q99 275 152 557q17 4 35 4z" />
    <glyph glyph-name="wacute" unicode="&#x1e83;" horiz-adv-x="736" 
d="M291 519q-17 11 -22 31l139 136q36 -19 52 -67zM666 473q30 0 50 -6q-32 -126 -80.5 -251t-101.5 -216q-16 -4 -41 -4q-21 0 -37 4q-44 89 -89 214q-32 -114 -85 -214q-16 -4 -44 -4q-22 0 -38 4q-110 199 -178 467q19 6 52 6q12 0 32 -2q53 -213 135 -391l2 -8l2 4t1 4
q54 119 88 239q-15 48 -43 148q19 6 52 6q12 0 32 -2q60 -248 124 -391l2 -8q1 2 2 4.5t1 3.5q82 180 132 391q20 2 30 2z" />
    <glyph glyph-name="Wdieresis" unicode="&#x1e84;" horiz-adv-x="899" 
d="M363 696q-23 0 -38 15t-15 37t15 36.5t38 14.5q21 0 35.5 -14.5t14.5 -36.5t-14.5 -37t-35.5 -15zM552 696q-22 0 -37 15t-15 37t15 36.5t37 14.5q21 0 36 -14.5t15 -36.5t-15 -37t-36 -15zM829 649q24 0 47 -10q-80 -359 -196 -638q-21 -6 -46 -6q-22 0 -43 6l-118 406
l-17 73l-20 -75l-136 -403q-21 -6 -43 -6q-27 0 -48 6q-100 255 -176 638q27 10 52 10q20 0 36 -4q42 -279 136 -558l16 64l143 432q16 5 41 5q22 0 40 -5l130 -432l15 -64q99 275 152 557q17 4 35 4z" />
    <glyph glyph-name="wdieresis" unicode="&#x1e85;" horiz-adv-x="736" 
d="M269 548q-23 0 -38.5 15.5t-15.5 37.5q0 23 15.5 38t38.5 15q22 0 37 -15.5t15 -37.5t-15 -37.5t-37 -15.5zM463 548q-23 0 -38 15t-15 38t15 38t38 15q22 0 37 -15.5t15 -37.5t-15 -37.5t-37 -15.5zM666 473q30 0 50 -6q-32 -126 -80.5 -251t-101.5 -216q-16 -4 -41 -4
q-21 0 -37 4q-44 89 -89 214q-32 -114 -85 -214q-16 -4 -44 -4q-22 0 -38 4q-110 199 -178 467q19 6 52 6q12 0 32 -2q53 -213 135 -391l2 -8l2 4t1 4q54 119 88 239q-15 48 -43 148q19 6 52 6q12 0 32 -2q60 -248 124 -391l2 -8q1 2 2 4.5t1 3.5q82 180 132 391q20 2 30 2z
" />
    <glyph glyph-name="uni1E9E" unicode="&#x1e9e;" horiz-adv-x="619" 
d="M425 367q87 -45 124 -85t37 -114q0 -86 -53 -135t-133 -49q-99 0 -162 61q12 41 49 63q49 -49 113 -49q50 0 77.5 27.5t28.5 68.5q0 39 -19 66t-80 58q-32 16 -51.5 29t-40.5 33t-31 46t-10 60q0 76 70 122q-12 -2 -30 -2q-66 0 -108 -34t-42 -103v-430q-17 -4 -39 -4
q-23 0 -42 4v430q0 100 66.5 156t169.5 56h173q5 -18 5 -34q0 -18 -5 -41q-66 -5 -101.5 -34.5t-35.5 -74.5q0 -55 70 -91z" />
    <glyph glyph-name="Ygrave" unicode="&#x1ef2;" horiz-adv-x="578" 
d="M379 706q-3 -22 -17 -33l-186 73q1 50 42 74zM517 648q23 0 45 -8l-232 -394v-246q-23 -5 -42 -5q-16 0 -39 5v249l-235 391q26 8 50 8t38 -3l175 -293l16 -35l16 35l169 293q13 3 39 3z" />
    <glyph glyph-name="ygrave" unicode="&#x1ef3;" horiz-adv-x="503" 
d="M343 550q-5 -20 -22 -31l-169 100q16 48 52 67zM434 474q24 0 49 -10q-59 -226 -135.5 -376.5t-206.5 -292.5q-40 7 -57 49q83 91 127 165q-120 199 -189 458q22 7 50 7q18 0 36 -3q50 -191 144 -379l8 -15l3.5 7l3.5 7q79 152 134 380q16 3 33 3z" />
    <glyph glyph-name="uni1EF8" unicode="&#x1ef8;" horiz-adv-x="578" 
d="M229 727q-40 0 -50 -41q-40 0 -61 21q11 43 39.5 66.5t66.5 23.5q27 0 70 -19t56 -19q38 0 48 42q41 0 60 -21q-11 -42 -39 -66t-64 -24q-27 0 -70 18.5t-56 18.5zM517 648q23 0 45 -8l-232 -394v-246q-23 -5 -42 -5q-16 0 -39 5v249l-235 391q26 8 50 8t38 -3l175 -293
l16 -35l16 35l169 293q13 3 39 3z" />
    <glyph glyph-name="uni1EF9" unicode="&#x1ef9;" horiz-adv-x="503" 
d="M197 592q-36 0 -49 -44q-41 0 -62 21q11 43 38.5 67t65.5 24q28 -1 71 -20.5t57 -19.5q36 0 49 43q36 0 59 -21q-11 -42 -38 -65.5t-63 -23.5q-27 0 -71 19.5t-57 19.5zM434 474q24 0 49 -10q-59 -226 -135.5 -376.5t-206.5 -292.5q-40 7 -57 49q83 91 127 165
q-120 199 -189 458q22 7 50 7q18 0 36 -3q50 -191 144 -379l8 -15l3.5 7l3.5 7q79 152 134 380q16 3 33 3z" />
    <glyph glyph-name="endash" unicode="&#x2013;" horiz-adv-x="580" 
d="M72 215q-5 15 -5 34t5 33h436q4 -15 4 -33t-4 -34h-436z" />
    <glyph glyph-name="emdash" unicode="&#x2014;" horiz-adv-x="1077" 
d="M72 215q-5 15 -5 34t5 33h933q4 -15 4 -33t-4 -34h-933z" />
    <glyph glyph-name="quoteleft" unicode="&#x2018;" horiz-adv-x="214" 
d="M100 463q-26 0 -40 6q-7 14 -7 46q0 53 26.5 95.5t58.5 67.5q9 -1 18.5 -8t10.5 -16q-32 -33 -32 -113q0 -45 12 -71q-21 -7 -47 -7z" />
    <glyph glyph-name="quoteright" unicode="&#x2019;" horiz-adv-x="208" 
d="M78 463q-9 1 -18.5 8t-10.5 16q32 33 32 113q0 46 -12 71q21 7 47 7t40 -6q7 -14 7 -46q0 -53 -26.5 -95.5t-58.5 -67.5z" />
    <glyph glyph-name="quotesinglbase" unicode="&#x201a;" horiz-adv-x="222" 
d="M72 -116q-9 1 -19 8t-11 16q34 33 34 113q0 43 -13 71q21 7 48 7q26 0 40 -6q7 -14 7 -46q0 -53 -27 -95.5t-59 -67.5z" />
    <glyph glyph-name="quotedblleft" unicode="&#x201c;" horiz-adv-x="357" 
d="M99 463q-26 0 -39 6q-7 14 -7 46q0 53 26 95.5t58 67.5q9 -1 19 -8t11 -16q-33 -32 -33 -113q0 -45 12 -71q-20 -7 -47 -7zM243 463q-27 0 -41 6q-7 14 -7 46q0 53 27 95.5t59 67.5q9 -1 18.5 -8t10.5 -16q-32 -33 -32 -113q0 -45 12 -71q-21 -7 -47 -7z" />
    <glyph glyph-name="quotedblright" unicode="&#x201d;" horiz-adv-x="353" 
d="M79 458q-9 1 -18.5 8t-10.5 16q32 33 32 113q0 45 -12 71q21 7 47 7t40 -6q7 -14 7 -46q0 -53 -26.5 -95.5t-58.5 -67.5zM223 458q-9 1 -19 8t-11 16q33 32 33 113q0 45 -12 71q20 7 47 7q26 0 39 -6q7 -14 7 -46q0 -53 -26 -95.5t-58 -67.5z" />
    <glyph glyph-name="quotedblbase" unicode="&#x201e;" horiz-adv-x="365" 
d="M72 -116q-9 1 -18.5 8t-10.5 16q31 33 31 113q0 48 -11 71q21 7 47 7q27 0 41 -6q7 -14 7 -46q0 -53 -27 -95.5t-59 -67.5zM216 -116q-9 1 -19 8t-11 16q32 32 32 113q0 48 -11 71q20 7 47 7t40 -6q7 -14 7 -46q0 -53 -26.5 -96t-58.5 -67z" />
    <glyph glyph-name="dagger" unicode="&#x2020;" horiz-adv-x="490" 
d="M437 493q0 -18 -5 -41l-150 8v-610q-16 -4 -39 -4q-21 0 -38 4v610l-147 -8q-5 22 -5 40t5 40l147 -8v193q17 4 38 4q23 0 39 -4v-193l150 8q5 -18 5 -39z" />
    <glyph glyph-name="daggerdbl" unicode="&#x2021;" horiz-adv-x="490" 
d="M282 107l150 8q5 -18 5 -39q0 -18 -5 -41l-150 8v-193q-16 -4 -39 -4q-21 0 -38 4v193l-147 -8q-5 22 -5 40t5 40l147 -8v353l-147 -8q-5 22 -5 40t5 40l147 -8v193q17 4 38 4q23 0 39 -4v-193l150 8q5 -18 5 -39q0 -18 -5 -41l-150 8v-353z" />
    <glyph glyph-name="bullet" unicode="&#x2022;" horiz-adv-x="377" 
d="M189 161q-46 0 -78 32t-32 77q0 46 32 78t78 32q45 0 77 -32t32 -78q0 -45 -32 -77t-77 -32z" />
    <glyph glyph-name="ellipsis" unicode="&#x2026;" horiz-adv-x="567" 
d="M110 -10q-23 0 -38 15t-15 37t15 36.5t38 14.5q21 0 35.5 -14.5t14.5 -36.5t-14.5 -37t-35.5 -15zM290 -10q-22 0 -37 15t-15 37t15 36.5t37 14.5q21 0 36 -14.5t15 -36.5t-15 -37t-36 -15zM459 -10q-22 0 -37 15t-15 37t15 36.5t37 14.5q21 0 36 -14.5t15 -36.5t-15 -37
t-36 -15z" />
    <glyph glyph-name="perthousand" unicode="&#x2030;" horiz-adv-x="1084" 
d="M125 -47l429 662q43 11 76 0l-429 -662q-42 -10 -76 0zM177 282q-68 0 -106 41.5t-38 108.5t38 108.5t106 41.5q67 0 105 -41.5t38 -108.5t-38 -108.5t-105 -41.5zM177 341q39 0 58 24.5t19 66.5q0 41 -19 66t-58 25t-58.5 -25t-19.5 -66q0 -42 19.5 -66.5t58.5 -24.5z
M573 -14q-68 0 -106 41.5t-38 108.5t38 108.5t106 41.5q67 0 105 -41.5t38 -108.5t-38 -108.5t-105 -41.5zM904 -14q-68 0 -106 41.5t-38 108.5t38 108.5t106 41.5q67 0 105 -41.5t38 -108.5t-38 -108.5t-105 -41.5zM573 45q39 0 58 24.5t19 66.5q0 41 -19 66t-58 25
t-58.5 -25t-19.5 -66q0 -42 19.5 -66.5t58.5 -24.5zM904 45q39 0 58 24.5t19 66.5q0 41 -19 66t-58 25t-58.5 -25t-19.5 -66q0 -42 19.5 -66.5t58.5 -24.5z" />
    <glyph glyph-name="guilsinglleft" unicode="&#x2039;" horiz-adv-x="280" 
d="M180 95l-141 159l141 162q27 -5 38 -29l-82 -132l82 -133q-10 -21 -38 -27z" />
    <glyph glyph-name="guilsinglright" unicode="&#x203a;" horiz-adv-x="280" 
d="M100 95q-28 6 -38 27l82 133l-82 132q11 24 38 29l141 -162z" />
    <glyph glyph-name="fraction" unicode="&#x2044;" horiz-adv-x="551" 
d="M3 -47l469 702q39 9 76 0l-469 -702q-37 -10 -76 0z" />
    <glyph glyph-name="Euro" unicode="&#x20ac;" horiz-adv-x="640" 
d="M565 94q31 -23 37 -55q-63 -53 -177 -53q-115 0 -193 65t-101 177h-94q-4 22 -4 32q0 11 4 31h85q-1 11 -1 33q0 13 2 39h-68q-4 22 -4 32q0 11 4 31h78q26 109 105.5 172t191.5 63q99 0 166 -47q-11 -35 -38 -54q-57 34 -128 34q-84 0 -140 -43t-77 -125h211
q4 -13 4 -31q0 -17 -4 -32h-221q-2 -26 -2 -39q0 -22 1 -33h204q4 -13 4 -31q0 -17 -4 -32h-194q22 -83 78 -128.5t135 -45.5q82 0 140 40z" />
    <glyph glyph-name="trademark" unicode="&#x2122;" horiz-adv-x="757" 
d="M629 666q23 0 52 -3v-354q-21 -3 -38 -3q-15 0 -30 3v161l5 65l-71 -174q-16 -6 -40 -6q-25 0 -41 6l-73 179l4 -70v-161q-12 -3 -31 -3q-16 0 -36 3v353q22 5 49 5q21 0 31 -2l92 -211l8 -27l8 27l86 211q7 1 25 1zM37 664h270q3 -18 3 -31q0 -16 -3 -31h-99v-294
q-17 -3 -33 -3q-17 0 -35 3v294h-103q-3 15 -3 31q0 13 3 31z" />
    <glyph glyph-name="minus" unicode="&#x2212;" horiz-adv-x="569" 
d="M74 202q-4 24 -4 35q0 13 4 35h421q4 -15 4 -35q0 -19 -4 -35h-421z" />
    <glyph glyph-name="approxequal" unicode="&#x2248;" horiz-adv-x="560" 
d="M118 250q-13 3 -28 13.5t-21 22.5q22 40 56 62.5t72 22.5q30 0 81 -22.5t82 -22.5q39 0 76 50q39 -7 55 -36q-22 -41 -56.5 -64.5t-74.5 -23.5t-89 22.5t-74 22.5q-49 0 -79 -47zM118 70q-13 3 -28 13.5t-21 22.5q22 40 56 62.5t72 22.5q30 0 81 -22.5t82 -22.5
q39 0 76 50q39 -7 55 -36q-22 -41 -56.5 -64.5t-74.5 -23.5t-89 22.5t-74 22.5q-49 0 -79 -47z" />
    <glyph glyph-name="notequal" unicode="&#x2260;" horiz-adv-x="569" 
d="M302 177h193q4 -15 4 -35q0 -19 -4 -35h-233l-68 -116q-34 13 -60 36l47 80h-107q-4 24 -4 35q0 13 4 35h147l70 119h-217q-4 24 -4 35q0 13 4 35h257l61 104q33 -12 60 -36l-40 -68h83q4 -15 4 -35q0 -19 -4 -35h-123z" />
    <glyph glyph-name="dotlessj" unicode="&#xf6be;" horiz-adv-x="248" 
d="M17 -197q-40 0 -73.5 12t-49.5 30q9 37 45 55q36 -26 68 -26q38 0 60.5 23.5t22.5 72.5v500q19 4 40 4q24 0 41 -4v-501q0 -80 -47 -123t-107 -43z" />
    <glyph glyph-name="uniF8FF" unicode="&#xf8ff;" horiz-adv-x="1451" 
d="M691 583q0 26 17.5 44t43.5 18t44 -18t18 -44t-18 -43.5t-44 -17.5t-43.5 18t-17.5 43zM219 270h-119q0 134 9 314h100q10 -200 10 -314zM694 270q0 92 3 147h-61l3 -65q4 -4 15 -4q13 0 18 5v-74q-14 -15 -68 -15q-82 0 -82 66q0 12 2 49t2 38h-22v79l119 30l1 -17h178
q10 -64 10 -239h-118zM328 265q-92 0 -92 114q0 135 134 135q124 0 124 -117v-127h-83l-8 61q-6 -33 -23.5 -49.5t-51.5 -16.5zM1090 270h-114q0 26 1 56t1 37q0 29 -15 29q-18 0 -18 -29q0 -7 1.5 -37t1.5 -56h-114q0 175 10 239h80q6 -44 6 -76q2 15 6.5 30t24 33t49.5 18
q42 0 58.5 -25t18.5 -81zM1351 391q0 -126 -123 -126q-122 0 -122 124q0 125 124 125q121 0 121 -123zM390 375q0 26 -24 26q-22 0 -22 -26q0 -30 22 -30q24 0 24 30zM1251 375q0 26 -23 26q-21 0 -21 -26q0 -30 21 -30q23 0 23 30zM428 238h104q10 -53 10 -138
q0 -81 -33.5 -115.5t-118.5 -34.5q-61 0 -88 17v83q24 -16 70 -16q21 0 34 6t16.5 11.5t3.5 10.5q-16 -11 -49 -11q-90 0 -90 83v13h-55l3 -65q6 -4 15 -4q13 0 18 5v-73q-19 -15 -68 -15q-45 0 -63 17t-18 54q0 39 3 81h-18v80l117 29l-1 -18h177v-119q0 -16 3 -21.5
t12 -5.5q16 0 16 27v119zM733 243q37 0 58.5 -29t21.5 -84q0 -135 -137 -135q1 -15 1 -39h-119q0 142 10 282h78q7 -42 7 -76q17 81 80 81zM1070 127q0 -21 -3 -35h-124q11 -18 50 -18q34 0 55 12v-75q-23 -16 -78 -16q-141 0 -141 122q0 59 32.5 92.5t92.5 33.5
q55 0 85.5 -30t30.5 -86zM978 109q3 27 -17 27q-23 0 -23 -27h40zM670 72q5 0 12.5 2.5t16 11.5t8.5 23q0 23 -20 23q-22 0 -22 -31q0 -14 5 -29zM1074 13q0 -23 24 -23t24 23t-24 23t-24 -23zM1080 13q0 18 18 18t18 -18t-18 -18t-18 18zM1108 2l-6 9q7 0 7 7t-10 7h-11
v-23h5v9h5l4 -9h6zM1100 15h-7v6h7q4 0 4 -3t-4 -3z" />
    <glyph glyph-name="A.ss01" horiz-adv-x="607" 
d="M344 642q142 -289 243 -635q-19 -11 -48 -11q-23 0 -39 4q-23 86 -53 179h-292q-29 -93 -50 -179q-17 -4 -36 -4q-27 0 -48 11q95 341 238 635q17 6 43 6q25 0 42 -6zM178 249h245q-48 136 -107 262l-17 43l-17 -43q-58 -126 -104 -262z" />
    <glyph glyph-name="Aacute.ss01" horiz-adv-x="607" 
d="M219 673q-14 11 -17 33l161 114q41 -24 42 -74zM344 642q142 -289 243 -635q-19 -11 -48 -11q-23 0 -39 4q-23 86 -53 179h-292q-29 -93 -50 -179q-17 -4 -36 -4q-27 0 -48 11q95 341 238 635q17 6 43 6q25 0 42 -6zM178 249h245q-48 136 -107 262l-17 43l-17 -43
q-58 -126 -104 -262z" />
    <glyph glyph-name="Abreve.ss01" horiz-adv-x="607" 
d="M304 684q-61 0 -97.5 34.5t-36.5 81.5q27 11 60 6q5 -26 25 -42t51 -16q32 0 51.5 16t21.5 42q32 4 59 -6q0 -45 -37 -80.5t-97 -35.5zM344 642q142 -289 243 -635q-19 -11 -48 -11q-23 0 -39 4q-23 86 -53 179h-292q-29 -93 -50 -179q-17 -4 -36 -4q-27 0 -48 11
q95 341 238 635q17 6 43 6q25 0 42 -6zM178 249h245q-48 136 -107 262l-17 43l-17 -43q-58 -126 -104 -262z" />
    <glyph glyph-name="Acircumflex.ss01" horiz-adv-x="607" 
d="M199 680q-20 14 -26 41l103 84q28 7 56 0l103 -83q-5 -24 -27 -42l-108 62zM344 642q142 -289 243 -635q-19 -11 -48 -11q-23 0 -39 4q-23 86 -53 179h-292q-29 -93 -50 -179q-17 -4 -36 -4q-27 0 -48 11q95 341 238 635q17 6 43 6q25 0 42 -6zM178 249h245
q-48 136 -107 262l-17 43l-17 -43q-58 -126 -104 -262z" />
    <glyph glyph-name="Adieresis.ss01" horiz-adv-x="607" 
d="M210 696q-23 0 -38 15t-15 37t15 36.5t38 14.5q21 0 35.5 -14.5t14.5 -36.5t-14.5 -37t-35.5 -15zM399 696q-22 0 -37 15t-15 37t15 36.5t37 14.5q21 0 36 -14.5t15 -36.5t-15 -37t-36 -15zM344 642q142 -289 243 -635q-19 -11 -48 -11q-23 0 -39 4q-23 86 -53 179h-292
q-29 -93 -50 -179q-17 -4 -36 -4q-27 0 -48 11q95 341 238 635q17 6 43 6q25 0 42 -6zM178 249h245q-48 136 -107 262l-17 43l-17 -43q-58 -126 -104 -262z" />
    <glyph glyph-name="Agrave.ss01" horiz-adv-x="607" 
d="M395 706q-3 -22 -17 -33l-186 73q1 50 42 74zM344 642q142 -289 243 -635q-19 -11 -48 -11q-23 0 -39 4q-23 86 -53 179h-292q-29 -93 -50 -179q-17 -4 -36 -4q-27 0 -48 11q95 341 238 635q17 6 43 6q25 0 42 -6zM178 249h245q-48 136 -107 262l-17 43l-17 -43
q-58 -126 -104 -262z" />
    <glyph glyph-name="Amacron.ss01" horiz-adv-x="607" 
d="M437 713h-266q-4 24 -4 34q0 11 4 33h266q4 -15 4 -33t-4 -34zM344 642q142 -289 243 -635q-19 -11 -48 -11q-23 0 -39 4q-23 86 -53 179h-292q-29 -93 -50 -179q-17 -4 -36 -4q-27 0 -48 11q95 341 238 635q17 6 43 6q25 0 42 -6zM178 249h245q-48 136 -107 262l-17 43
l-17 -43q-58 -126 -104 -262z" />
    <glyph glyph-name="Aogonek.ss01" horiz-adv-x="607" 
d="M611 -101q29 -19 29 -53q-38 -36 -107 -36q-36 0 -60 21t-24 55q0 55 51 114q-23 86 -53 179h-292q-29 -93 -50 -179q-17 -4 -36 -4q-27 0 -48 11q95 341 238 635q17 6 43 6q25 0 42 -6q142 -289 243 -635q-61 -43 -61 -90q0 -37 33 -37q28 0 52 19zM178 249h245
q-48 136 -107 262l-17 43l-17 -43q-58 -126 -104 -262z" />
    <glyph glyph-name="Aring.ss01" horiz-adv-x="607" 
d="M305 656q-40 0 -68 28t-28 68t28 68t68 28q39 0 67 -28t28 -68t-28 -68t-67 -28zM305 795q-18 0 -29.5 -12.5t-11.5 -30.5q0 -17 11.5 -29.5t29.5 -12.5q17 0 28 12.5t11 29.5q0 18 -11 30.5t-28 12.5zM344 642q142 -289 243 -635q-19 -11 -48 -11q-23 0 -39 4
q-23 86 -53 179h-292q-29 -93 -50 -179q-17 -4 -36 -4q-27 0 -48 11q95 341 238 635q17 6 43 6q25 0 42 -6zM178 249h245q-48 136 -107 262l-17 43l-17 -43q-58 -126 -104 -262z" />
    <glyph glyph-name="Atilde.ss01" horiz-adv-x="607" 
d="M245 727q-40 0 -50 -41q-40 0 -61 21q11 43 39.5 66.5t66.5 23.5q27 0 70 -19t56 -19q38 0 48 42q41 0 60 -21q-11 -42 -39 -66t-64 -24q-27 0 -70 18.5t-56 18.5zM344 642q142 -289 243 -635q-19 -11 -48 -11q-23 0 -39 4q-23 86 -53 179h-292q-29 -93 -50 -179
q-17 -4 -36 -4q-27 0 -48 11q95 341 238 635q17 6 43 6q25 0 42 -6zM178 249h245q-48 136 -107 262l-17 43l-17 -43q-58 -126 -104 -262z" />
    <glyph glyph-name="E.ss01" horiz-adv-x="486" 
d="M432 103q28 -18 33 -61q-70 -55 -182 -55q-110 0 -171 47t-61 139q0 117 110 163q-84 44 -84 143q0 79 54.5 128.5t143.5 49.5q85 0 153 -39q-4 -40 -33 -67q-58 32 -117 32q-60 0 -91.5 -27t-31.5 -77q0 -108 150 -108h54q5 -20 5 -36t-5 -36h-73q-153 0 -153 -120
q0 -56 38.5 -88t112.5 -32q90 0 148 44z" />
    <glyph glyph-name="Eacute.ss01" horiz-adv-x="486" 
d="M184 673q-14 11 -17 33l161 114q41 -24 42 -74zM432 103q28 -18 33 -61q-70 -55 -182 -55q-110 0 -171 47t-61 139q0 117 110 163q-84 44 -84 143q0 79 54.5 128.5t143.5 49.5q85 0 153 -39q-4 -40 -33 -67q-58 32 -117 32q-60 0 -91.5 -27t-31.5 -77q0 -108 150 -108h54
q5 -20 5 -36t-5 -36h-73q-153 0 -153 -120q0 -56 38.5 -88t112.5 -32q90 0 148 44z" />
    <glyph glyph-name="Ecaron.ss01" horiz-adv-x="486" 
d="M298 687q-28 -7 -56 0l-103 83q5 25 27 42l108 -62l101 62q22 -15 26 -41zM432 103q28 -18 33 -61q-70 -55 -182 -55q-110 0 -171 47t-61 139q0 117 110 163q-84 44 -84 143q0 79 54.5 128.5t143.5 49.5q85 0 153 -39q-4 -40 -33 -67q-58 32 -117 32q-60 0 -91.5 -27
t-31.5 -77q0 -108 150 -108h54q5 -20 5 -36t-5 -36h-73q-153 0 -153 -120q0 -56 38.5 -88t112.5 -32q90 0 148 44z" />
    <glyph glyph-name="Ecircumflex.ss01" horiz-adv-x="486" 
d="M164 680q-20 14 -26 41l103 84q28 7 56 0l103 -83q-5 -24 -27 -42l-108 62zM432 103q28 -18 33 -61q-70 -55 -182 -55q-110 0 -171 47t-61 139q0 117 110 163q-84 44 -84 143q0 79 54.5 128.5t143.5 49.5q85 0 153 -39q-4 -40 -33 -67q-58 32 -117 32q-60 0 -91.5 -27
t-31.5 -77q0 -108 150 -108h54q5 -20 5 -36t-5 -36h-73q-153 0 -153 -120q0 -56 38.5 -88t112.5 -32q90 0 148 44z" />
    <glyph glyph-name="Edieresis.ss01" horiz-adv-x="486" 
d="M175 696q-23 0 -38 15t-15 37t15 36.5t38 14.5q21 0 35.5 -14.5t14.5 -36.5t-14.5 -37t-35.5 -15zM364 696q-22 0 -37 15t-15 37t15 36.5t37 14.5q21 0 36 -14.5t15 -36.5t-15 -37t-36 -15zM432 103q28 -18 33 -61q-70 -55 -182 -55q-110 0 -171 47t-61 139
q0 117 110 163q-84 44 -84 143q0 79 54.5 128.5t143.5 49.5q85 0 153 -39q-4 -40 -33 -67q-58 32 -117 32q-60 0 -91.5 -27t-31.5 -77q0 -108 150 -108h54q5 -20 5 -36t-5 -36h-73q-153 0 -153 -120q0 -56 38.5 -88t112.5 -32q90 0 148 44z" />
    <glyph glyph-name="Edotaccent.ss01" horiz-adv-x="486" 
d="M270 694q-23 0 -39.5 16t-16.5 39t16 39t40 16q23 0 38.5 -16t15.5 -39t-15.5 -39t-38.5 -16zM432 103q28 -18 33 -61q-70 -55 -182 -55q-110 0 -171 47t-61 139q0 117 110 163q-84 44 -84 143q0 79 54.5 128.5t143.5 49.5q85 0 153 -39q-4 -40 -33 -67q-58 32 -117 32
q-60 0 -91.5 -27t-31.5 -77q0 -108 150 -108h54q5 -20 5 -36t-5 -36h-73q-153 0 -153 -120q0 -56 38.5 -88t112.5 -32q90 0 148 44z" />
    <glyph glyph-name="Egrave.ss01" horiz-adv-x="486" 
d="M360 706q-3 -22 -17 -33l-186 73q1 50 42 74zM432 103q28 -18 33 -61q-70 -55 -182 -55q-110 0 -171 47t-61 139q0 117 110 163q-84 44 -84 143q0 79 54.5 128.5t143.5 49.5q85 0 153 -39q-4 -40 -33 -67q-58 32 -117 32q-60 0 -91.5 -27t-31.5 -77q0 -108 150 -108h54
q5 -20 5 -36t-5 -36h-73q-153 0 -153 -120q0 -56 38.5 -88t112.5 -32q90 0 148 44z" />
    <glyph glyph-name="Emacron.ss01" horiz-adv-x="486" 
d="M402 713h-266q-4 24 -4 34q0 11 4 33h266q4 -15 4 -33t-4 -34zM432 103q28 -18 33 -61q-70 -55 -182 -55q-110 0 -171 47t-61 139q0 117 110 163q-84 44 -84 143q0 79 54.5 128.5t143.5 49.5q85 0 153 -39q-4 -40 -33 -67q-58 32 -117 32q-60 0 -91.5 -27t-31.5 -77
q0 -108 150 -108h54q5 -20 5 -36t-5 -36h-73q-153 0 -153 -120q0 -56 38.5 -88t112.5 -32q90 0 148 44z" />
    <glyph glyph-name="Eogonek.ss01" horiz-adv-x="486" 
d="M448 -101q29 -19 29 -53q-38 -36 -107 -36q-36 0 -60 21t-24 55q0 51 52 105q-24 -4 -55 -4q-110 0 -171 47t-61 139q0 117 110 163q-84 44 -84 143q0 79 54.5 128.5t143.5 49.5q85 0 153 -39q-4 -40 -33 -67q-58 32 -117 32q-60 0 -91.5 -27t-31.5 -77q0 -108 150 -108
h54q5 -20 5 -36t-5 -36h-73q-153 0 -153 -120q0 -56 38.5 -88t112.5 -32q90 0 148 44q28 -18 33 -61q-11 -8 -14 -10q-35 -29 -61 -63.5t-26 -58.5q0 -30 32 -30q28 0 52 19z" />
    <glyph glyph-name="Q.ss02" horiz-adv-x="736" 
d="M688 322q0 -82 -32.5 -153t-90.5 -117l78 -102q-23 -41 -66 -50l-83 110q-59 -25 -126 -25q-139 0 -229.5 96t-90.5 241q0 144 91 241t229 97q139 0 229.5 -95.5t90.5 -242.5zM368 60q44 0 79 13l-54 71q23 29 66 46l59 -77q85 74 85 209q0 117 -64.5 190t-170.5 73
t-170.5 -73t-64.5 -190q0 -115 64.5 -188.5t170.5 -73.5z" />
    <glyph glyph-name="a.ss01" horiz-adv-x="571" 
d="M478 138q0 -36 11 -51t44 -31q0 -19 -12.5 -39t-25.5 -27q-60 17 -81 54q-61 -58 -150 -58q-99 0 -159 61t-60 176q0 113 69.5 187.5t177.5 74.5q113 0 186 -61v-286zM274 59q39 0 72.5 18.5t51.5 48.5v253q-47 31 -106 31q-75 0 -119.5 -50t-44.5 -138q0 -77 40.5 -120
t105.5 -43z" />
    <glyph glyph-name="aacute.ss01" horiz-adv-x="571" 
d="M205 519q-17 11 -22 31l139 136q36 -19 52 -67zM478 138q0 -36 11 -51t44 -31q0 -19 -12.5 -39t-25.5 -27q-60 17 -81 54q-61 -58 -150 -58q-99 0 -159 61t-60 176q0 113 69.5 187.5t177.5 74.5q113 0 186 -61v-286zM274 59q39 0 72.5 18.5t51.5 48.5v253q-47 31 -106 31
q-75 0 -119.5 -50t-44.5 -138q0 -77 40.5 -120t105.5 -43z" />
    <glyph glyph-name="abreve.ss01" horiz-adv-x="571" 
d="M279 530q-67 0 -100.5 38.5t-33.5 94.5q26 11 58 6q10 -78 78 -78q69 0 74 78q32 5 58 -6q0 -54 -34 -93.5t-100 -39.5zM478 138q0 -36 11 -51t44 -31q0 -19 -12.5 -39t-25.5 -27q-60 17 -81 54q-61 -58 -150 -58q-99 0 -159 61t-60 176q0 113 69.5 187.5t177.5 74.5
q113 0 186 -61v-286zM274 59q39 0 72.5 18.5t51.5 48.5v253q-47 31 -106 31q-75 0 -119.5 -50t-44.5 -138q0 -77 40.5 -120t105.5 -43z" />
    <glyph glyph-name="acircumflex.ss01" horiz-adv-x="571" 
d="M187 527q-27 11 -38 42l102 102q27 6 56 0l101 -100q-11 -33 -40 -45l-92 74zM478 138q0 -36 11 -51t44 -31q0 -19 -12.5 -39t-25.5 -27q-60 17 -81 54q-61 -58 -150 -58q-99 0 -159 61t-60 176q0 113 69.5 187.5t177.5 74.5q113 0 186 -61v-286zM274 59q39 0 72.5 18.5
t51.5 48.5v253q-47 31 -106 31q-75 0 -119.5 -50t-44.5 -138q0 -77 40.5 -120t105.5 -43z" />
    <glyph glyph-name="adieresis.ss01" horiz-adv-x="571" 
d="M183 548q-23 0 -38.5 15.5t-15.5 37.5q0 23 15.5 38t38.5 15q22 0 37 -15.5t15 -37.5t-15 -37.5t-37 -15.5zM377 548q-23 0 -38 15t-15 38t15 38t38 15q22 0 37 -15.5t15 -37.5t-15 -37.5t-37 -15.5zM478 138q0 -36 11 -51t44 -31q0 -19 -12.5 -39t-25.5 -27
q-60 17 -81 54q-61 -58 -150 -58q-99 0 -159 61t-60 176q0 113 69.5 187.5t177.5 74.5q113 0 186 -61v-286zM274 59q39 0 72.5 18.5t51.5 48.5v253q-47 31 -106 31q-75 0 -119.5 -50t-44.5 -138q0 -77 40.5 -120t105.5 -43z" />
    <glyph glyph-name="agrave.ss01" horiz-adv-x="571" 
d="M366 550q-5 -20 -22 -31l-169 100q16 48 52 67zM478 138q0 -36 11 -51t44 -31q0 -19 -12.5 -39t-25.5 -27q-60 17 -81 54q-61 -58 -150 -58q-99 0 -159 61t-60 176q0 113 69.5 187.5t177.5 74.5q113 0 186 -61v-286zM274 59q39 0 72.5 18.5t51.5 48.5v253q-47 31 -106 31
q-75 0 -119.5 -50t-44.5 -138q0 -77 40.5 -120t105.5 -43z" />
    <glyph glyph-name="amacron.ss01" horiz-adv-x="571" 
d="M408 562h-256q-5 15 -5 34t5 33h256q4 -15 4 -33t-4 -34zM478 138q0 -36 11 -51t44 -31q0 -19 -12.5 -39t-25.5 -27q-60 17 -81 54q-61 -58 -150 -58q-99 0 -159 61t-60 176q0 113 69.5 187.5t177.5 74.5q113 0 186 -61v-286zM274 59q39 0 72.5 18.5t51.5 48.5v253
q-47 31 -106 31q-75 0 -119.5 -50t-44.5 -138q0 -77 40.5 -120t105.5 -43z" />
    <glyph glyph-name="aogonek.ss01" horiz-adv-x="573" 
d="M493 -101q30 -18 30 -51q-36 -38 -100 -38q-38 0 -65 22.5t-27 57.5q0 82 108 134q-12 8 -22 23q-63 -61 -155 -61q-98 0 -157 60.5t-59 178.5q0 111 69 185.5t174 74.5q117 0 190 -61v-286q0 -30 11 -44t41 -18q0 -22 -7.5 -44.5t-15.5 -31.5q-49 -14 -74 -38.5
t-25 -48.5q0 -33 35 -33q25 0 49 19zM272 59q39 0 73.5 19t53.5 49v252q-47 31 -110 31q-72 0 -116 -50t-44 -136q0 -78 39 -121.5t104 -43.5z" />
    <glyph glyph-name="aring.ss01" horiz-adv-x="571" 
d="M280 505q-40 0 -68 28t-28 68t28 68t68 28q39 0 67 -28t28 -68t-28 -68t-67 -28zM280 645q-18 0 -30 -13t-12 -31t12 -30.5t30 -12.5t30 12.5t12 30.5t-12 31t-30 13zM478 138q0 -36 11 -51t44 -31q0 -19 -12.5 -39t-25.5 -27q-60 17 -81 54q-61 -58 -150 -58
q-99 0 -159 61t-60 176q0 113 69.5 187.5t177.5 74.5q113 0 186 -61v-286zM274 59q39 0 72.5 18.5t51.5 48.5v253q-47 31 -106 31q-75 0 -119.5 -50t-44.5 -138q0 -77 40.5 -120t105.5 -43z" />
    <glyph glyph-name="atilde.ss01" horiz-adv-x="571" 
d="M220 592q-36 0 -49 -44q-41 0 -62 21q11 43 38.5 67t65.5 24q28 -1 71 -20.5t57 -19.5q36 0 49 43q36 0 59 -21q-11 -42 -38 -65.5t-63 -23.5q-27 0 -71 19.5t-57 19.5zM478 138q0 -36 11 -51t44 -31q0 -19 -12.5 -39t-25.5 -27q-60 17 -81 54q-61 -58 -150 -58
q-99 0 -159 61t-60 176q0 113 69.5 187.5t177.5 74.5q113 0 186 -61v-286zM274 59q39 0 72.5 18.5t51.5 48.5v253q-47 31 -106 31q-75 0 -119.5 -50t-44.5 -138q0 -77 40.5 -120t105.5 -43z" />
    <glyph glyph-name="e.ss01" horiz-adv-x="509" 
d="M421 116q32 -20 43 -59q-76 -71 -182 -71q-104 0 -170.5 60.5t-66.5 180.5q0 114 68 185.5t168 71.5q85 0 133 -42t48 -105q0 -74 -50.5 -108.5t-155.5 -34.5q-70 0 -128 23q3 -78 44.5 -117t110.5 -39q17 0 32.5 2t28.5 6.5l22 7.5t19.5 10.5l14 10t12.5 10.5zM282 412
q-60 0 -99 -35t-50 -97q51 -19 125 -19q69 0 96 17.5t27 54.5q0 32 -25.5 55.5t-73.5 23.5z" />
    <glyph glyph-name="eacute.ss01" horiz-adv-x="509" 
d="M197 519q-17 11 -22 31l139 136q36 -19 52 -67zM421 116q32 -20 43 -59q-76 -71 -182 -71q-104 0 -170.5 60.5t-66.5 180.5q0 114 68 185.5t168 71.5q85 0 133 -42t48 -105q0 -74 -50.5 -108.5t-155.5 -34.5q-70 0 -128 23q3 -78 44.5 -117t110.5 -39q17 0 32.5 2
t28.5 6.5l22 7.5t19.5 10.5l14 10t12.5 10.5zM282 412q-60 0 -99 -35t-50 -97q51 -19 125 -19q69 0 96 17.5t27 54.5q0 32 -25.5 55.5t-73.5 23.5z" />
    <glyph glyph-name="ecaron.ss01" horiz-adv-x="509" 
d="M298 532q-27 -6 -56 0l-98 99q9 34 38 46l90 -74l92 74q28 -12 39 -43zM421 116q32 -20 43 -59q-76 -71 -182 -71q-104 0 -170.5 60.5t-66.5 180.5q0 114 68 185.5t168 71.5q85 0 133 -42t48 -105q0 -74 -50.5 -108.5t-155.5 -34.5q-70 0 -128 23q3 -78 44.5 -117
t110.5 -39q17 0 32.5 2t28.5 6.5l22 7.5t19.5 10.5l14 10t12.5 10.5zM282 412q-60 0 -99 -35t-50 -97q51 -19 125 -19q69 0 96 17.5t27 54.5q0 32 -25.5 55.5t-73.5 23.5z" />
    <glyph glyph-name="ecircumflex.ss01" horiz-adv-x="509" 
d="M179 527q-27 11 -38 42l102 102q27 6 56 0l101 -100q-11 -33 -40 -45l-92 74zM421 116q32 -20 43 -59q-76 -71 -182 -71q-104 0 -170.5 60.5t-66.5 180.5q0 114 68 185.5t168 71.5q85 0 133 -42t48 -105q0 -74 -50.5 -108.5t-155.5 -34.5q-70 0 -128 23q3 -78 44.5 -117
t110.5 -39q17 0 32.5 2t28.5 6.5l22 7.5t19.5 10.5l14 10t12.5 10.5zM282 412q-60 0 -99 -35t-50 -97q51 -19 125 -19q69 0 96 17.5t27 54.5q0 32 -25.5 55.5t-73.5 23.5z" />
    <glyph glyph-name="edieresis.ss01" horiz-adv-x="509" 
d="M175 548q-23 0 -38.5 15.5t-15.5 37.5q0 23 15.5 38t38.5 15q22 0 37 -15.5t15 -37.5t-15 -37.5t-37 -15.5zM369 548q-23 0 -38 15t-15 38t15 38t38 15q22 0 37 -15.5t15 -37.5t-15 -37.5t-37 -15.5zM421 116q32 -20 43 -59q-76 -71 -182 -71q-104 0 -170.5 60.5
t-66.5 180.5q0 114 68 185.5t168 71.5q85 0 133 -42t48 -105q0 -74 -50.5 -108.5t-155.5 -34.5q-70 0 -128 23q3 -78 44.5 -117t110.5 -39q17 0 32.5 2t28.5 6.5l22 7.5t19.5 10.5l14 10t12.5 10.5zM282 412q-60 0 -99 -35t-50 -97q51 -19 125 -19q69 0 96 17.5t27 54.5
q0 32 -25.5 55.5t-73.5 23.5z" />
    <glyph glyph-name="edotaccent.ss01" horiz-adv-x="509" 
d="M271 551q-24 0 -41 16.5t-17 40.5t16.5 40.5t41.5 16.5q23 0 39.5 -16.5t16.5 -40.5t-16.5 -40.5t-39.5 -16.5zM421 116q32 -20 43 -59q-76 -71 -182 -71q-104 0 -170.5 60.5t-66.5 180.5q0 114 68 185.5t168 71.5q85 0 133 -42t48 -105q0 -74 -50.5 -108.5t-155.5 -34.5
q-70 0 -128 23q3 -78 44.5 -117t110.5 -39q17 0 32.5 2t28.5 6.5l22 7.5t19.5 10.5l14 10t12.5 10.5zM282 412q-60 0 -99 -35t-50 -97q51 -19 125 -19q69 0 96 17.5t27 54.5q0 32 -25.5 55.5t-73.5 23.5z" />
    <glyph glyph-name="egrave.ss01" horiz-adv-x="509" 
d="M358 550q-5 -20 -22 -31l-169 100q16 48 52 67zM421 116q32 -20 43 -59q-76 -71 -182 -71q-104 0 -170.5 60.5t-66.5 180.5q0 114 68 185.5t168 71.5q85 0 133 -42t48 -105q0 -74 -50.5 -108.5t-155.5 -34.5q-70 0 -128 23q3 -78 44.5 -117t110.5 -39q17 0 32.5 2
t28.5 6.5l22 7.5t19.5 10.5l14 10t12.5 10.5zM282 412q-60 0 -99 -35t-50 -97q51 -19 125 -19q69 0 96 17.5t27 54.5q0 32 -25.5 55.5t-73.5 23.5z" />
    <glyph glyph-name="emacron.ss01" horiz-adv-x="509" 
d="M400 562h-256q-5 15 -5 34t5 33h256q4 -15 4 -33t-4 -34zM421 116q32 -20 43 -59q-76 -71 -182 -71q-104 0 -170.5 60.5t-66.5 180.5q0 114 68 185.5t168 71.5q85 0 133 -42t48 -105q0 -74 -50.5 -108.5t-155.5 -34.5q-70 0 -128 23q3 -78 44.5 -117t110.5 -39
q17 0 32.5 2t28.5 6.5l22 7.5t19.5 10.5l14 10t12.5 10.5zM282 412q-60 0 -99 -35t-50 -97q51 -19 125 -19q69 0 96 17.5t27 54.5q0 32 -25.5 55.5t-73.5 23.5z" />
    <glyph glyph-name="eogonek.ss01" horiz-adv-x="509" 
d="M429 -101q29 -19 29 -53q-38 -36 -107 -36q-36 0 -60 21t-24 55q0 48 48 102q-20 -2 -33 -2q-104 0 -170.5 60.5t-66.5 180.5q0 114 68 185.5t168 71.5q85 0 133 -42t48 -105q0 -74 -50.5 -108.5t-155.5 -34.5q-70 0 -128 23q3 -78 44.5 -117t110.5 -39q17 0 32.5 2
t28.5 6.5l22 7.5t19.5 10.5l14 10t12.5 10.5l9 8q32 -20 43 -59q-23 -21 -37 -30q-33 -28 -57.5 -61t-24.5 -56q0 -30 32 -30q28 0 52 19zM282 412q-60 0 -99 -35t-50 -97q51 -19 125 -19q69 0 96 17.5t27 54.5q0 32 -25.5 55.5t-73.5 23.5z" />
    <glyph glyph-name="g.ss01" horiz-adv-x="554" 
d="M294 485q108 0 187 -61v-412q0 -90 -64 -149t-169 -59q-75 0 -116 33.5t-41 88.5q0 78 89 120q-62 26 -99 78t-37 124q0 102 71 169.5t179 67.5zM401 133v247q-39 31 -107 31q-74 0 -120.5 -45.5t-46.5 -117.5q0 -70 46 -110.5t121 -40.5q59 0 107 36zM248 -124
q70 0 111.5 38.5t41.5 97.5v37q-33 -17 -84 -22q-145 -20 -145 -93q0 -58 76 -58z" />
    <glyph glyph-name="gbreve.ss01" horiz-adv-x="554" 
d="M276 530q-67 0 -100.5 38.5t-33.5 94.5q26 11 58 6q10 -78 78 -78q69 0 74 78q32 5 58 -6q0 -54 -34 -93.5t-100 -39.5zM294 485q108 0 187 -61v-412q0 -90 -64 -149t-169 -59q-75 0 -116 33.5t-41 88.5q0 78 89 120q-62 26 -99 78t-37 124q0 102 71 169.5t179 67.5z
M401 133v247q-39 31 -107 31q-74 0 -120.5 -45.5t-46.5 -117.5q0 -70 46 -110.5t121 -40.5q59 0 107 36zM248 -124q70 0 111.5 38.5t41.5 97.5v37q-33 -17 -84 -22q-145 -20 -145 -93q0 -58 76 -58z" />
    <glyph glyph-name="gcommaaccent.ss01" horiz-adv-x="554" 
d="M270 506q-22 0 -36 7q-4 19 -4 40q0 37 20.5 71t57.5 55q19 -5 26 -27q-31 -28 -31 -84q0 -29 9 -54q-16 -8 -42 -8zM294 485q108 0 187 -61v-412q0 -90 -64 -149t-169 -59q-75 0 -116 33.5t-41 88.5q0 78 89 120q-62 26 -99 78t-37 124q0 102 71 169.5t179 67.5z
M401 133v247q-39 31 -107 31q-74 0 -120.5 -45.5t-46.5 -117.5q0 -70 46 -110.5t121 -40.5q59 0 107 36zM248 -124q70 0 111.5 38.5t41.5 97.5v37q-33 -17 -84 -22q-145 -20 -145 -93q0 -58 76 -58z" />
    <glyph glyph-name="gdotaccent.ss01" horiz-adv-x="554" 
d="M276 551q-24 0 -41 16.5t-17 40.5t16.5 40.5t41.5 16.5q23 0 39.5 -16.5t16.5 -40.5t-16.5 -40.5t-39.5 -16.5zM294 485q108 0 187 -61v-412q0 -90 -64 -149t-169 -59q-75 0 -116 33.5t-41 88.5q0 78 89 120q-62 26 -99 78t-37 124q0 102 71 169.5t179 67.5zM401 133v247
q-39 31 -107 31q-74 0 -120.5 -45.5t-46.5 -117.5q0 -70 46 -110.5t121 -40.5q59 0 107 36zM248 -124q70 0 111.5 38.5t41.5 97.5v37q-33 -17 -84 -22q-145 -20 -145 -93q0 -58 76 -58z" />
    <glyph glyph-name="k.ss01" horiz-adv-x="535" 
d="M356 179l147 -177q-30 -8 -62 -8q-19 0 -41 3l-119 150q-23 29 -23 74q140 31 140 113q0 35 -24.5 56.5t-62.5 21.5q-70 0 -112.5 -42.5t-42.5 -101.5v-268q-17 -4 -40 -4q-21 0 -40 4v657q19 4 40 4q23 0 40 -4v-245q62 72 163 72q76 0 118.5 -39t42.5 -103
q0 -55 -31 -98t-93 -65z" />
    <glyph glyph-name="kcommaaccent.ss01" horiz-adv-x="535" 
d="M356 179l147 -177q-30 -8 -62 -8q-19 0 -41 3l-119 150q-23 29 -23 74q140 31 140 113q0 35 -24.5 56.5t-62.5 21.5q-70 0 -112.5 -42.5t-42.5 -101.5v-268q-17 -4 -40 -4q-21 0 -40 4v657q19 4 40 4q23 0 40 -4v-245q62 72 163 72q76 0 118.5 -39t42.5 -103
q0 -55 -31 -98t-93 -65zM253 -36q22 0 36 -7q4 -19 4 -40q0 -37 -20.5 -71t-57.5 -55q-19 5 -26 27q31 28 31 84q0 29 -9 54q16 8 42 8z" />
    <glyph glyph-name="l.ss01" horiz-adv-x="300" 
d="M196 -9q-53 0 -88.5 28.5t-35.5 81.5v557q17 4 41 4q21 0 40 -4v-543q0 -53 53 -53q23 0 48 26q36 -18 45 -55q-37 -42 -103 -42z" />
    <glyph glyph-name="lacute.ss01" horiz-adv-x="300" 
d="M38 673q-14 11 -17 33l161 114q41 -24 42 -74zM196 -9q-53 0 -88.5 28.5t-35.5 81.5v557q17 4 41 4q21 0 40 -4v-543q0 -53 53 -53q23 0 48 26q36 -18 45 -55q-37 -42 -103 -42z" />
    <glyph glyph-name="lcaron.ss01" horiz-adv-x="300" 
d="M231 529q-21 4 -31 19q16 35 16 94q0 36 -9 58q14 9 40 9q21 0 35 -8q5 -15 5 -35q0 -83 -56 -137zM196 -9q-53 0 -88.5 28.5t-35.5 81.5v557q17 4 41 4q21 0 40 -4v-543q0 -53 53 -53q23 0 48 26q36 -18 45 -55q-37 -42 -103 -42z" />
    <glyph glyph-name="lcommaaccent.ss01" horiz-adv-x="300" 
d="M196 -9q-53 0 -88.5 28.5t-35.5 81.5v557q17 4 41 4q21 0 40 -4v-543q0 -53 53 -53q23 0 48 26q36 -18 45 -55q-37 -42 -103 -42zM141 -209q-19 5 -26 27q31 28 31 84q0 29 -9 54q16 8 42 8q22 0 36 -7q4 -19 4 -40q0 -37 -20.5 -71t-57.5 -55z" />
    <glyph glyph-name="ldot.ss01" horiz-adv-x="294" 
d="M196 -9q-53 0 -88.5 28.5t-35.5 81.5v557q17 4 41 4q21 0 40 -4v-543q0 -53 53 -53q23 0 48 26q36 -18 45 -55q-37 -42 -103 -42zM247 274q-24 0 -41 17t-17 41t17 41t41 17t41 -17t17 -41t-17 -41t-41 -17z" />
    <glyph glyph-name="lslash.ss01" horiz-adv-x="300" 
d="M254 88q36 -18 45 -55q-37 -42 -103 -42q-53 0 -88.5 28.5t-35.5 81.5v182l-55 -28q-24 20 -27 55l82 41v307q17 4 41 4q21 0 40 -4v-266l55 28q22 -21 27 -55l-82 -41v-209q0 -53 53 -53q23 0 48 26z" />
    <glyph glyph-name="y.ss01" horiz-adv-x="557" 
d="M441 475q23 0 40 -4v-459q0 -90 -63 -149t-166 -59q-75 0 -119 31t-44 84q0 79 93 122q-53 19 -82.5 61.5t-29.5 103.5v265q19 4 40 4q23 0 40 -4v-232q0 -73 28 -107.5t105 -34.5q71 0 118 31v343q19 4 40 4zM252 -124q68 0 108.5 38.5t40.5 97.5v39q-51 -23 -108 -29
q-121 -22 -121 -87q0 -59 80 -59z" />
    <glyph glyph-name="yacute.ss01" horiz-adv-x="557" 
d="M204 519q-17 11 -22 31l139 136q36 -19 52 -67zM441 475q23 0 40 -4v-459q0 -90 -63 -149t-166 -59q-75 0 -119 31t-44 84q0 79 93 122q-53 19 -82.5 61.5t-29.5 103.5v265q19 4 40 4q23 0 40 -4v-232q0 -73 28 -107.5t105 -34.5q71 0 118 31v343q19 4 40 4zM252 -124
q68 0 108.5 38.5t40.5 97.5v39q-51 -23 -108 -29q-121 -22 -121 -87q0 -59 80 -59z" />
    <glyph glyph-name="ycircumflex.ss01" horiz-adv-x="557" 
d="M186 527q-27 11 -38 42l102 102q27 6 56 0l101 -100q-11 -33 -40 -45l-92 74zM441 475q23 0 40 -4v-459q0 -90 -63 -149t-166 -59q-75 0 -119 31t-44 84q0 79 93 122q-53 19 -82.5 61.5t-29.5 103.5v265q19 4 40 4q23 0 40 -4v-232q0 -73 28 -107.5t105 -34.5
q71 0 118 31v343q19 4 40 4zM252 -124q68 0 108.5 38.5t40.5 97.5v39q-51 -23 -108 -29q-121 -22 -121 -87q0 -59 80 -59z" />
    <glyph glyph-name="ydieresis.ss01" horiz-adv-x="557" 
d="M182 548q-23 0 -38.5 15.5t-15.5 37.5q0 23 15.5 38t38.5 15q22 0 37 -15.5t15 -37.5t-15 -37.5t-37 -15.5zM376 548q-22 0 -37.5 15t-15.5 38t15 38t38 15q22 0 37 -15.5t15 -37.5t-15 -37.5t-37 -15.5zM441 475q23 0 40 -4v-459q0 -90 -63 -149t-166 -59q-75 0 -119 31
t-44 84q0 79 93 122q-53 19 -82.5 61.5t-29.5 103.5v265q19 4 40 4q23 0 40 -4v-232q0 -73 28 -107.5t105 -34.5q71 0 118 31v343q19 4 40 4zM252 -124q68 0 108.5 38.5t40.5 97.5v39q-51 -23 -108 -29q-121 -22 -121 -87q0 -59 80 -59z" />
    <glyph glyph-name="ygrave.ss01" horiz-adv-x="557" 
d="M365 550q-5 -20 -22 -31l-169 100q16 48 52 67zM441 475q23 0 40 -4v-459q0 -90 -63 -149t-166 -59q-75 0 -119 31t-44 84q0 79 93 122q-53 19 -82.5 61.5t-29.5 103.5v265q19 4 40 4q23 0 40 -4v-232q0 -73 28 -107.5t105 -34.5q71 0 118 31v343q19 4 40 4zM252 -124
q68 0 108.5 38.5t40.5 97.5v39q-51 -23 -108 -29q-121 -22 -121 -87q0 -59 80 -59z" />
    <glyph glyph-name="a.ss02" horiz-adv-x="504" 
d="M420 111q0 -24 10 -35.5t39 -20.5q-2 -50 -27 -68q-81 7 -94 67h-4q-51 -68 -143 -68q-75 0 -119.5 40t-44.5 106q0 70 53 108t155 39l95 1v32q0 98 -115 98q-69 0 -127 -48q-29 18 -42 56q25 26 73.5 46.5t99.5 20.5q83 0 137 -43t54 -141v-190zM211 55q56 0 92.5 37
t36.5 121l-95 -1q-69 0 -97 -19.5t-28 -58.5q0 -37 24 -58t67 -21z" />
    <glyph glyph-name="aacute.ss02" horiz-adv-x="504" 
d="M150 519q-17 11 -22 31l139 136q36 -19 52 -67zM420 111q0 -24 10 -35.5t39 -20.5q-2 -50 -27 -68q-81 7 -94 67h-4q-51 -68 -143 -68q-75 0 -119.5 40t-44.5 106q0 70 53 108t155 39l95 1v32q0 98 -115 98q-69 0 -127 -48q-29 18 -42 56q25 26 73.5 46.5t99.5 20.5
q83 0 137 -43t54 -141v-190zM211 55q56 0 92.5 37t36.5 121l-95 -1q-69 0 -97 -19.5t-28 -58.5q0 -37 24 -58t67 -21z" />
    <glyph glyph-name="abreve.ss02" horiz-adv-x="504" 
d="M224 530q-67 0 -100.5 38.5t-33.5 94.5q26 11 58 6q10 -78 78 -78q69 0 74 78q32 5 58 -6q0 -54 -34 -93.5t-100 -39.5zM420 111q0 -24 10 -35.5t39 -20.5q-2 -50 -27 -68q-81 7 -94 67h-4q-51 -68 -143 -68q-75 0 -119.5 40t-44.5 106q0 70 53 108t155 39l95 1v32
q0 98 -115 98q-69 0 -127 -48q-29 18 -42 56q25 26 73.5 46.5t99.5 20.5q83 0 137 -43t54 -141v-190zM211 55q56 0 92.5 37t36.5 121l-95 -1q-69 0 -97 -19.5t-28 -58.5q0 -37 24 -58t67 -21z" />
    <glyph glyph-name="acircumflex.ss02" horiz-adv-x="504" 
d="M132 527q-27 11 -38 42l102 102q27 6 56 0l101 -100q-11 -33 -40 -45l-92 74zM420 111q0 -24 10 -35.5t39 -20.5q-2 -50 -27 -68q-81 7 -94 67h-4q-51 -68 -143 -68q-75 0 -119.5 40t-44.5 106q0 70 53 108t155 39l95 1v32q0 98 -115 98q-69 0 -127 -48q-29 18 -42 56
q25 26 73.5 46.5t99.5 20.5q83 0 137 -43t54 -141v-190zM211 55q56 0 92.5 37t36.5 121l-95 -1q-69 0 -97 -19.5t-28 -58.5q0 -37 24 -58t67 -21z" />
    <glyph glyph-name="adieresis.ss02" horiz-adv-x="504" 
d="M128 548q-23 0 -38.5 15.5t-15.5 37.5q0 23 15.5 38t38.5 15q22 0 37 -15.5t15 -37.5t-15 -37.5t-37 -15.5zM322 548q-22 0 -37.5 15t-15.5 38t15 38t38 15q22 0 37 -15.5t15 -37.5t-15 -37.5t-37 -15.5zM420 111q0 -24 10 -35.5t39 -20.5q-2 -50 -27 -68q-81 7 -94 67
h-4q-51 -68 -143 -68q-75 0 -119.5 40t-44.5 106q0 70 53 108t155 39l95 1v32q0 98 -115 98q-69 0 -127 -48q-29 18 -42 56q25 26 73.5 46.5t99.5 20.5q83 0 137 -43t54 -141v-190zM211 55q56 0 92.5 37t36.5 121l-95 -1q-69 0 -97 -19.5t-28 -58.5q0 -37 24 -58t67 -21z
" />
    <glyph glyph-name="agrave.ss02" horiz-adv-x="504" 
d="M311 550q-5 -20 -22 -31l-169 100q16 48 52 67zM420 111q0 -24 10 -35.5t39 -20.5q-2 -50 -27 -68q-81 7 -94 67h-4q-51 -68 -143 -68q-75 0 -119.5 40t-44.5 106q0 70 53 108t155 39l95 1v32q0 98 -115 98q-69 0 -127 -48q-29 18 -42 56q25 26 73.5 46.5t99.5 20.5
q83 0 137 -43t54 -141v-190zM211 55q56 0 92.5 37t36.5 121l-95 -1q-69 0 -97 -19.5t-28 -58.5q0 -37 24 -58t67 -21z" />
    <glyph glyph-name="amacron.ss02" horiz-adv-x="504" 
d="M353 562h-256q-5 15 -5 34t5 33h256q4 -15 4 -33t-4 -34zM420 111q0 -24 10 -35.5t39 -20.5q-2 -50 -27 -68q-81 7 -94 67h-4q-51 -68 -143 -68q-75 0 -119.5 40t-44.5 106q0 70 53 108t155 39l95 1v32q0 98 -115 98q-69 0 -127 -48q-29 18 -42 56q25 26 73.5 46.5
t99.5 20.5q83 0 137 -43t54 -141v-190zM211 55q56 0 92.5 37t36.5 121l-95 -1q-69 0 -97 -19.5t-28 -58.5q0 -37 24 -58t67 -21z" />
    <glyph glyph-name="aogonek.ss02" horiz-adv-x="504" 
d="M438 -102q33 -19 33 -50q-36 -38 -100 -38q-39 0 -65.5 22.5t-26.5 59.5q0 78 96 128q-14 11 -27 34h-2q-55 -68 -140 -68q-78 0 -123.5 39.5t-45.5 106.5q0 70 53 108t155 39l95 1v34q0 96 -115 96q-69 0 -127 -48q-29 18 -42 56q25 26 73.5 46.5t99.5 20.5
q83 0 137 -43t54 -141v-163q0 -30 11 -44t41 -18q0 -22 -7.5 -44.5t-15.5 -31.5q-46 -14 -69 -38.5t-23 -48.5q0 -33 35 -33q25 0 46 18zM211 55q21 0 40.5 6t41 21t34.5 48.5t13 82.5l-95 -1q-70 -1 -97.5 -20t-27.5 -58q0 -37 24 -58t67 -21z" />
    <glyph glyph-name="aring.ss02" horiz-adv-x="504" 
d="M225 505q-40 0 -68 28t-28 68t28 68t68 28q39 0 67 -28t28 -68t-28 -68t-67 -28zM225 645q-18 0 -30 -13t-12 -31t12 -30.5t30 -12.5t30 12.5t12 30.5t-12 31t-30 13zM420 111q0 -24 10 -35.5t39 -20.5q-2 -50 -27 -68q-81 7 -94 67h-4q-51 -68 -143 -68q-75 0 -119.5 40
t-44.5 106q0 70 53 108t155 39l95 1v32q0 98 -115 98q-69 0 -127 -48q-29 18 -42 56q25 26 73.5 46.5t99.5 20.5q83 0 137 -43t54 -141v-190zM211 55q56 0 92.5 37t36.5 121l-95 -1q-69 0 -97 -19.5t-28 -58.5q0 -37 24 -58t67 -21z" />
    <glyph glyph-name="atilde.ss02" horiz-adv-x="504" 
d="M165 592q-36 0 -49 -44q-41 0 -62 21q11 43 38.5 67t65.5 24q28 -1 71 -20.5t57 -19.5q36 0 49 43q36 0 59 -21q-11 -42 -38 -65.5t-63 -23.5q-27 0 -71 19.5t-57 19.5zM420 111q0 -24 10 -35.5t39 -20.5q-2 -50 -27 -68q-81 7 -94 67h-4q-51 -68 -143 -68
q-75 0 -119.5 40t-44.5 106q0 70 53 108t155 39l95 1v32q0 98 -115 98q-69 0 -127 -48q-29 18 -42 56q25 26 73.5 46.5t99.5 20.5q83 0 137 -43t54 -141v-190zM211 55q56 0 92.5 37t36.5 121l-95 -1q-69 0 -97 -19.5t-28 -58.5q0 -37 24 -58t67 -21z" />
    <glyph glyph-name="e.ss02" horiz-adv-x="516" 
d="M423 114q33 -20 43 -57q-29 -27 -78 -49t-104 -22q-104 0 -171.5 67t-67.5 184q0 108 66 178t164 70q87 0 143 -55.5t60 -145.5l-343 -105q14 -56 53.5 -87t96.5 -31q76 0 138 53zM273 412q-69 0 -106 -45.5t-39 -119.5l256 79q0 9 -5 22t-16.5 28t-35 25.5t-54.5 10.5z
" />
    <glyph glyph-name="eacute.ss02" horiz-adv-x="516" 
d="M188 519q-17 11 -22 31l139 136q36 -19 52 -67zM423 114q33 -20 43 -57q-29 -27 -78 -49t-104 -22q-104 0 -171.5 67t-67.5 184q0 108 66 178t164 70q87 0 143 -55.5t60 -145.5l-343 -105q14 -56 53.5 -87t96.5 -31q76 0 138 53zM273 412q-69 0 -106 -45.5t-39 -119.5
l256 79q0 9 -5 22t-16.5 28t-35 25.5t-54.5 10.5z" />
    <glyph glyph-name="ecaron.ss02" horiz-adv-x="516" 
d="M289 532q-27 -6 -56 0l-98 99q9 34 38 46l90 -74l92 74q28 -12 39 -43zM423 114q33 -20 43 -57q-29 -27 -78 -49t-104 -22q-104 0 -171.5 67t-67.5 184q0 108 66 178t164 70q87 0 143 -55.5t60 -145.5l-343 -105q14 -56 53.5 -87t96.5 -31q76 0 138 53zM273 412
q-69 0 -106 -45.5t-39 -119.5l256 79q0 9 -5 22t-16.5 28t-35 25.5t-54.5 10.5z" />
    <glyph glyph-name="ecircumflex.ss02" horiz-adv-x="516" 
d="M170 527q-27 11 -38 42l102 102q27 6 56 0l101 -100q-11 -33 -40 -45l-92 74zM423 114q33 -20 43 -57q-29 -27 -78 -49t-104 -22q-104 0 -171.5 67t-67.5 184q0 108 66 178t164 70q87 0 143 -55.5t60 -145.5l-343 -105q14 -56 53.5 -87t96.5 -31q76 0 138 53zM273 412
q-69 0 -106 -45.5t-39 -119.5l256 79q0 9 -5 22t-16.5 28t-35 25.5t-54.5 10.5z" />
    <glyph glyph-name="edieresis.ss02" horiz-adv-x="516" 
d="M166 548q-23 0 -38.5 15.5t-15.5 37.5q0 23 15.5 38t38.5 15q22 0 37 -15.5t15 -37.5t-15 -37.5t-37 -15.5zM360 548q-22 0 -37.5 15t-15.5 38t15 38t38 15q22 0 37 -15.5t15 -37.5t-15 -37.5t-37 -15.5zM423 114q33 -20 43 -57q-29 -27 -78 -49t-104 -22
q-104 0 -171.5 67t-67.5 184q0 108 66 178t164 70q87 0 143 -55.5t60 -145.5l-343 -105q14 -56 53.5 -87t96.5 -31q76 0 138 53zM273 412q-69 0 -106 -45.5t-39 -119.5l256 79q0 9 -5 22t-16.5 28t-35 25.5t-54.5 10.5z" />
    <glyph glyph-name="edotaccent.ss02" horiz-adv-x="516" 
d="M262 551q-24 0 -41 16.5t-17 40.5t16.5 40.5t41.5 16.5q23 0 39.5 -16.5t16.5 -40.5t-16.5 -40.5t-39.5 -16.5zM423 114q33 -20 43 -57q-29 -27 -78 -49t-104 -22q-104 0 -171.5 67t-67.5 184q0 108 66 178t164 70q87 0 143 -55.5t60 -145.5l-343 -105q14 -56 53.5 -87
t96.5 -31q76 0 138 53zM273 412q-69 0 -106 -45.5t-39 -119.5l256 79q0 9 -5 22t-16.5 28t-35 25.5t-54.5 10.5z" />
    <glyph glyph-name="egrave.ss02" horiz-adv-x="516" 
d="M349 550q-5 -20 -22 -31l-169 100q16 48 52 67zM423 114q33 -20 43 -57q-29 -27 -78 -49t-104 -22q-104 0 -171.5 67t-67.5 184q0 108 66 178t164 70q87 0 143 -55.5t60 -145.5l-343 -105q14 -56 53.5 -87t96.5 -31q76 0 138 53zM273 412q-69 0 -106 -45.5t-39 -119.5
l256 79q0 9 -5 22t-16.5 28t-35 25.5t-54.5 10.5z" />
    <glyph glyph-name="emacron.ss02" horiz-adv-x="516" 
d="M391 562h-256q-5 15 -5 34t5 33h256q4 -15 4 -33t-4 -34zM423 114q33 -20 43 -57q-29 -27 -78 -49t-104 -22q-104 0 -171.5 67t-67.5 184q0 108 66 178t164 70q87 0 143 -55.5t60 -145.5l-343 -105q14 -56 53.5 -87t96.5 -31q76 0 138 53zM273 412q-69 0 -106 -45.5
t-39 -119.5l256 79q0 9 -5 22t-16.5 28t-35 25.5t-54.5 10.5z" />
    <glyph glyph-name="eogonek.ss02" horiz-adv-x="516" 
d="M428 28q-83 -71 -83 -118q0 -30 32 -30q28 0 52 19q29 -19 29 -53q-38 -36 -107 -36q-36 0 -60 21t-24 55q0 51 49 102q-22 -2 -32 -2q-104 0 -171.5 67t-67.5 184q0 108 66 178t164 70q87 0 143 -55.5t60 -145.5l-343 -105q14 -56 53.5 -87t96.5 -31q76 0 138 53
q33 -20 43 -57q-16 -14 -38 -29zM273 412q-69 0 -106 -45.5t-39 -119.5l256 79q0 9 -5 22t-16.5 28t-35 25.5t-54.5 10.5z" />
    <glyph glyph-name="g.ss02" horiz-adv-x="512" 
d="M498 489q-13 -30 -39 -50t-52 -27q33 -48 30 -114q-2 -69 -57 -116t-140 -47q-37 0 -69 8q-23 -22 -23 -45q0 -30 39 -30h131q137 0 137 -118q0 -70 -56 -110t-155 -40q-74 0 -125 19t-73 41q12 40 48 58q56 -47 150 -47q136 0 136 71q0 53 -72 53h-116q-121 0 -121 89
q0 44 42 86q-62 44 -62 134q0 76 56.5 125.5t141.5 49.5h87q42 0 65 11.5t38 40.5q40 -11 59 -42zM357 300q2 61 -32 110h-78q-52 0 -83.5 -28t-31.5 -79q0 -101 108 -101q52 0 84 26.5t33 71.5z" />
    <glyph glyph-name="gbreve.ss02" horiz-adv-x="512" 
d="M244 530q-67 0 -100.5 38.5t-33.5 94.5q26 11 58 6q10 -78 78 -78q69 0 74 78q32 5 58 -6q0 -54 -34 -93.5t-100 -39.5zM498 489q-13 -30 -39 -50t-52 -27q33 -48 30 -114q-2 -69 -57 -116t-140 -47q-37 0 -69 8q-23 -22 -23 -45q0 -30 39 -30h131q137 0 137 -118
q0 -70 -56 -110t-155 -40q-74 0 -125 19t-73 41q12 40 48 58q56 -47 150 -47q136 0 136 71q0 53 -72 53h-116q-121 0 -121 89q0 44 42 86q-62 44 -62 134q0 76 56.5 125.5t141.5 49.5h87q42 0 65 11.5t38 40.5q40 -11 59 -42zM357 300q2 61 -32 110h-78q-52 0 -83.5 -28
t-31.5 -79q0 -101 108 -101q52 0 84 26.5t33 71.5z" />
    <glyph glyph-name="gcommaaccent.ss02" horiz-adv-x="512" 
d="M238 506q-22 0 -36 7q-4 19 -4 40q0 37 20.5 71t57.5 55q19 -5 26 -27q-31 -28 -31 -84q0 -29 9 -54q-16 -8 -42 -8zM498 489q-13 -30 -39 -50t-52 -27q33 -48 30 -114q-2 -69 -57 -116t-140 -47q-37 0 -69 8q-23 -22 -23 -45q0 -30 39 -30h131q137 0 137 -118
q0 -70 -56 -110t-155 -40q-74 0 -125 19t-73 41q12 40 48 58q56 -47 150 -47q136 0 136 71q0 53 -72 53h-116q-121 0 -121 89q0 44 42 86q-62 44 -62 134q0 76 56.5 125.5t141.5 49.5h87q42 0 65 11.5t38 40.5q40 -11 59 -42zM357 300q2 61 -32 110h-78q-52 0 -83.5 -28
t-31.5 -79q0 -101 108 -101q52 0 84 26.5t33 71.5z" />
    <glyph glyph-name="gdotaccent.ss02" horiz-adv-x="512" 
d="M244 551q-24 0 -41 16.5t-17 40.5t16.5 40.5t41.5 16.5q23 0 39.5 -16.5t16.5 -40.5t-16.5 -40.5t-39.5 -16.5zM498 489q-13 -30 -39 -50t-52 -27q33 -48 30 -114q-2 -69 -57 -116t-140 -47q-37 0 -69 8q-23 -22 -23 -45q0 -30 39 -30h131q137 0 137 -118q0 -70 -56 -110
t-155 -40q-74 0 -125 19t-73 41q12 40 48 58q56 -47 150 -47q136 0 136 71q0 53 -72 53h-116q-121 0 -121 89q0 44 42 86q-62 44 -62 134q0 76 56.5 125.5t141.5 49.5h87q42 0 65 11.5t38 40.5q40 -11 59 -42zM357 300q2 61 -32 110h-78q-52 0 -83.5 -28t-31.5 -79
q0 -101 108 -101q52 0 84 26.5t33 71.5z" />
    <glyph glyph-name="w.ss02" horiz-adv-x="734" 
d="M653 474q26 0 47 -7q-46 -275 -157 -467q-15 -4 -35 -4q-22 0 -38 4q-69 135 -103 328q-35 -182 -108 -328q-16 -4 -38 -4q-20 0 -35 4q-114 215 -151 467q21 7 47 7q16 0 31 -3q39 -243 109 -385l3 -9q1 1 2 4t2 5q63 150 97 372q17 3 39 3q23 0 43 -3q34 -230 99 -372
l6 -14q1 2 2.5 6.5l2.5 7.5q58 113 107 385q15 3 28 3z" />
    <glyph glyph-name="wacute.ss02" horiz-adv-x="734" 
d="M294 519q-17 11 -22 31l139 136q36 -19 52 -67zM653 474q26 0 47 -7q-46 -275 -157 -467q-15 -4 -35 -4q-22 0 -38 4q-69 135 -103 328q-35 -182 -108 -328q-16 -4 -38 -4q-20 0 -35 4q-114 215 -151 467q21 7 47 7q16 0 31 -3q39 -243 109 -385l3 -9q1 1 2 4t2 5
q63 150 97 372q17 3 39 3q23 0 43 -3q34 -230 99 -372l6 -14q1 2 2.5 6.5l2.5 7.5q58 113 107 385q15 3 28 3z" />
    <glyph glyph-name="wcircumflex.ss02" horiz-adv-x="734" 
d="M276 527q-27 11 -38 42l102 102q27 6 56 0l101 -100q-11 -33 -40 -45l-92 74zM653 474q26 0 47 -7q-46 -275 -157 -467q-15 -4 -35 -4q-22 0 -38 4q-69 135 -103 328q-35 -182 -108 -328q-16 -4 -38 -4q-20 0 -35 4q-114 215 -151 467q21 7 47 7q16 0 31 -3
q39 -243 109 -385l3 -9q1 1 2 4t2 5q63 150 97 372q17 3 39 3q23 0 43 -3q34 -230 99 -372l6 -14q1 2 2.5 6.5l2.5 7.5q58 113 107 385q15 3 28 3z" />
    <glyph glyph-name="wdieresis.ss02" horiz-adv-x="734" 
d="M272 548q-23 0 -38.5 15.5t-15.5 37.5q0 23 15.5 38t38.5 15q22 0 37 -15.5t15 -37.5t-15 -37.5t-37 -15.5zM466 548q-22 0 -37.5 15t-15.5 38t15 38t38 15q22 0 37 -15.5t15 -37.5t-15 -37.5t-37 -15.5zM653 474q26 0 47 -7q-46 -275 -157 -467q-15 -4 -35 -4
q-22 0 -38 4q-69 135 -103 328q-35 -182 -108 -328q-16 -4 -38 -4q-20 0 -35 4q-114 215 -151 467q21 7 47 7q16 0 31 -3q39 -243 109 -385l3 -9q1 1 2 4t2 5q63 150 97 372q17 3 39 3q23 0 43 -3q34 -230 99 -372l6 -14q1 2 2.5 6.5l2.5 7.5q58 113 107 385q15 3 28 3z" />
    <glyph glyph-name="wgrave.ss02" horiz-adv-x="734" 
d="M455 550q-5 -20 -22 -31l-169 100q16 48 52 67zM653 474q26 0 47 -7q-46 -275 -157 -467q-15 -4 -35 -4q-22 0 -38 4q-69 135 -103 328q-35 -182 -108 -328q-16 -4 -38 -4q-20 0 -35 4q-114 215 -151 467q21 7 47 7q16 0 31 -3q39 -243 109 -385l3 -9q1 1 2 4t2 5
q63 150 97 372q17 3 39 3q23 0 43 -3q34 -230 99 -372l6 -14q1 2 2.5 6.5l2.5 7.5q58 113 107 385q15 3 28 3z" />
    <glyph glyph-name="y.ss02" horiz-adv-x="557" 
d="M441 475q23 0 40 -4v-459q0 -90 -62 -149t-162 -59q-129 0 -195 74q12 37 52 55q53 -57 143 -57q72 0 108 37.5t36 98.5v29q-65 -30 -137 -30q-93 0 -143.5 51.5t-50.5 133.5v275q19 4 40 4q23 0 40 -4v-242q0 -73 28 -107.5t105 -34.5q71 0 118 31v353q19 4 40 4z" />
    <glyph glyph-name="yacute.ss02" horiz-adv-x="557" 
d="M204 519q-17 11 -22 31l139 136q36 -19 52 -67zM441 475q23 0 40 -4v-459q0 -90 -62 -149t-162 -59q-129 0 -195 74q12 37 52 55q53 -57 143 -57q72 0 108 37.5t36 98.5v29q-65 -30 -137 -30q-93 0 -143.5 51.5t-50.5 133.5v275q19 4 40 4q23 0 40 -4v-242
q0 -73 28 -107.5t105 -34.5q71 0 118 31v353q19 4 40 4z" />
    <glyph glyph-name="ycircumflex.ss02" horiz-adv-x="557" 
d="M186 527q-27 11 -38 42l102 102q27 6 56 0l101 -100q-11 -33 -40 -45l-92 74zM441 475q23 0 40 -4v-459q0 -90 -62 -149t-162 -59q-129 0 -195 74q12 37 52 55q53 -57 143 -57q72 0 108 37.5t36 98.5v29q-65 -30 -137 -30q-93 0 -143.5 51.5t-50.5 133.5v275q19 4 40 4
q23 0 40 -4v-242q0 -73 28 -107.5t105 -34.5q71 0 118 31v353q19 4 40 4z" />
    <glyph glyph-name="ydieresis.ss02" horiz-adv-x="557" 
d="M182 548q-23 0 -38.5 15.5t-15.5 37.5q0 23 15.5 38t38.5 15q22 0 37 -15.5t15 -37.5t-15 -37.5t-37 -15.5zM376 548q-22 0 -37.5 15t-15.5 38t15 38t38 15q22 0 37 -15.5t15 -37.5t-15 -37.5t-37 -15.5zM441 475q23 0 40 -4v-459q0 -90 -62 -149t-162 -59
q-129 0 -195 74q12 37 52 55q53 -57 143 -57q72 0 108 37.5t36 98.5v29q-65 -30 -137 -30q-93 0 -143.5 51.5t-50.5 133.5v275q19 4 40 4q23 0 40 -4v-242q0 -73 28 -107.5t105 -34.5q71 0 118 31v353q19 4 40 4z" />
    <glyph glyph-name="ygrave.ss02" horiz-adv-x="557" 
d="M365 550q-5 -20 -22 -31l-169 100q16 48 52 67zM441 475q23 0 40 -4v-459q0 -90 -62 -149t-162 -59q-129 0 -195 74q12 37 52 55q53 -57 143 -57q72 0 108 37.5t36 98.5v29q-65 -30 -137 -30q-93 0 -143.5 51.5t-50.5 133.5v275q19 4 40 4q23 0 40 -4v-242
q0 -73 28 -107.5t105 -34.5q71 0 118 31v353q19 4 40 4z" />
    <glyph glyph-name="a.ss03" horiz-adv-x="505" 
d="M238 485q43 0 77.5 -9t64 -29.5t46 -57.5t16.5 -88v-269q-86 -46 -201 -46q-98 0 -150.5 39.5t-52.5 112.5q0 65 48.5 101.5t131.5 36.5h144v25q0 108 -128 108q-76 0 -135 -47q-29 18 -42 56q25 26 75 46.5t106 20.5zM121 138q0 -39 32 -59t89 -20q69 0 120 22v127h-144
q-51 0 -74 -16.5t-23 -53.5z" />
    <glyph glyph-name="aacute.ss03" horiz-adv-x="505" 
d="M173 519q-17 11 -22 31l139 136q36 -19 52 -67zM238 485q43 0 77.5 -9t64 -29.5t46 -57.5t16.5 -88v-269q-86 -46 -201 -46q-98 0 -150.5 39.5t-52.5 112.5q0 65 48.5 101.5t131.5 36.5h144v25q0 108 -128 108q-76 0 -135 -47q-29 18 -42 56q25 26 75 46.5t106 20.5z
M121 138q0 -39 32 -59t89 -20q69 0 120 22v127h-144q-51 0 -74 -16.5t-23 -53.5z" />
    <glyph glyph-name="abreve.ss03" horiz-adv-x="505" 
d="M247 530q-67 0 -100.5 38.5t-33.5 94.5q26 11 58 6q10 -78 78 -78q69 0 74 78q32 5 58 -6q0 -54 -34 -93.5t-100 -39.5zM238 485q43 0 77.5 -9t64 -29.5t46 -57.5t16.5 -88v-269q-86 -46 -201 -46q-98 0 -150.5 39.5t-52.5 112.5q0 65 48.5 101.5t131.5 36.5h144v25
q0 108 -128 108q-76 0 -135 -47q-29 18 -42 56q25 26 75 46.5t106 20.5zM121 138q0 -39 32 -59t89 -20q69 0 120 22v127h-144q-51 0 -74 -16.5t-23 -53.5z" />
    <glyph glyph-name="acircumflex.ss03" horiz-adv-x="505" 
d="M155 527q-27 11 -38 42l102 102q27 6 56 0l101 -100q-11 -33 -40 -45l-92 74zM238 485q43 0 77.5 -9t64 -29.5t46 -57.5t16.5 -88v-269q-86 -46 -201 -46q-98 0 -150.5 39.5t-52.5 112.5q0 65 48.5 101.5t131.5 36.5h144v25q0 108 -128 108q-76 0 -135 -47q-29 18 -42 56
q25 26 75 46.5t106 20.5zM121 138q0 -39 32 -59t89 -20q69 0 120 22v127h-144q-51 0 -74 -16.5t-23 -53.5z" />
    <glyph glyph-name="adieresis.ss03" horiz-adv-x="505" 
d="M151 548q-23 0 -38.5 15.5t-15.5 37.5q0 23 15.5 38t38.5 15q22 0 37 -15.5t15 -37.5t-15 -37.5t-37 -15.5zM345 548q-23 0 -38 15t-15 38t15 38t38 15q22 0 37 -15.5t15 -37.5t-15 -37.5t-37 -15.5zM238 485q43 0 77.5 -9t64 -29.5t46 -57.5t16.5 -88v-269
q-86 -46 -201 -46q-98 0 -150.5 39.5t-52.5 112.5q0 65 48.5 101.5t131.5 36.5h144v25q0 108 -128 108q-76 0 -135 -47q-29 18 -42 56q25 26 75 46.5t106 20.5zM121 138q0 -39 32 -59t89 -20q69 0 120 22v127h-144q-51 0 -74 -16.5t-23 -53.5z" />
    <glyph glyph-name="agrave.ss03" horiz-adv-x="505" 
d="M334 550q-5 -20 -22 -31l-169 100q16 48 52 67zM238 485q43 0 77.5 -9t64 -29.5t46 -57.5t16.5 -88v-269q-86 -46 -201 -46q-98 0 -150.5 39.5t-52.5 112.5q0 65 48.5 101.5t131.5 36.5h144v25q0 108 -128 108q-76 0 -135 -47q-29 18 -42 56q25 26 75 46.5t106 20.5z
M121 138q0 -39 32 -59t89 -20q69 0 120 22v127h-144q-51 0 -74 -16.5t-23 -53.5z" />
    <glyph glyph-name="amacron.ss03" horiz-adv-x="505" 
d="M376 562h-256q-5 15 -5 34t5 33h256q4 -15 4 -33t-4 -34zM238 485q43 0 77.5 -9t64 -29.5t46 -57.5t16.5 -88v-269q-86 -46 -201 -46q-98 0 -150.5 39.5t-52.5 112.5q0 65 48.5 101.5t131.5 36.5h144v25q0 108 -128 108q-76 0 -135 -47q-29 18 -42 56q25 26 75 46.5
t106 20.5zM121 138q0 -39 32 -59t89 -20q69 0 120 22v127h-144q-51 0 -74 -16.5t-23 -53.5z" />
    <glyph glyph-name="aogonek.ss03" horiz-adv-x="505" 
d="M439 -101q29 -19 29 -53q-38 -36 -107 -36q-36 0 -60 21t-24 55q0 54 56 110q-50 -10 -92 -10q-98 0 -150.5 39.5t-52.5 112.5q0 65 48.5 101.5t131.5 36.5h144v25q0 108 -128 108q-76 0 -135 -47q-29 18 -42 56q25 26 75 46.5t106 20.5q43 0 77.5 -9t64 -29.5t46 -57.5
t16.5 -88v-269q-35 -29 -61 -63.5t-26 -58.5q0 -30 32 -30q28 0 52 19zM121 138q0 -39 32 -59t89 -20q69 0 120 22v127h-144q-51 0 -74 -16.5t-23 -53.5z" />
    <glyph glyph-name="aring.ss03" horiz-adv-x="505" 
d="M248 505q-40 0 -68 28t-28 68t28 68t68 28q39 0 67 -28t28 -68t-28 -68t-67 -28zM248 645q-18 0 -30 -13t-12 -31t12 -30.5t30 -12.5t30 12.5t12 30.5t-12 31t-30 13zM238 485q43 0 77.5 -9t64 -29.5t46 -57.5t16.5 -88v-269q-86 -46 -201 -46q-98 0 -150.5 39.5
t-52.5 112.5q0 65 48.5 101.5t131.5 36.5h144v25q0 108 -128 108q-76 0 -135 -47q-29 18 -42 56q25 26 75 46.5t106 20.5zM121 138q0 -39 32 -59t89 -20q69 0 120 22v127h-144q-51 0 -74 -16.5t-23 -53.5z" />
    <glyph glyph-name="atilde.ss03" horiz-adv-x="505" 
d="M188 592q-36 0 -49 -44q-41 0 -62 21q11 43 38.5 67t65.5 24q28 -1 71 -20.5t57 -19.5q36 0 49 43q36 0 59 -21q-11 -42 -38 -65.5t-63 -23.5q-27 0 -71 19.5t-57 19.5zM238 485q43 0 77.5 -9t64 -29.5t46 -57.5t16.5 -88v-269q-86 -46 -201 -46q-98 0 -150.5 39.5
t-52.5 112.5q0 65 48.5 101.5t131.5 36.5h144v25q0 108 -128 108q-76 0 -135 -47q-29 18 -42 56q25 26 75 46.5t106 20.5zM121 138q0 -39 32 -59t89 -20q69 0 120 22v127h-144q-51 0 -74 -16.5t-23 -53.5z" />
    <glyph glyph-name="e.ss03" horiz-adv-x="511" 
d="M420 109q35 -18 44 -55q-81 -68 -188 -68q-106 0 -168.5 65t-62.5 183q0 109 69 180t170 71q84 0 133 -42.5t49 -103.5q0 -133 -162 -133h-175q7 -65 46 -105.5t101 -40.5q41 0 73 10t40 15.5t31 23.5zM284 413q-65 0 -106.5 -41t-47.5 -99h181q36 0 54.5 18t18.5 48
q0 34 -27.5 54t-72.5 20z" />
    <glyph glyph-name="eacute.ss03" horiz-adv-x="511" 
d="M187 519q-17 11 -22 31l139 136q36 -19 52 -67zM420 109q35 -18 44 -55q-81 -68 -188 -68q-106 0 -168.5 65t-62.5 183q0 109 69 180t170 71q84 0 133 -42.5t49 -103.5q0 -133 -162 -133h-175q7 -65 46 -105.5t101 -40.5q41 0 73 10t40 15.5t31 23.5zM284 413
q-65 0 -106.5 -41t-47.5 -99h181q36 0 54.5 18t18.5 48q0 34 -27.5 54t-72.5 20z" />
    <glyph glyph-name="ecaron.ss03" horiz-adv-x="511" 
d="M288 532q-27 -6 -56 0l-98 99q9 34 38 46l90 -74l92 74q28 -12 39 -43zM420 109q35 -18 44 -55q-81 -68 -188 -68q-106 0 -168.5 65t-62.5 183q0 109 69 180t170 71q84 0 133 -42.5t49 -103.5q0 -133 -162 -133h-175q7 -65 46 -105.5t101 -40.5q41 0 73 10t40 15.5
t31 23.5zM284 413q-65 0 -106.5 -41t-47.5 -99h181q36 0 54.5 18t18.5 48q0 34 -27.5 54t-72.5 20z" />
    <glyph glyph-name="ecircumflex.ss03" horiz-adv-x="511" 
d="M169 527q-27 11 -38 42l102 102q27 6 56 0l101 -100q-11 -33 -40 -45l-92 74zM420 109q35 -18 44 -55q-81 -68 -188 -68q-106 0 -168.5 65t-62.5 183q0 109 69 180t170 71q84 0 133 -42.5t49 -103.5q0 -133 -162 -133h-175q7 -65 46 -105.5t101 -40.5q41 0 73 10t40 15.5
t31 23.5zM284 413q-65 0 -106.5 -41t-47.5 -99h181q36 0 54.5 18t18.5 48q0 34 -27.5 54t-72.5 20z" />
    <glyph glyph-name="edieresis.ss03" horiz-adv-x="511" 
d="M165 548q-23 0 -38.5 15.5t-15.5 37.5q0 23 15.5 38t38.5 15q22 0 37 -15.5t15 -37.5t-15 -37.5t-37 -15.5zM359 548q-23 0 -38 15t-15 38t15 38t38 15q22 0 37 -15.5t15 -37.5t-15 -37.5t-37 -15.5zM420 109q35 -18 44 -55q-81 -68 -188 -68q-106 0 -168.5 65t-62.5 183
q0 109 69 180t170 71q84 0 133 -42.5t49 -103.5q0 -133 -162 -133h-175q7 -65 46 -105.5t101 -40.5q41 0 73 10t40 15.5t31 23.5zM284 413q-65 0 -106.5 -41t-47.5 -99h181q36 0 54.5 18t18.5 48q0 34 -27.5 54t-72.5 20z" />
    <glyph glyph-name="edotaccent.ss03" horiz-adv-x="511" 
d="M261 551q-24 0 -41 16.5t-17 40.5t16.5 40.5t41.5 16.5q23 0 39.5 -16.5t16.5 -40.5t-16.5 -40.5t-39.5 -16.5zM420 109q35 -18 44 -55q-81 -68 -188 -68q-106 0 -168.5 65t-62.5 183q0 109 69 180t170 71q84 0 133 -42.5t49 -103.5q0 -133 -162 -133h-175
q7 -65 46 -105.5t101 -40.5q41 0 73 10t40 15.5t31 23.5zM284 413q-65 0 -106.5 -41t-47.5 -99h181q36 0 54.5 18t18.5 48q0 34 -27.5 54t-72.5 20z" />
    <glyph glyph-name="egrave.ss03" horiz-adv-x="511" 
d="M348 550q-5 -20 -22 -31l-169 100q16 48 52 67zM420 109q35 -18 44 -55q-81 -68 -188 -68q-106 0 -168.5 65t-62.5 183q0 109 69 180t170 71q84 0 133 -42.5t49 -103.5q0 -133 -162 -133h-175q7 -65 46 -105.5t101 -40.5q41 0 73 10t40 15.5t31 23.5zM284 413
q-65 0 -106.5 -41t-47.5 -99h181q36 0 54.5 18t18.5 48q0 34 -27.5 54t-72.5 20z" />
    <glyph glyph-name="emacron.ss03" horiz-adv-x="511" 
d="M390 562h-256q-5 15 -5 34t5 33h256q4 -15 4 -33t-4 -34zM420 109q35 -18 44 -55q-81 -68 -188 -68q-106 0 -168.5 65t-62.5 183q0 109 69 180t170 71q84 0 133 -42.5t49 -103.5q0 -133 -162 -133h-175q7 -65 46 -105.5t101 -40.5q41 0 73 10t40 15.5t31 23.5zM284 413
q-65 0 -106.5 -41t-47.5 -99h181q36 0 54.5 18t18.5 48q0 34 -27.5 54t-72.5 20z" />
    <glyph glyph-name="eogonek.ss03" horiz-adv-x="511" 
d="M433 30q-35 -29 -60 -62.5t-25 -57.5q0 -30 32 -30q28 0 52 19q29 -19 29 -53q-38 -36 -107 -36q-36 0 -60 21t-24 55q0 50 49 103q-19 -3 -43 -3q-106 0 -168.5 65t-62.5 183q0 109 69 180t170 71q84 0 133 -42.5t49 -103.5q0 -133 -162 -133h-175q7 -65 46 -105.5
t101 -40.5q41 0 73 10t40 15.5t31 23.5q35 -18 44 -55q-9 -8 -31 -24zM284 413q-65 0 -106.5 -41t-47.5 -99h181q36 0 54.5 18t18.5 48q0 34 -27.5 54t-72.5 20z" />
    <glyph glyph-name="g.ss03" horiz-adv-x="537" 
d="M521 491q-28 -68 -105 -83q36 -52 36 -127q0 -66 -41 -120q65 -62 65 -147q0 -90 -64.5 -150t-165.5 -60q-67 0 -120 27.5t-85 75.5q23 36 60 51q53 -79 145 -79q72 0 109.5 37.5t37.5 97.5q0 58 -41 94q-50 -29 -109 -29q-94 0 -149 57.5t-55 144.5q0 89 65 145.5
t155 56.5h81q36 0 54 2.5t35 14t28 36.5q42 -10 64 -45zM121 284q-2 -60 31.5 -95t93.5 -35q56 0 90.5 38.5t34.5 89.5q0 46 -36 124h-79q-58 0 -94.5 -30t-40.5 -92z" />
    <glyph glyph-name="gbreve.ss03" horiz-adv-x="537" 
d="M257 530q-67 0 -100.5 38.5t-33.5 94.5q26 11 58 6q10 -78 78 -78q69 0 74 78q32 5 58 -6q0 -54 -34 -93.5t-100 -39.5zM521 491q-28 -68 -105 -83q36 -52 36 -127q0 -66 -41 -120q65 -62 65 -147q0 -90 -64.5 -150t-165.5 -60q-67 0 -120 27.5t-85 75.5q23 36 60 51
q53 -79 145 -79q72 0 109.5 37.5t37.5 97.5q0 58 -41 94q-50 -29 -109 -29q-94 0 -149 57.5t-55 144.5q0 89 65 145.5t155 56.5h81q36 0 54 2.5t35 14t28 36.5q42 -10 64 -45zM121 284q-2 -60 31.5 -95t93.5 -35q56 0 90.5 38.5t34.5 89.5q0 46 -36 124h-79q-58 0 -94.5 -30
t-40.5 -92z" />
    <glyph glyph-name="gcommaaccent.ss03" horiz-adv-x="537" 
d="M251 506q-22 0 -36 7q-4 19 -4 40q0 37 20.5 71t57.5 55q19 -5 26 -27q-31 -28 -31 -84q0 -29 9 -54q-16 -8 -42 -8zM521 491q-28 -68 -105 -83q36 -52 36 -127q0 -66 -41 -120q65 -62 65 -147q0 -90 -64.5 -150t-165.5 -60q-67 0 -120 27.5t-85 75.5q23 36 60 51
q53 -79 145 -79q72 0 109.5 37.5t37.5 97.5q0 58 -41 94q-50 -29 -109 -29q-94 0 -149 57.5t-55 144.5q0 89 65 145.5t155 56.5h81q36 0 54 2.5t35 14t28 36.5q42 -10 64 -45zM121 284q-2 -60 31.5 -95t93.5 -35q56 0 90.5 38.5t34.5 89.5q0 46 -36 124h-79q-58 0 -94.5 -30
t-40.5 -92z" />
    <glyph glyph-name="gdotaccent.ss03" horiz-adv-x="537" 
d="M257 551q-24 0 -41 16.5t-17 40.5t16.5 40.5t41.5 16.5q23 0 39.5 -16.5t16.5 -40.5t-16.5 -40.5t-39.5 -16.5zM521 491q-28 -68 -105 -83q36 -52 36 -127q0 -66 -41 -120q65 -62 65 -147q0 -90 -64.5 -150t-165.5 -60q-67 0 -120 27.5t-85 75.5q23 36 60 51
q53 -79 145 -79q72 0 109.5 37.5t37.5 97.5q0 58 -41 94q-50 -29 -109 -29q-94 0 -149 57.5t-55 144.5q0 89 65 145.5t155 56.5h81q36 0 54 2.5t35 14t28 36.5q42 -10 64 -45zM121 284q-2 -60 31.5 -95t93.5 -35q56 0 90.5 38.5t34.5 89.5q0 46 -36 124h-79q-58 0 -94.5 -30
t-40.5 -92z" />
    <glyph glyph-name="g.ss04" horiz-adv-x="525" 
d="M512 487q-25 -63 -93 -84q25 -46 25 -106q0 -75 -53.5 -127.5t-140.5 -52.5h-58q-20 0 -33.5 -13t-13.5 -34q0 -20 13.5 -32t33.5 -12h255q7 -18 7 -41q0 -22 -7 -40h-247q-72 0 -108 31t-36 85q0 65 59 103q-56 51 -56 133q0 83 57 134t148 49l77 -2q45 -2 70 9t40 42
q41 -11 61 -42zM359 293q2 61 -26 106l-72 2q-117 3 -117 -105q0 -103 106 -103q53 0 80 26.5t29 73.5z" />
    <glyph glyph-name="gbreve.ss04" horiz-adv-x="525" 
d="M257 530q-67 0 -100.5 38.5t-33.5 94.5q26 11 58 6q10 -78 78 -78q69 0 74 78q32 5 58 -6q0 -54 -34 -93.5t-100 -39.5zM512 487q-25 -63 -93 -84q25 -46 25 -106q0 -75 -53.5 -127.5t-140.5 -52.5h-58q-20 0 -33.5 -13t-13.5 -34q0 -20 13.5 -32t33.5 -12h255
q7 -18 7 -41q0 -22 -7 -40h-247q-72 0 -108 31t-36 85q0 65 59 103q-56 51 -56 133q0 83 57 134t148 49l77 -2q45 -2 70 9t40 42q41 -11 61 -42zM359 293q2 61 -26 106l-72 2q-117 3 -117 -105q0 -103 106 -103q53 0 80 26.5t29 73.5z" />
    <glyph glyph-name="gcommaaccent.ss04" horiz-adv-x="525" 
d="M251 506q-22 0 -36 7q-4 19 -4 40q0 37 20.5 71t57.5 55q19 -5 26 -27q-31 -28 -31 -84q0 -29 9 -54q-16 -8 -42 -8zM512 487q-25 -63 -93 -84q25 -46 25 -106q0 -75 -53.5 -127.5t-140.5 -52.5h-58q-20 0 -33.5 -13t-13.5 -34q0 -20 13.5 -32t33.5 -12h255q7 -18 7 -41
q0 -22 -7 -40h-247q-72 0 -108 31t-36 85q0 65 59 103q-56 51 -56 133q0 83 57 134t148 49l77 -2q45 -2 70 9t40 42q41 -11 61 -42zM359 293q2 61 -26 106l-72 2q-117 3 -117 -105q0 -103 106 -103q53 0 80 26.5t29 73.5z" />
    <glyph glyph-name="gdotaccent.ss04" horiz-adv-x="525" 
d="M257 551q-24 0 -41 16.5t-17 40.5t16.5 40.5t41.5 16.5q23 0 39.5 -16.5t16.5 -40.5t-16.5 -40.5t-39.5 -16.5zM512 487q-25 -63 -93 -84q25 -46 25 -106q0 -75 -53.5 -127.5t-140.5 -52.5h-58q-20 0 -33.5 -13t-13.5 -34q0 -20 13.5 -32t33.5 -12h255q7 -18 7 -41
q0 -22 -7 -40h-247q-72 0 -108 31t-36 85q0 65 59 103q-56 51 -56 133q0 83 57 134t148 49l77 -2q45 -2 70 9t40 42q41 -11 61 -42zM359 293q2 61 -26 106l-72 2q-117 3 -117 -105q0 -103 106 -103q53 0 80 26.5t29 73.5z" />
    <glyph glyph-name="zero.osf" horiz-adv-x="610" 
d="M305 -16q-118 0 -185.5 78.5t-67.5 203.5t67.5 203t185.5 78t185.5 -78t67.5 -203t-67.5 -203.5t-185.5 -78.5zM305 59q83 0 124.5 56t41.5 151q0 94 -41.5 150t-124.5 56t-124.5 -56t-41.5 -150q0 -95 41.5 -151t124.5 -56z" />
    <glyph glyph-name="one.osf" horiz-adv-x="316" 
d="M203 543q16 0 25 -4v-539q-17 -4 -41 -4q-20 0 -39 4v435l-93 -46q-29 26 -34 68l157 82q9 4 25 4z" />
    <glyph glyph-name="two.osf" horiz-adv-x="493" 
d="M449 77q5 -16 5 -38q0 -23 -5 -39h-391q-3 10 -3 24q0 47 35 74q158 122 203.5 172.5t45.5 108.5q0 41 -31 67t-84 26q-76 0 -137 -58q-34 11 -48 49q29 34 80 59.5t105 25.5q86 0 142 -44.5t56 -124.5q0 -42 -13.5 -77.5t-48 -72t-67 -63.5t-97.5 -75l-24 -16l25 2h252z
" />
    <glyph glyph-name="three.osf" horiz-adv-x="479" 
d="M325 265q106 -37 106 -160q0 -80 -60.5 -131.5t-153.5 -51.5q-112 0 -181 62q9 38 42 56q68 -51 139 -51q59 0 96 30.5t37 85.5q0 117 -166 117q-5 17 -5 33q0 17 5 30q133 0 133 105q0 38 -26 62t-71 24q-77 0 -126 -51q-37 12 -47 45q60 77 173 77q75 0 126 -39.5
t51 -110.5q0 -82 -72 -132z" />
    <glyph glyph-name="four.osf" horiz-adv-x="537" 
d="M500 85q0 -23 -4 -39h-79v-125q-20 -3 -40 -3q-19 0 -39 3v125h-303q-8 19 -8 35q0 29 18 54l298 398q17 3 37 3q22 0 37 -3v-413h80q3 -17 3 -35zM126 120h212v269l2 20l-14 -20z" />
    <glyph glyph-name="five.osf" horiz-adv-x="498" 
d="M230 -79q-111 0 -180 62q11 41 46 61q17 -18 53 -35t81 -17q63 0 99.5 33.5t36.5 96.5q0 66 -45.5 93.5t-152.5 27.5h-97v290h349q4 -19 4 -42q0 -17 -3 -35h-270v-136h17q148 0 214.5 -46.5t66.5 -148.5q0 -95 -60 -149.5t-159 -54.5z" />
    <glyph glyph-name="six.osf" horiz-adv-x="513" 
d="M273 383q90 0 145 -52t55 -145q0 -89 -58.5 -144.5t-154.5 -55.5q-97 0 -154.5 63.5t-57.5 177.5q0 157 101 268.5t256 158.5q31 -17 31 -65q-238 -79 -292 -251q55 45 129 45zM263 57q61 0 97 33t36 96q0 66 -39.5 95.5t-93.5 29.5q-74 0 -134 -52q-1 -12 -1 -36
q0 -77 38.5 -121.5t96.5 -44.5z" />
    <glyph glyph-name="seven.osf" horiz-adv-x="476" 
d="M445 532q3 -10 3 -27q0 -46 -19 -83l-278 -525q-44 8 -68 39l277 516h-323q-4 28 -4 40q0 14 4 40h408z" />
    <glyph glyph-name="eight.osf" horiz-adv-x="503" 
d="M328 335q60 -34 91.5 -73t31.5 -97q0 -91 -58.5 -137t-138.5 -46q-86 0 -144 37t-58 120q0 112 121 187q-110 68 -110 168q0 74 55 122t139 48q80 0 129.5 -43.5t49.5 -119.5q0 -102 -108 -166zM141 501q0 -45 30.5 -73t89.5 -58q1 0 1 -0.5t1 -0.5q50 28 73.5 55.5
t23.5 71.5q0 42 -30 68.5t-79 26.5t-79.5 -24.5t-30.5 -65.5zM252 52q53 0 87 23t34 72q0 28 -9.5 50t-31.5 39.5t-40 28t-52 26.5l-6 3q-43 -24 -73 -61.5t-30 -82.5q0 -48 35.5 -73t85.5 -25z" />
    <glyph glyph-name="nine.osf" horiz-adv-x="505" 
d="M241 547q100 0 156 -70t56 -189q0 -85 -21.5 -150.5t-54.5 -104.5t-81 -64t-94 -34.5t-100 -12.5q-9 18 -9 41q0 12 3 27q55 3 93.5 12t78 30t64.5 62.5t35 104.5q-62 -37 -140 -37q-80 0 -135 51t-55 138q0 85 56 140.5t148 55.5zM237 234q69 0 136 40v14
q0 85 -37 136.5t-98 51.5q-56 0 -90 -33.5t-34 -91.5t36.5 -87.5t86.5 -29.5z" />
    <glyph glyph-name="zero.tf" horiz-adv-x="549" 
d="M275 -16q-111 0 -169.5 91t-58.5 245q0 153 59 243.5t169 90.5q112 0 170 -90t58 -244q0 -153 -59 -244.5t-169 -91.5zM275 56q137 0 137 264q0 262 -137 262t-137 -262q0 -264 137 -264z" />
    <glyph glyph-name="one.tf" horiz-adv-x="549" 
d="M476 71q5 -17 5 -35q0 -14 -5 -36h-357q-5 20 -5 35q0 16 5 36h146v462l-145 -68q-30 27 -35 71l210 106q11 4 26 4q16 0 25 -4v-571h130z" />
    <glyph glyph-name="two.tf" horiz-adv-x="549" 
d="M482 80q5 -17 5 -40q0 -24 -5 -40h-406q-3 10 -3 24q0 38 35 74q165 183 213.5 247.5t48.5 114.5q0 118 -114 118q-37 0 -69.5 -13.5t-46 -24.5t-33.5 -31q-34 11 -48 49q32 39 85.5 67.5t114.5 28.5q88 0 143 -47.5t55 -137.5q0 -22 -5.5 -44.5t-12.5 -41t-23.5 -44
l-28 -42t-37 -46l-39 -44.5l-46 -50.5l-47.5 -51.5l-26 -26l33 1h257z" />
    <glyph glyph-name="three.tf" horiz-adv-x="549" 
d="M245 -14q-62 0 -109.5 19t-70.5 43q11 39 46 61q63 -51 134 -51q73 0 113.5 36t40.5 103q0 72 -45.5 108.5t-154.5 36.5h-20q0 2 -1.5 8.5t-1.5 9.5q0 19 24 47l137 154h-271q-5 23 -5 41t5 40h390q1 -4 1 -13q0 -43 -29 -76l-135 -146q33 -3 64 -15t60.5 -34t47 -61.5
t17.5 -91.5q0 -106 -67.5 -162.5t-169.5 -56.5z" />
    <glyph glyph-name="four.tf" horiz-adv-x="549" 
d="M493 212q0 -22 -4 -38h-69v-174q-20 -3 -40 -3t-39 3v174h-271q-29 59 13 146l176 344q36 -7 73 -30l-165 -329q-20 -43 -20 -59h194v147q19 3 39 3t40 -3v-147h70q3 -16 3 -34z" />
    <glyph glyph-name="five.tf" horiz-adv-x="549" 
d="M248 -14q-107 0 -179 62q11 41 46 61q63 -52 133 -52q79 0 119.5 39t40.5 106q0 65 -40 100.5t-120 35.5q-30 0 -74 -12.5t-67 -12.5q-14 0 -24 4v325h371q4 -17 4 -39q0 -20 -3 -41h-292v-163q41 18 92 18q116 0 176 -55t60 -157q0 -100 -64 -159.5t-179 -59.5z" />
    <glyph glyph-name="six.tf" horiz-adv-x="549" 
d="M295 401q92 0 148.5 -53.5t56.5 -149.5t-61.5 -154.5t-158.5 -58.5q-100 0 -159.5 65.5t-59.5 181.5q0 93 30.5 171t82.5 130.5t114 86t132 48.5q24 -21 26 -69q-229 -57 -285 -237q63 39 134 39zM288 56q59 0 95.5 36t36.5 106q0 67 -40 97t-95 30q-77 0 -139 -42
q-2 -30 -2 -47q0 -82 39.5 -131t104.5 -49z" />
    <glyph glyph-name="seven.tf" horiz-adv-x="549" 
d="M488 642q5 -12 5 -28q0 -46 -21 -85l-283 -545q-46 8 -71 39l287 539h-341q-4 28 -4 40q0 14 4 40h424z" />
    <glyph glyph-name="eight.tf" horiz-adv-x="549" 
d="M376 339q51 -29 80 -66.5t29 -94.5q0 -100 -62.5 -146.5t-149.5 -46.5t-148.5 42.5t-61.5 127.5q0 104 111 188q-88 52 -88 146q0 77 53 124.5t136 47.5q86 0 137 -45.5t51 -121.5q0 -88 -87 -155zM275 589q-51 0 -81 -25t-30 -65q0 -42 30.5 -67.5t92.5 -51.5l26 -11
q72 53 72 120q0 48 -30.5 74t-79.5 26zM273 57q133 0 133 112q0 26 -10.5 46.5t-34.5 36.5t-42.5 25t-54.5 24l-28 12q-93 -64 -93 -150q0 -56 36.5 -81t93.5 -25z" />
    <glyph glyph-name="nine.tf" horiz-adv-x="549" 
d="M265 661q103 0 158.5 -73.5t55.5 -220.5q0 -94 -20.5 -164.5t-53 -111t-81 -65t-95 -33t-105.5 -8.5q-9 18 -9 41q0 14 3 29q46 1 77 4.5t68 16t60.5 35t43 64t27.5 100.5q-63 -38 -129 -38q-96 0 -154 56t-58 152q0 94 60 155t152 61zM268 308q72 0 131 40v19
q0 223 -139 223q-55 0 -92.5 -38.5t-37.5 -106.5q0 -66 42 -101.5t96 -35.5z" />
    <glyph glyph-name="currency.osf" horiz-adv-x="607" 
d="M539 254q0 -76 -44 -136l55 -57q-26 -39 -60 -60l-56 57q-58 -39 -130 -39t-131 40l-56 -58q-34 21 -60 60l55 57q-43 62 -43 136q0 75 43 136l-55 58q26 39 60 60l57 -58q58 39 130 39t130 -39l56 58q34 -21 60 -60l-55 -57q44 -61 44 -137zM302 95q65 0 111 46.5
t46 113.5t-46 113.5t-111 46.5q-52 0 -94 -32l-22 -22q-39 -45 -39 -106q0 -67 45 -113.5t110 -46.5z" />
    <glyph glyph-name="dollar.osf" horiz-adv-x="475" 
d="M438 161q0 -76 -45.5 -119t-121.5 -51v-107q-5 -2 -31 -2t-32 2v106q-58 5 -103.5 27t-67.5 45q12 38 49 59q48 -48 122 -58v163q-77 9 -120.5 45.5t-43.5 99.5q0 65 43 106t121 49v103q6 2 32 2t31 -2v-102q45 -4 86 -20t66 -37q-4 -40 -40 -61q-51 38 -112 45v-148
q167 -22 167 -145zM125 385q0 -28 17 -45.5t66 -26.5v141q-41 -5 -62 -23.5t-21 -45.5zM271 63q41 6 63.5 27t22.5 52q0 32 -17 52.5t-69 27.5v-159z" />
    <glyph glyph-name="sterling.osf" horiz-adv-x="509" 
d="M458 70q5 -15 5 -31q0 -21 -5 -39h-386q0 38 21.5 105.5t22.5 120.5h-67q-4 24 -4 34t4 34h61q-6 44 -6 65q0 85 53 137t141 52q90 0 160 -56q-8 -44 -43 -65q-55 51 -117 51q-117 0 -117 -112q0 -24 8 -72h169q4 -16 4 -34t-4 -34h-165q-2 -77 -30 -156h295z" />
    <glyph glyph-name="yen.osf" horiz-adv-x="528" 
d="M424 210h-122v-59h122q4 -13 4 -31q0 -17 -4 -32h-122v-88q-17 -4 -41 -4q-22 0 -42 4v88h-124q-4 22 -4 32q0 11 4 31h124v59h-124q-4 22 -4 32q0 11 4 31h89l-158 251q25 7 44 7q37 0 55 -3l131 -224l11 -23l11 23l142 224q15 3 46 3q18 0 39 -7l-164 -251h83
q4 -13 4 -31q0 -17 -4 -32z" />
    <glyph glyph-name="ampersand.ss02" horiz-adv-x="622" 
d="M474 191q-2 -30 -10 -55l118 -132q-18 -8 -46 -8q-29 0 -46 4l-62 68q-64 -81 -173 -81q-97 0 -153 53t-56 141q0 62 32.5 109.5t83.5 71.5q-57 68 -57 130q0 63 47.5 107.5t116.5 44.5q86 0 142 -50q-10 -34 -44 -56q-46 43 -94 43q-38 0 -63 -24t-25 -60q0 -47 47 -100
l172 -193v171h177q10 -31 0 -64h-107v-120zM258 60q84 0 123 61l-170 187q-43 -14 -65 -48.5t-22 -78.5q0 -53 34.5 -87t99.5 -34z" />
    <glyph glyph-name="caroncomb.alt" 
d="M-88 529q-21 4 -31 19q16 35 16 94q0 36 -9 58q14 9 40 9q21 0 35 -8q5 -15 5 -35q0 -83 -56 -137z" />
    <glyph glyph-name="gravecomb.case" 
d="M-33 673l-186 73q1 50 42 74l161 -114q-3 -22 -17 -33z" />
    <glyph glyph-name="acutecomb.case" 
d="M-209 673q-14 11 -17 33l161 114q41 -24 42 -74z" />
    <glyph glyph-name="tildecomb.case" 
d="M-291 686q-40 0 -61 21q11 43 39.5 66.5t66.5 23.5q27 0 70 -19t56 -19q38 0 48 42q41 0 60 -21q-11 -42 -39 -66t-64 -24q-27 0 -70 18.5t-56 18.5q-40 0 -50 -41z" />
    <glyph glyph-name="acute.case" horiz-adv-x="236" 
d="M28 673q-14 11 -17 33l161 114q41 -24 42 -74z" />
    <glyph glyph-name="breve.case" horiz-adv-x="317" 
d="M158 684q-61 0 -97.5 34.5t-36.5 81.5q27 11 60 6q5 -26 25 -42t51 -16q32 0 51.5 16t21.5 42q32 4 59 -6q0 -45 -37 -80.5t-97 -35.5z" />
    <glyph glyph-name="caron.case" horiz-adv-x="307" 
d="M124 687l-103 83q5 25 27 42l108 -62l101 62q22 -15 26 -41l-103 -84q-28 -7 -56 0z" />
    <glyph glyph-name="circumflex.case" horiz-adv-x="303" 
d="M47 680q-20 14 -26 41l103 84q28 7 56 0l103 -83q-5 -24 -27 -42l-108 62z" />
    <glyph glyph-name="dieresis.case" horiz-adv-x="333" 
d="M73 696q-23 0 -38 15t-15 37t15 36.5t38 14.5q21 0 35.5 -14.5t14.5 -36.5t-14.5 -37t-35.5 -15zM262 696q-22 0 -37 15t-15 37t15 36.5t37 14.5q21 0 36 -14.5t15 -36.5t-15 -37t-36 -15z" />
    <glyph glyph-name="dotaccent.case" horiz-adv-x="150" 
d="M76 694q-23 0 -39.5 16t-16.5 39t16 39t40 16q23 0 38.5 -16t15.5 -39t-15.5 -39t-38.5 -16z" />
    <glyph glyph-name="grave.case" horiz-adv-x="241" 
d="M204 673l-186 73q1 50 42 74l161 -114q-3 -22 -17 -33z" />
    <glyph glyph-name="hungarumlaut.case" horiz-adv-x="353" 
d="M46 668q-21 11 -26 27l101 130q44 -9 58 -57zM200 668q-21 11 -26 27l101 130q44 -9 58 -57z" />
    <glyph glyph-name="macron.case" horiz-adv-x="324" 
d="M29 713q-4 24 -4 34q0 11 4 33h266q4 -15 4 -33t-4 -34h-266z" />
    <glyph glyph-name="ring.case" horiz-adv-x="231" 
d="M116 656q-40 0 -68 28t-28 68t28 68t68 28q39 0 67 -28t28 -68t-28 -68t-67 -28zM116 710q17 0 28 12.5t11 29.5q0 18 -11 30.5t-28 12.5q-18 0 -29.5 -12.5t-11.5 -30.5q0 -17 11.5 -29.5t29.5 -12.5z" />
    <glyph glyph-name="tilde.case" horiz-adv-x="360" 
d="M69 686q-40 0 -61 21q11 43 39.5 66.5t66.5 23.5q27 0 70 -19t56 -19q38 0 48 42q41 0 60 -21q-11 -42 -39 -66t-64 -24q-27 0 -70 18.5t-56 18.5q-40 0 -50 -41z" />
    <glyph glyph-name="IJacute" horiz-adv-x="509" 
d="M47 673q-14 11 -17 33l161 114q41 -24 42 -74zM296 673q-14 11 -17 33l161 114q41 -24 42 -74zM124 63q-17 0 -42 5v574q18 6 42 6t41 -6v-574q-23 -5 -41 -5zM242 -139q-85 0 -134 61q16 41 54 56q33 -43 80 -43q46 0 69.5 24.5t23.5 81.5v601q16 5 44 5q23 0 41 -5
v-602q0 -90 -50 -134.5t-128 -44.5z" />
    <glyph glyph-name="ijacute" horiz-adv-x="465" 
d="M52 519q-17 11 -22 31l139 136q36 -19 52 -67zM271 519q-17 11 -22 31l139 136q36 -19 52 -67zM117 -4q-21 0 -40 4v472q19 4 40 4q23 0 40 -4v-472q-17 -4 -40 -4zM225 -197q-71 0 -113 42q16 39 45 55q31 -26 68 -26q38 0 60.5 23.5t22.5 72.5v500q19 4 40 4
q23 0 40 -4v-501q0 -81 -48.5 -123.5t-114.5 -42.5z" />
    <glyph glyph-name="slashlong" horiz-adv-x="567" 
d="M86 -27q-33 11 -44 44l439 485q32 -11 44 -40z" />
    <glyph glyph-name="slashshort" horiz-adv-x="240" 
d="M27 258q-24 20 -27 55l218 110q22 -21 27 -55z" />
    <glyph glyph-name="stroke" horiz-adv-x="294" 
d="M25 437q-5 18 -5 32q0 15 5 33h244q5 -17 5 -32q0 -13 -5 -33h-244z" />
    <glyph glyph-name="caronalt" horiz-adv-x="145" 
d="M57 529q-21 4 -31 19q16 35 16 94q0 36 -9 58q14 9 40 9q21 0 35 -8q5 -15 5 -35q0 -83 -56 -137z" />
    <glyph glyph-name="slashlong.case" horiz-adv-x="678" 
d="M73 -20q-41 13 -53 52l583 631q39 -13 54 -47z" />
    <glyph glyph-name="slashshort.case" horiz-adv-x="302" 
d="M50 250q-10 8 -19 27t-11 34l232 116q10 -9 19.5 -28t10.5 -33z" />
    <glyph glyph-name="i.loclTRK" horiz-adv-x="235" 
d="M118 553q-24 0 -41 16.5t-17 40.5t16.5 40.5t41.5 16.5q23 0 39.5 -16.5t16.5 -40.5t-16.5 -40.5t-39.5 -16.5zM118 -4q-22 0 -41 4v472q19 4 41 4q23 0 40 -4v-472q-17 -4 -40 -4z" />
    <glyph glyph-name="uni1EF9.ss01" horiz-adv-x="557" 
d="M219 592q-36 0 -49 -44q-41 0 -62 21q11 43 38.5 67t65.5 24q28 -1 71 -20.5t57 -19.5q36 0 49 43q36 0 59 -21q-11 -42 -38 -65.5t-63 -23.5q-27 0 -71 19.5t-57 19.5zM441 475q23 0 40 -4v-459q0 -90 -63 -149t-166 -59q-75 0 -119 31t-44 84q0 79 93 122
q-53 19 -82.5 61.5t-29.5 103.5v265q19 4 40 4q23 0 40 -4v-232q0 -73 28 -107.5t105 -34.5q71 0 118 31v343q19 4 40 4zM252 -124q68 0 108.5 38.5t40.5 97.5v39q-51 -23 -108 -29q-121 -22 -121 -87q0 -59 80 -59z" />
    <glyph glyph-name="uni1EF9.ss02" horiz-adv-x="557" 
d="M219 592q-36 0 -49 -44q-41 0 -62 21q11 43 38.5 67t65.5 24q28 -1 71 -20.5t57 -19.5q36 0 49 43q36 0 59 -21q-11 -42 -38 -65.5t-63 -23.5q-27 0 -71 19.5t-57 19.5zM441 475q23 0 40 -4v-459q0 -90 -62 -149t-162 -59q-129 0 -195 74q12 37 52 55q53 -57 143 -57
q72 0 108 37.5t36 98.5v29q-65 -30 -137 -30q-93 0 -143.5 51.5t-50.5 133.5v275q19 4 40 4q23 0 40 -4v-242q0 -73 28 -107.5t105 -34.5q71 0 118 31v353q19 4 40 4z" />
    <glyph glyph-name="cent.osf" horiz-adv-x="493" 
d="M406 128q32 -19 42 -56q-50 -52 -135 -59v-103q-15 -4 -33 -4t-33 4v105q-92 12 -147.5 74.5t-55.5 161.5q0 95 56 159t147 78v107q15 4 33 4t33 -4v-105q87 -7 139 -59q-11 -37 -47 -57q-42 37 -92 43v-330q46 5 93 41zM127 251q0 -59 30.5 -103.5t89.5 -57.5v323
q-59 -13 -89.5 -58t-30.5 -104z" />
    <glyph glyph-name="Euro.osf" horiz-adv-x="568" 
d="M489 94q31 -23 37 -55q-59 -53 -167 -53q-97 0 -161 50t-84 142h-78q-4 22 -4 32q0 11 4 31h70q-1 8 -1 25q0 23 1 34h-50q-4 22 -4 32q0 11 4 31h61q24 86 88 135.5t159 49.5q93 0 156 -47q-11 -35 -38 -54q-53 34 -118 34q-131 0 -166 -118h167q4 -13 4 -31
q0 -17 -4 -32h-179q-1 -11 -1 -34q0 -17 1 -25h159q4 -13 4 -31q0 -17 -4 -32h-149q34 -124 163 -124q75 0 130 40z" />
    <glyph glyph-name="uni0308.case" 
d="M-260 696q-23 0 -38 15t-15 37t15 36.5t38 14.5q21 0 35.5 -14.5t14.5 -36.5t-14.5 -37t-35.5 -15zM-71 696q-22 0 -37 15t-15 37t15 36.5t37 14.5q21 0 36 -14.5t15 -36.5t-15 -37t-36 -15z" />
    <glyph glyph-name="uni0307.case" 
d="M-74 694q-23 0 -39.5 16t-16.5 39t16 39t40 16q23 0 38.5 -16t15.5 -39t-15.5 -39t-38.5 -16z" />
    <glyph glyph-name="uni030B.case" 
d="M-307 668q-21 11 -26 27l101 130q44 -9 58 -57zM-153 668q-21 11 -26 27l101 130q44 -9 58 -57z" />
    <glyph glyph-name="uni0302.case" 
d="M-261 680q-20 14 -26 41l103 84q28 7 56 0l103 -83q-5 -24 -27 -42l-108 62z" />
    <glyph glyph-name="uni030C.case" 
d="M-183 687l-103 83q5 25 27 42l108 -62l101 62q22 -15 26 -41l-103 -84q-28 -7 -56 0z" />
    <glyph glyph-name="uni0306.case" 
d="M-158 684q-61 0 -97.5 34.5t-36.5 81.5q27 11 60 6q5 -26 25 -42t51 -16q32 0 51.5 16t21.5 42q32 4 59 -6q0 -45 -37 -80.5t-97 -35.5z" />
    <glyph glyph-name="uni030A.case" 
d="M-115 656q-40 0 -68 28t-28 68t28 68t68 28q39 0 67 -28t28 -68t-28 -68t-67 -28zM-115 710q17 0 28 12.5t11 29.5q0 18 -11 30.5t-28 12.5q-18 0 -29.5 -12.5t-11.5 -30.5q0 -17 11.5 -29.5t29.5 -12.5z" />
    <glyph glyph-name="uni0304.case" 
d="M-295 713q-4 24 -4 34q0 11 4 33h266q4 -15 4 -33t-4 -34h-266z" />
    <glyph glyph-name="uni0337.case" 
d="M-252 250q-10 8 -19 27t-11 34l232 116q10 -9 19.5 -28t10.5 -33z" />
    <glyph glyph-name="uni0338.case" 
d="M-605 -20q-41 13 -53 52l583 631q39 -13 54 -47z" />
    </font>
</defs>
</svg>
